<svg width="28" height="22" viewBox="0 0 28 22" fill="none" xmlns="http://www.w3.org/2000/svg">
<g clip-path="url(#clip0_1329_5875)">
<path d="M26.253 13.2514V12.9395H26.175L26.084 13.1474L25.993 12.9395H25.915V13.2514H25.967V13.0174L26.058 13.2254H26.123L26.214 13.0174V13.2514H26.253ZM25.733 13.2514V12.9914H25.837V12.9395H25.577V12.9914H25.681V13.2514H25.733Z" fill="#00A2E5"/>
<path d="M17.01 14.5894H9.97701V1.95703H17.01V14.5894Z" fill="#7375CF"/>
<path d="M10.432 8.27389C10.432 5.71362 11.628 3.42628 13.5 1.9577C12.135 0.879005 10.406 0.242188 8.534 0.242188C4.101 0.242188 0.5 3.84216 0.5 8.27389C0.5 12.7056 4.101 16.3056 8.534 16.3056C10.406 16.3056 12.135 15.6688 13.5 14.5901C11.628 13.1215 10.432 10.8342 10.432 8.27389Z" fill="#EB001B"/>
<path d="M26.5 8.27389C26.5 12.7056 22.899 16.3056 18.466 16.3056C16.594 16.3056 14.865 15.6688 13.5 14.5901C15.372 13.1215 16.568 10.8342 16.568 8.27389C16.568 5.71362 15.372 3.42628 13.5 1.9577C14.865 0.879005 16.594 0.242188 18.466 0.242188C22.899 0.242188 26.5 3.84216 26.5 8.27389Z" fill="#00A2E5"/>
<path d="M19.376 18.1636C19.467 18.1636 19.61 18.1766 19.701 18.2155L19.558 18.6574C19.454 18.6184 19.363 18.6054 19.272 18.6054C18.973 18.6054 18.817 18.8004 18.817 19.1513V20.3469H18.349V18.2155H18.804V18.4755C18.934 18.2805 19.116 18.1636 19.376 18.1636ZM17.66 18.6314H16.906V19.5932C16.906 19.8011 16.984 19.9441 17.218 19.9441C17.335 19.9441 17.491 19.9051 17.634 19.8271L17.764 20.23C17.621 20.3339 17.387 20.3989 17.179 20.3989C16.633 20.3989 16.438 20.1 16.438 19.6061V18.6314H16.009V18.2025H16.438V17.5527H16.906V18.2025H17.66V18.6314ZM11.719 19.0863C11.771 18.7744 11.953 18.5664 12.291 18.5664C12.59 18.5664 12.785 18.7484 12.837 19.0863H11.719ZM13.318 19.2812C13.318 18.6184 12.902 18.1636 12.304 18.1636C11.68 18.1636 11.238 18.6184 11.238 19.2812C11.238 19.957 11.693 20.3989 12.33 20.3989C12.655 20.3989 12.941 20.3209 13.201 20.1L12.967 19.7621C12.785 19.9051 12.564 19.983 12.343 19.983C12.044 19.983 11.771 19.8401 11.706 19.4632H13.292C13.305 19.3982 13.318 19.3462 13.318 19.2812ZM15.359 18.7614C15.229 18.6834 14.969 18.5794 14.696 18.5794C14.436 18.5794 14.293 18.6704 14.293 18.8264C14.293 18.9693 14.449 19.0083 14.657 19.0343L14.878 19.0603C15.346 19.1253 15.619 19.3202 15.619 19.6971C15.619 20.1 15.268 20.3989 14.644 20.3989C14.293 20.3989 13.968 20.3079 13.721 20.126L13.942 19.7621C14.098 19.8791 14.332 19.983 14.657 19.983C14.969 19.983 15.138 19.8921 15.138 19.7231C15.138 19.6061 15.021 19.5412 14.761 19.5022L14.54 19.4762C14.059 19.4112 13.799 19.1903 13.799 18.8524C13.799 18.4235 14.15 18.1636 14.683 18.1636C15.021 18.1636 15.333 18.2415 15.554 18.3845L15.359 18.7614ZM21.079 18.5924C20.988 18.5924 20.897 18.6054 20.819 18.6444C20.741 18.6834 20.663 18.7224 20.611 18.7874C20.559 18.8524 20.507 18.9173 20.468 19.0083C20.429 19.0863 20.416 19.1903 20.416 19.2812C20.416 19.3852 20.429 19.4762 20.468 19.5542C20.507 19.6321 20.546 19.7101 20.611 19.7751C20.676 19.8401 20.741 19.8791 20.819 19.9181C20.897 19.957 20.988 19.97 21.079 19.97C21.17 19.97 21.261 19.957 21.339 19.9181C21.417 19.8791 21.495 19.8401 21.547 19.7751C21.612 19.7101 21.651 19.6451 21.69 19.5542C21.729 19.4762 21.742 19.3722 21.742 19.2812C21.742 19.1773 21.729 19.0863 21.69 19.0083C21.651 18.9303 21.612 18.8524 21.547 18.7874C21.482 18.7224 21.417 18.6834 21.339 18.6444C21.261 18.6184 21.17 18.5924 21.079 18.5924ZM21.079 18.1636C21.248 18.1636 21.404 18.1896 21.534 18.2545C21.677 18.3065 21.794 18.3845 21.898 18.4885C22.002 18.5924 22.08 18.7094 22.145 18.8394C22.197 18.9823 22.236 19.1253 22.236 19.2812C22.236 19.4372 22.21 19.5932 22.145 19.7231C22.093 19.8661 22.002 19.983 21.898 20.074C21.794 20.178 21.677 20.256 21.534 20.3079C21.391 20.3599 21.235 20.3989 21.079 20.3989C20.91 20.3989 20.754 20.3729 20.624 20.3079C20.481 20.256 20.364 20.178 20.26 20.074C20.156 19.97 20.078 19.8531 20.013 19.7231C19.961 19.5802 19.922 19.4372 19.922 19.2812C19.922 19.1253 19.948 18.9693 20.013 18.8394C20.065 18.6964 20.156 18.5794 20.26 18.4885C20.364 18.3845 20.481 18.3065 20.624 18.2545C20.754 18.1896 20.91 18.1636 21.079 18.1636ZM9.01501 19.2812C9.01501 18.9043 9.26201 18.5924 9.66501 18.5924C10.055 18.5924 10.302 18.8914 10.302 19.2812C10.302 19.6711 10.042 19.957 9.66501 19.957C9.26201 19.957 9.01501 19.6581 9.01501 19.2812ZM10.744 19.2812V18.2155H10.276V18.4755C10.133 18.2805 9.91201 18.1636 9.60001 18.1636C9.00201 18.1636 8.53401 18.6314 8.53401 19.2812C8.53401 19.9311 9.00201 20.3989 9.60001 20.3989C9.89901 20.3989 10.12 20.282 10.276 20.087V20.3469H10.744V19.2812ZM8.13101 20.3469V19.0083C8.13101 18.5015 7.80601 18.1636 7.28601 18.1636C7.01301 18.1636 6.72701 18.2415 6.53201 18.5405C6.38901 18.3065 6.15501 18.1636 5.83001 18.1636C5.60901 18.1636 5.37501 18.2285 5.20601 18.4755V18.2155H4.73801V20.3469H5.20601V19.1643C5.20601 18.8004 5.41401 18.5924 5.72601 18.5924C6.03801 18.5924 6.19401 18.7874 6.19401 19.1513V20.3339H6.66201V19.1513C6.66201 18.7874 6.88301 18.5794 7.18201 18.5794C7.49401 18.5794 7.65001 18.7744 7.65001 19.1383V20.3209H8.13101V20.3469Z" fill="black"/>
<path d="M22.73 20.1781V20.2301H22.782C22.795 20.2301 22.808 20.2301 22.808 20.2171C22.821 20.2171 22.821 20.2041 22.821 20.1911C22.821 20.1781 22.821 20.1781 22.808 20.1781C22.808 20.1781 22.795 20.1651 22.782 20.1651H22.73V20.1781ZM22.782 20.1521C22.808 20.1521 22.821 20.1521 22.834 20.1651C22.847 20.1781 22.86 20.1911 22.86 20.2171C22.86 20.2301 22.86 20.2431 22.847 20.2561C22.834 20.2691 22.821 20.2691 22.795 20.2691L22.86 20.3471H22.808L22.743 20.2691H22.73V20.3471H22.691V20.1521H22.782ZM22.769 20.412C22.795 20.412 22.808 20.412 22.834 20.3991C22.86 20.3861 22.873 20.3731 22.886 20.3601C22.899 20.3471 22.912 20.3341 22.925 20.3081C22.938 20.2821 22.938 20.2691 22.938 20.2431C22.938 20.2171 22.938 20.2041 22.925 20.1781C22.912 20.1521 22.899 20.1391 22.886 20.1261C22.873 20.1131 22.86 20.1001 22.834 20.0871C22.821 20.0741 22.795 20.0741 22.769 20.0741C22.743 20.0741 22.73 20.0741 22.704 20.0871C22.678 20.1001 22.665 20.1131 22.652 20.1261C22.639 20.1391 22.626 20.1651 22.613 20.1781C22.6 20.2041 22.6 20.2171 22.6 20.2431C22.6 20.2691 22.6 20.2821 22.613 20.3081C22.626 20.3341 22.639 20.3471 22.652 20.3601C22.665 20.3731 22.691 20.3861 22.704 20.3991C22.73 20.412 22.743 20.412 22.769 20.412ZM22.769 20.0352C22.795 20.0352 22.821 20.0352 22.847 20.0482C22.873 20.0611 22.899 20.0741 22.912 20.0871C22.925 20.1001 22.951 20.1261 22.964 20.1521C22.977 20.1781 22.977 20.2041 22.977 20.2301C22.977 20.2561 22.977 20.2821 22.964 20.3081C22.951 20.3341 22.938 20.3601 22.912 20.3731C22.886 20.3861 22.873 20.412 22.847 20.425C22.821 20.438 22.795 20.438 22.769 20.438C22.743 20.438 22.704 20.438 22.678 20.425C22.652 20.412 22.626 20.3991 22.613 20.3731C22.6 20.3601 22.574 20.3341 22.561 20.3081C22.548 20.2821 22.548 20.2561 22.548 20.2301C22.548 20.2041 22.548 20.1781 22.561 20.1521C22.574 20.1261 22.587 20.1001 22.613 20.0871C22.626 20.0741 22.652 20.0482 22.678 20.0482C22.704 20.0352 22.743 20.0352 22.769 20.0352Z" fill="black"/>
</g>
<defs>
<clipPath id="clip0_1329_5875">
<rect width="27" height="21" fill="white" transform="translate(0.5 0.242188)"/>
</clipPath>
</defs>
</svg>
