<svg width="262" height="128" viewBox="0 0 262 128" fill="none" xmlns="http://www.w3.org/2000/svg">
<g clip-path="url(#clip0_1702_1712)">
<rect width="262" height="128" rx="28" fill="white"/>
<path fill-rule="evenodd" clip-rule="evenodd" d="M26.7347 0C11.9695 0 0 11.9391 0 26.6667V101.333C0 116.061 11.9695 128 26.7347 128H235.265C250.031 128 262 116.061 262 101.333V26.6667C262 11.9391 250.031 0 235.265 0H26.7347ZM218.143 85.1899H229.918V57.8163C229.918 52.1427 228.095 48.0483 224.448 45.5331C220.801 43.0179 216.103 41.7605 210.355 41.7605C202.629 41.7605 196.108 43.9832 190.792 48.4283L195.242 55.8859C199.075 52.552 203.432 50.8851 208.315 50.8851C211.282 50.8851 213.662 51.5285 215.455 52.8152C217.247 54.1021 218.143 55.8275 218.143 57.9917V63.6947C215.053 60.2435 210.324 58.5181 203.958 58.5181C199.816 58.5181 196.17 59.6587 193.017 61.9397C189.927 64.2211 188.381 67.6427 188.381 72.2051C188.381 76.5917 189.957 80.0427 193.11 82.5579C196.324 85.0144 199.94 86.2429 203.958 86.2429C210.201 86.2429 214.929 84.4296 218.143 80.8032V85.1899ZM218.143 75.0125C216.227 77.4691 213.075 78.6976 208.686 78.6976C206.276 78.6976 204.267 78.1419 202.66 77.0304C201.053 75.9192 200.249 74.3984 200.249 72.4683C200.249 70.4795 201.053 68.9296 202.66 67.8181C204.267 66.6483 206.276 66.0635 208.686 66.0635C213.075 66.0635 216.227 67.2917 218.143 69.7483V75.0125ZM174.949 86.24C170.807 86.24 167.655 85.2456 165.492 83.2568C163.328 81.2683 162.247 78.4021 162.247 74.6587V52.5491H154.829V42.8104H162.247V31.2291H174.114V42.8104H183.201V52.5491H174.114V71.6757C174.114 73.0211 174.485 74.1323 175.227 75.0096C175.969 75.8869 176.957 76.3259 178.194 76.3259C180.048 76.3259 181.408 75.9163 182.273 75.0973L184.777 83.52C182.613 85.3333 179.337 86.24 174.949 86.24ZM136.475 85.1899H148.249V57.8163C148.249 52.1427 146.426 48.0483 142.779 45.5331C139.132 43.0179 134.435 41.7605 128.687 41.7605C120.96 41.7605 114.439 43.9832 109.124 48.4283L113.574 55.8859C117.406 52.552 121.764 50.8851 126.647 50.8851C129.614 50.8851 131.993 51.5285 133.786 52.8152C135.578 54.1021 136.475 55.8275 136.475 57.9917V63.6947C133.384 60.2435 128.656 58.5181 122.289 58.5181C118.148 58.5181 114.501 59.6587 111.349 61.9397C108.258 64.2211 106.713 67.6427 106.713 72.2051C106.713 76.5917 108.289 80.0427 111.441 82.5579C114.655 85.0144 118.271 86.2429 122.289 86.2429C128.532 86.2429 133.26 84.4296 136.475 80.8032V85.1899ZM136.475 75.0125C134.559 77.4691 131.406 78.6976 127.018 78.6976C124.607 78.6976 122.598 78.1419 120.991 77.0304C119.384 75.9192 118.58 74.3984 118.58 72.4683C118.58 70.4795 119.384 68.9296 120.991 67.8181C122.598 66.6483 124.607 66.0635 127.018 66.0635C131.406 66.0635 134.559 67.2917 136.475 69.7483V75.0125ZM97.9091 85.1869H86.1341V26.6667H97.9091V85.1869ZM43.8567 79.7509C47.4415 84.0792 52.0466 86.2435 57.6713 86.2435C63.5433 86.2435 68.3026 84.2547 71.9495 80.2773C75.6581 76.3 77.5124 70.8603 77.5124 63.9584C77.5124 57.0563 75.6581 51.6459 71.9495 47.7272C68.3026 43.7496 63.5433 41.7611 57.6713 41.7611C51.9848 41.7611 47.3798 43.896 43.8567 48.1659V42.8139H32.0816V101.334H43.8567V79.7509ZM62.1215 72.9075C60.0819 75.1885 57.3622 76.3291 53.9626 76.3291C52.1083 76.3291 50.1922 75.8613 48.2141 74.9253C46.2981 73.9896 44.8456 72.8491 43.8567 71.5037V56.5008C44.8456 55.1555 46.2981 54.0149 48.2141 53.0789C50.1302 52.1432 52.0466 51.6752 53.9626 51.6752C57.3622 51.6752 60.0819 52.8157 62.1215 55.0971C64.2231 57.3781 65.2741 60.332 65.2741 63.9584C65.2741 67.6432 64.2231 70.6264 62.1215 72.9075Z" fill="black"/>
</g>
<defs>
<clipPath id="clip0_1702_1712">
<rect width="262" height="128" rx="28" fill="white"/>
</clipPath>
</defs>
</svg>
