<svg width="32" height="12" viewBox="0 0 32 12" fill="none" xmlns="http://www.w3.org/2000/svg">
<g id="Visa 1" clip-path="url(#clip0_403_2657)">
<path id="path3789" d="M20.838 0.822754C18.5682 0.822754 16.5397 1.99926 16.5397 4.17295C16.5397 6.66576 20.1373 6.83793 20.1373 8.09025C20.1373 8.61755 19.533 9.08957 18.5009 9.08957C17.0362 9.08957 15.9414 8.43002 15.9414 8.43002L15.473 10.6235C15.473 10.6235 16.7341 11.1806 18.4085 11.1806C20.8901 11.1806 22.8429 9.94635 22.8429 7.7355C22.8429 5.1014 19.2304 4.93433 19.2304 3.77197C19.2304 3.35891 19.7265 2.90632 20.7556 2.90632C21.9168 2.90632 22.8641 3.38599 22.8641 3.38599L23.3226 1.26745C23.3226 1.26745 22.2918 0.822754 20.838 0.822754ZM0.0710755 0.982644L0.0161133 1.30242C0.0161133 1.30242 0.971044 1.47719 1.83111 1.82581C2.93853 2.22558 3.01741 2.4583 3.20392 3.18113L5.23627 11.0157H7.96065L12.1578 0.982644H9.43963L6.74273 7.8042L5.64224 2.02193C5.54132 1.36015 5.0301 0.982644 4.40434 0.982644H0.0710755ZM13.2508 0.982644L11.1185 11.0157H13.7104L15.8352 0.982644H13.2508ZM27.7071 0.982644C27.082 0.982644 26.7509 1.31727 26.5079 1.90201L22.7105 11.0157H25.4286L25.9545 9.49679H29.266L29.5858 11.0157H31.9841L29.8918 0.982644H27.7071ZM28.0606 3.69328L28.8663 7.45819H26.7077L28.0606 3.69328Z" fill="#1434CB"/>
</g>
<defs>
<clipPath id="clip0_403_2657">
<rect width="32" height="10.3899" fill="white" transform="translate(0 0.805176)"/>
</clipPath>
</defs>
</svg>
