<svg width="260" height="128" viewBox="0 0 260 128" fill="none" xmlns="http://www.w3.org/2000/svg">
<g clip-path="url(#clip0_1702_1720)">
<rect width="260" height="128" rx="40" fill="white"/>
<path d="M5.58871 1.23131C2.20706 2.77762 -0.716067 5.87024 -1.57581 8.84831C-2.03434 10.3946 -2.14897 27.404 -2.03434 65.7754L-1.87257 117.284C-1.86592 119.403 -1.26681 121.478 -0.142905 123.275V123.275C1.06073 125.165 2.55095 126.54 4.72897 127.8V127.8C6.79562 128.963 9.12744 129.575 11.4993 129.575H130.251H249.003C251.375 129.575 253.707 128.963 255.774 127.8V127.8C257.952 126.54 259.442 125.165 260.646 123.275V123.275C261.769 121.478 262.369 119.403 262.375 117.284L262.537 65.7754C262.652 27.404 262.537 10.3946 262.078 8.84831C261.219 5.87024 258.296 2.77762 254.914 1.23131V1.23131C253.027 0.326528 250.962 -0.143187 248.87 -0.143187H130.251H11.6329C9.54069 -0.143187 7.47517 0.326528 5.58871 1.23131V1.23131ZM23.586 44.3561C26.4518 55.2948 28.2286 62.5682 28.2286 63.5418C28.2286 65.7181 28.7444 64.4009 31.6676 54.4931C35.2212 42.4089 35.2785 42.2371 37.0553 42.2371C38.3735 42.2371 38.6601 42.8098 41.0674 50.3696C42.5003 54.894 43.9905 59.762 44.3917 61.251C44.7356 62.7973 45.2515 64 45.4234 64C45.5954 64 46.5698 60.3347 47.6588 55.8103C50.6965 42.9244 50.9831 42.2371 52.588 42.2371C53.3331 42.2371 54.0782 42.4089 54.1928 42.638C54.3648 42.9244 53.1038 48.2505 51.3843 54.5503C46.7417 71.8461 47.3149 70.2998 45.4808 70.2998C43.8759 70.2998 43.8186 70.1852 40.4369 59.0174L37.8216 50.5349C37.5567 49.676 36.3394 49.6805 36.0809 50.5414V50.5414C35.6224 52.145 34.1322 57.242 32.7566 61.881L30.7745 68.6977C30.4948 69.6594 29.569 70.2848 28.5725 70.1852V70.1852V70.1852C27.5713 70.0817 26.7374 69.3718 26.4756 68.3999L23.2994 56.6121C21.2933 49.2242 19.8031 42.9816 19.9751 42.6953C20.147 42.4662 20.8921 42.2371 21.6372 42.2371C22.7836 42.2371 23.1275 42.638 23.586 44.3561ZM73.9096 55.6957C75.9467 60.7247 77.7055 65.3087 78.6039 67.7417C79.0477 68.9437 78.9164 70.2998 77.6351 70.2998V70.2998C76.2022 70.2998 75.9156 69.9561 74.4827 66.0045V66.0045C73.5176 63.4214 71.05 61.7092 68.2925 61.7092H67.2036H66.1522C63.4128 61.7092 60.9676 63.4272 60.0391 66.0045V66.0045C58.5488 70.0134 58.3196 70.2998 56.772 70.2998C54.7086 70.2998 54.4221 71.3306 60.4403 56.2684C62.9622 49.9687 65.2548 44.2416 65.5414 43.4971C65.8853 42.5235 66.4585 42.2371 67.3755 42.3517C68.4645 42.5235 69.3816 44.4134 73.9096 55.6957ZM83.7106 43.7834C84.3411 44.6998 86.0606 47.7924 87.4935 50.7705C88.0013 51.7658 88.4958 52.6812 88.9339 53.449C89.8719 55.0927 91.0702 54.9722 91.992 53.3194C92.6621 52.1178 93.4985 50.5766 94.3714 48.9378C97.4092 43.3825 98.097 42.5235 99.4726 42.3517C100.332 42.2371 101.02 42.4089 101.02 42.7526C101.02 43.0389 99.1287 46.7615 96.8933 50.9423L95.47 53.5334C93.6532 56.8408 92.6113 60.5175 92.4227 64.2863V64.2863L92.222 68.2961C92.1739 69.2581 91.3798 70.0134 90.4166 70.0134V70.0134V70.0134C89.4534 70.0134 88.6593 69.2581 88.6112 68.2961L88.4105 64.2863V64.2863C88.2219 60.5156 87.1963 56.8341 85.4082 53.5089L83.9972 50.885C81.7046 46.647 79.8131 42.9816 79.8131 42.6953C79.8131 41.5499 82.6789 42.3517 83.7106 43.7834ZM121.94 43.9552C121.94 45.387 121.94 45.387 115.808 45.5588L114.426 45.5972C111.749 45.6715 109.618 47.8632 109.618 50.5414V50.5414V50.5414C109.618 53.2299 111.797 55.4094 114.486 55.4094H115.349H119.363C120.312 55.4094 121.081 56.1786 121.081 57.1275V57.1275V57.1275C121.081 58.0764 120.312 58.8456 119.363 58.8456H115.349V58.8456C112.186 58.8456 109.618 61.4097 109.618 64.5727V64.5727V68.5803C109.618 69.5299 108.848 70.2998 107.898 70.2998V70.2998V70.2998C106.948 70.2998 106.179 69.5299 106.179 68.5803V56.6693C106.179 52.1243 106.242 47.9997 106.342 45.4032C106.416 43.5121 107.515 42.4193 109.407 42.3708C110.789 42.3354 112.555 42.3253 114.432 42.3517L120.509 42.4907C121.305 42.5089 121.94 43.1593 121.94 43.9552V43.9552ZM139.422 43.4971C142.632 45.1007 145.154 49.5678 145.154 53.5195C145.154 55.8103 145.039 56.0394 143.893 55.8676C142.804 55.753 142.517 55.2376 142.288 53.1186C141.944 50.255 140.454 47.3915 138.734 46.3033C137.129 45.2725 133.346 45.387 131.684 46.4752C129.621 47.8497 128.475 49.7969 128.073 52.9467C127.729 55.2376 127.443 55.753 126.354 55.8676C125.208 56.0394 125.093 55.8103 125.093 53.5767C125.093 50.4841 127.386 45.6161 129.506 44.2416C132.945 41.9508 135.926 41.779 139.422 43.4971ZM164.584 43.6116C166.876 44.8143 168.653 47.6778 168.653 50.1405C168.653 52.0304 167.163 55.9821 166.418 55.9821C166.246 55.9821 165.443 56.4975 164.698 57.0702V57.0702C163.944 57.6605 163.742 58.7181 164.227 59.5447L166.704 63.7709C168.596 66.8635 170.201 69.6125 170.258 69.8416C170.373 70.128 169.628 70.2998 168.539 70.2998C166.704 70.2998 166.475 70.0134 163.38 64.6872L161.701 61.7285C160.782 60.1096 159.105 59.0673 157.247 58.9602V58.9602V58.9602C155.661 58.867 154.324 60.1279 154.324 61.7165V64.5154V68.5803C154.324 69.5299 153.554 70.2998 152.605 70.2998V70.2998V70.2998C151.655 70.2998 150.885 69.5299 150.885 68.5803V56.6693C150.885 52.1881 150.947 48.1154 151.057 45.5133C151.141 43.5453 152.283 42.2396 154.252 42.2669C157.736 42.3153 163.231 42.9358 164.584 43.6116ZM188.542 43.7262C191.522 45.2152 192.841 47.5633 192.554 51.2859C192.153 56.5548 188.255 59.4183 181.435 59.4183V59.4183C179.757 59.4183 178.397 60.7784 178.397 62.4561V64.8591V68.5803C178.397 69.5299 177.627 70.2998 176.677 70.2998V70.2998V70.2998C175.728 70.2998 174.958 69.5299 174.958 68.5803V56.6693C174.958 49.1669 175.13 42.8098 175.416 42.5235C176.104 41.779 186.307 42.6953 188.542 43.7262ZM213.761 56.2684C216.684 63.8282 219.091 70.0707 219.091 70.1852C219.091 70.2998 218.289 70.2998 217.315 70.1852C215.652 70.0134 215.366 69.6698 213.99 66.0045V66.0045C213.058 63.5887 210.735 61.9955 208.145 61.9955H206.826H205.527C202.919 61.9955 200.573 63.5831 199.604 66.0045V66.0045C198.171 69.6698 197.884 70.0134 196.222 70.1852V70.1852C195.394 70.2628 194.783 69.4273 195.108 68.6614L195.191 68.4671C195.649 67.4362 198.114 61.0792 200.75 54.3785C207.227 37.9991 206.596 37.9418 213.761 56.2684ZM225.912 48.5369C227.689 51.8586 229.351 54.894 229.638 55.3521C229.981 55.8676 231.185 54.0922 233.707 49.2814C237.146 42.7526 238.12 41.7217 240.069 42.4662C240.757 42.7526 240.47 43.6116 238.579 46.9333C232.102 58.4447 231.701 59.5329 231.701 65.1454V68.5803C231.701 69.5299 230.931 70.2998 229.981 70.2998V70.2998V70.2998C229.032 70.2998 228.262 69.5299 228.262 68.5803V64.8591C228.262 61.0792 228.033 58.9602 227.46 58.1011C225.808 55.5145 221.759 47.6841 220.183 44.2098C219.684 43.1103 220.131 42.1811 221.327 42.3517V42.3517C222.473 42.4662 223.333 43.6116 225.912 48.5369ZM144.982 59.9338C144.294 67.4935 139.307 71.7315 132.773 70.2998C128.589 69.3834 125.093 63.8854 125.093 58.3302V58.3302C125.093 57.3497 125.888 56.5548 126.868 56.5548H135.181H141.929C143.746 56.5548 145.166 58.1257 144.982 59.9338V59.9338ZM126.698 81.7539C126.468 85.591 125.437 85.7056 125.208 81.8684C125.093 79.4631 125.208 78.8904 125.953 78.8904C126.698 78.8904 126.812 79.4631 126.698 81.7539ZM200.636 81.6966C200.75 83.2429 200.521 84.6747 200.177 84.9038C199.833 85.1329 199.604 84.1593 199.604 82.0975C199.604 78.1459 200.406 77.8595 200.636 81.6966ZM31.4383 80.6658C32.4127 81.4676 32.47 83.5866 31.5529 84.5029C31.1517 84.9038 30.292 85.1901 29.5469 85.1901C28.8018 85.1901 28.2286 85.4192 28.2286 85.7629C28.2286 86.0492 27.9993 86.3356 27.6554 86.3356C27.0823 86.3356 26.7957 81.0667 27.3115 80.5512C27.8847 79.9785 30.7505 80.0931 31.4383 80.6658ZM48.2892 82.613C48.2892 84.732 48.1173 84.9611 46.799 85.0756C44.9076 85.2474 43.704 84.2738 43.704 82.6702C43.704 80.9521 44.793 80.0358 46.6844 80.1503C48.1746 80.2649 48.2892 80.494 48.2892 82.613ZM61.1281 81.8112V81.8112C61.4 82.4592 62.3216 82.4491 62.5794 81.7953L62.6183 81.6966C63.0768 80.4367 63.4207 80.0931 63.5927 80.6658C63.7073 81.1239 63.2488 82.842 62.561 84.3884L62.1379 85.33C61.8768 85.911 61.0238 85.8148 60.8988 85.1901V85.1901C60.6695 84.102 60.2683 82.4984 60.0391 81.5821C59.4659 79.4631 60.211 79.6349 61.1281 81.8112ZM81.418 80.7803C82.2204 81.4103 82.335 85.1901 81.5326 85.1901C81.246 85.1901 80.9594 84.2738 80.9594 83.1857C80.9594 81.8112 80.6729 81.1812 80.0997 81.1812C79.5265 81.1812 79.24 81.7539 79.24 82.842C79.24 85.1901 78.2083 85.6483 77.979 83.3575C77.7497 80.9521 76.3742 80.494 76.3742 82.842C76.3742 83.7584 76.1449 84.732 75.801 84.9038C75.1705 85.3047 74.9986 81.0667 75.5717 80.4367C76.0876 79.9212 80.5582 80.1503 81.418 80.7803ZM97.4665 80.723C98.6701 81.9257 98.2116 82.8993 96.4348 82.8993C95.5177 82.8993 94.7153 83.1857 94.7153 83.5293C94.7153 83.9302 95.2885 84.0447 96.2055 83.8157C97.2945 83.5293 97.6384 83.6438 97.4665 84.1593C97.0653 85.3047 94.658 85.0183 93.7983 83.7584C92.308 81.5248 95.5751 78.8331 97.4665 80.723ZM112.885 80.723C113.744 81.4103 113.916 85.4192 113.056 84.9038C112.77 84.732 112.483 83.8157 112.483 82.842C112.483 80.4367 110.993 80.723 110.305 83.3002V83.3002C110.212 83.6553 109.69 83.5936 109.682 83.2266L109.675 82.8993C109.618 80.6085 109.789 80.2649 110.878 80.2076C111.566 80.1503 112.483 80.3794 112.885 80.723ZM155.356 80.723C156.559 81.9257 156.101 82.8993 154.324 82.8993C153.407 82.8993 152.605 83.1857 152.605 83.5293C152.605 83.9875 153.235 84.0447 154.381 83.8157C155.929 83.5293 156.101 83.5866 155.47 84.3311C154.038 86.0492 151.458 84.9611 151.458 82.613C151.458 81.1812 152.49 80.0358 153.751 80.0358C154.267 80.0358 154.955 80.3221 155.356 80.723ZM170.774 80.723C171.175 81.0667 171.519 82.2693 171.462 83.4148C171.404 85.5338 171.29 85.4192 170.717 82.7275C170.201 80.494 168.882 80.8376 168.195 83.3002V83.3002C168.101 83.6553 167.58 83.5936 167.571 83.2266L167.564 82.8993C167.507 80.6085 167.679 80.2649 168.768 80.2076C169.456 80.1503 170.373 80.3794 170.774 80.723ZM187.797 83.1284C187.797 85.9919 186.994 87.0228 185.046 86.7937C184.415 86.6792 183.842 86.3356 183.727 85.9919C183.613 85.591 184.129 85.4192 185.103 85.5338C186.077 85.6483 186.249 85.591 185.561 85.4192C183.785 84.9038 182.982 84.0447 182.982 82.6702C182.982 80.8948 184.129 79.9785 186.135 80.2076C187.797 80.3794 187.854 80.5512 187.797 83.1284ZM215.538 80.723C216.34 81.5248 216.455 84.3884 215.71 84.9038C215.423 85.0756 215.079 84.3884 214.965 83.3575C214.735 80.7803 213.188 80.8376 212.729 83.472C212.385 85.362 212.385 85.3047 212.271 82.7275C212.213 80.2649 212.328 80.0358 213.532 80.0358C214.277 80.0358 215.137 80.3221 215.538 80.723ZM231.586 80.723C232.79 81.9257 232.331 82.8993 230.555 82.8993C229.638 82.8993 228.835 83.1857 228.835 83.5293C228.835 83.9875 229.466 84.0447 230.612 83.8157C232.217 83.5293 232.331 83.5866 231.701 84.3311C230.727 85.5338 228.892 85.1901 227.918 83.7584C226.428 81.4676 229.695 78.8331 231.586 80.723Z" fill="#799CF5"/>
<path d="M95.1741 81.5821C95.2108 81.5978 95.2485 81.6116 95.2868 81.6236C95.9336 81.8259 96.1929 81.1772 95.518 81.2385V81.2385C94.8875 81.2385 94.7156 81.4103 95.1741 81.5821Z" fill="#799CF5"/>
<path d="M66.8596 48.2506C66.6304 48.8805 65.7133 51.3432 64.7963 53.6913C63.9365 56.0394 63.1914 58.0438 63.1914 58.1011C63.1914 58.2157 65.0255 58.2729 67.2035 58.2729C69.4389 58.2729 71.2157 58.0438 71.2157 57.7575C71.2157 57.4711 70.3559 54.9512 69.2669 52.145C67.7194 48.1933 67.2035 47.3342 66.8596 48.2506Z" fill="#799CF5"/>
<path d="M154.324 50.885V52.0207C154.324 54.2337 156.184 55.9919 158.394 55.8675V55.8675C162.062 55.6957 162.635 55.4666 163.896 53.9776C165.1 52.6031 165.272 51.9159 165.042 50.0259C164.584 46.647 163.094 45.6734 158.279 45.6734V45.6734C156.095 45.6734 154.324 47.444 154.324 49.6282V50.885Z" fill="#799CF5"/>
<path d="M178.397 51.1141V53.7463C178.397 55.2974 179.654 56.5548 181.205 56.5548V56.5548C185.046 56.5548 187.453 55.5812 188.427 53.634C189.746 51.1714 189.459 49.2242 187.625 47.3342C186.077 45.8452 185.561 45.6734 182.18 45.6734V45.6734C180.091 45.6734 178.397 47.367 178.397 49.4562V51.1141Z" fill="#799CF5"/>
<path d="M204.877 52.2022C203.903 55.123 203.043 57.7002 203.043 57.872C203.043 58.1011 204.877 58.2729 207.055 58.2729C209.29 58.2729 211.067 58.1584 211.067 58.0438C211.067 57.9246 209.964 54.9803 208.883 52.1605C207.606 48.8336 206.064 48.8424 204.877 52.2022V52.2022Z" fill="#799CF5"/>
<path d="M133.461 59.762C132.315 60.8501 132.315 61.9382 133.346 62.8546C133.805 63.1982 134.263 64.3436 134.378 65.3172C134.493 66.3481 134.837 67.1499 135.123 67.1499C135.467 67.1499 135.754 66.3481 135.868 65.3172C135.983 64.3436 136.442 63.1982 136.9 62.8546C137.359 62.4537 137.702 61.8237 137.702 61.3655C137.702 60.3919 136.098 58.8456 135.123 58.8456C134.722 58.8456 133.92 59.2465 133.461 59.762Z" fill="#799CF5"/>
<path d="M28.4579 82.0403C27.9994 83.1857 28.6872 84.0447 30.0054 84.0447C30.8079 84.0447 31.0945 83.6438 31.0945 82.613C31.0945 81.5821 30.8079 81.1812 29.9481 81.1812C29.3177 81.1812 28.6299 81.5821 28.4579 82.0403Z" fill="#799CF5"/>
<path d="M44.8506 82.613C44.8506 83.6438 45.1372 84.0447 45.9396 84.0447C46.5087 84.0447 46.9507 83.8048 47.2024 83.4159C47.783 82.5189 47.008 81.1812 45.9396 81.1812V81.1812C45.1372 81.1812 44.8506 81.5821 44.8506 82.613Z" fill="#799CF5"/>
<path d="M153.063 81.5821C153.1 81.5978 153.138 81.6116 153.176 81.6236C153.823 81.8259 154.082 81.1772 153.407 81.2385V81.2385C152.777 81.2385 152.605 81.4103 153.063 81.5821Z" fill="#799CF5"/>
<path d="M184.358 82.0403C184.129 82.5557 184.243 83.2429 184.587 83.5866C185.447 84.4456 187.109 83.6438 186.88 82.4984C186.651 81.1812 184.817 80.8376 184.358 82.0403Z" fill="#799CF5"/>
<path d="M229.294 81.5821C229.379 81.6104 229.485 81.6317 229.602 81.646C230.35 81.7371 230.735 81.2957 229.982 81.2957V81.2957C229.179 81.2957 228.893 81.4103 229.294 81.5821Z" fill="#799CF5"/>
</g>
<defs>
<clipPath id="clip0_1702_1720">
<rect width="260" height="128" rx="40" fill="white"/>
</clipPath>
</defs>
</svg>
