<svg width="24" height="24" viewBox="0 0 24 24" fill="none" xmlns="http://www.w3.org/2000/svg">
<path id="times-circle" d="M12.0024 0C5.38514 0 0.00244141 5.38381 0.00244141 12C0.00244141 18.6162 5.38514 24 12.0024 24C18.6197 24 24.0024 18.6162 24.0024 12C24.0024 5.38381 18.6197 0 12.0024 0ZM12.0024 22.3256C6.3083 22.3256 1.67686 17.6941 1.67686 12C1.67686 6.30586 6.3083 1.67442 12.0024 1.67442C17.6966 1.67442 22.328 6.30586 22.328 12C22.328 17.6941 17.6966 22.3256 12.0024 22.3256ZM15.9429 9.24282L13.1857 12L15.9429 14.7572C16.27 15.0842 16.27 15.6145 15.9429 15.9416C15.7799 16.1046 15.5656 16.1871 15.3513 16.1871C15.137 16.1871 14.9226 16.1057 14.7597 15.9416L12.0024 13.1843L9.24523 15.9416C9.08225 16.1046 8.86793 16.1871 8.6536 16.1871C8.43928 16.1871 8.22495 16.1057 8.06198 15.9416C7.73491 15.6145 7.73491 15.0842 8.06198 14.7572L10.8192 12L8.06198 9.24282C7.73491 8.91575 7.73491 8.38548 8.06198 8.05841C8.38905 7.73134 8.91929 7.73134 9.24636 8.05841L12.0036 10.8157L14.7608 8.05841C15.0878 7.73134 15.6181 7.73134 15.9452 8.05841C16.27 8.38548 16.27 8.91687 15.9429 9.24282Z" fill="#D84040"/>
</svg>
