<svg width="24" height="24" viewBox="0 0 24 24" fill="none" xmlns="http://www.w3.org/2000/svg">
<path id="triangle-exclamation" d="M19.4742 24H4.5334C2.92699 24 1.47575 23.1383 0.649659 21.6947C-0.173081 20.2547 -0.21343 18.5115 0.540097 17.0316L7.91457 2.56653C8.73284 0.959037 10.2624 0 12.0016 0C13.7409 0 15.2701 0.959037 16.0884 2.56653L23.4629 17.0316C24.2186 18.5115 24.1785 20.2547 23.3547 21.6947C22.5342 23.1383 21.0817 24 19.4742 24ZM12.0038 1.75504C10.8919 1.75504 9.91613 2.36727 9.39257 3.39288L2.0181 17.8579C1.54366 18.7887 1.57046 19.8847 2.08732 20.7909C2.60754 21.7006 3.52197 22.2427 4.53449 22.2427H19.4756C20.4881 22.2427 21.4034 21.6994 21.9225 20.7909C22.4393 19.8859 22.4639 18.7899 21.9906 17.8579L14.6161 3.39288C14.0915 2.36727 13.1157 1.75504 12.0038 1.75504ZM12.8411 13.7556V9.07246C12.8411 8.58775 12.466 8.19437 12.0038 8.19437C11.5416 8.19437 11.1666 8.58775 11.1666 9.07246V13.7556C11.1666 14.2403 11.5416 14.6337 12.0038 14.6337C12.466 14.6337 12.8411 14.2403 12.8411 13.7556ZM13.1425 17.268C13.1425 16.6217 12.6435 16.0972 12.0262 16.0972H12.015C11.3988 16.0972 10.9041 16.6217 10.9041 17.268C10.9041 17.9142 11.4099 18.4388 12.0262 18.4388C12.6424 18.4388 13.1425 17.9142 13.1425 17.268Z" fill="#FBC756"/>
</svg>
