<svg width="24" height="24" viewBox="0 0 24 24" fill="none" xmlns="http://www.w3.org/2000/svg">
<path id="check-circle" d="M12.0024 0C5.38514 0 0.00244141 5.38381 0.00244141 12C0.00244141 18.6162 5.38514 24 12.0024 24C18.6197 24 24.0024 18.6162 24.0024 12C24.0024 5.38381 18.6197 0 12.0024 0ZM12.0024 22.3256C6.3083 22.3256 1.67686 17.6941 1.67686 12C1.67686 6.30586 6.3083 1.67442 12.0024 1.67442C17.6966 1.67442 22.328 6.30586 22.328 12C22.328 17.6941 17.6966 22.3256 12.0024 22.3256ZM16.501 8.80296C16.8281 9.13003 16.8281 9.6603 16.501 9.98737L11.2914 15.197C11.1284 15.36 10.9141 15.4426 10.6998 15.4426C10.4854 15.4426 10.2711 15.3611 10.1081 15.197L7.50384 12.5928C7.17677 12.2657 7.17677 11.7354 7.50384 11.4083C7.83091 11.0813 8.36115 11.0813 8.68822 11.4083L10.7009 13.421L15.3178 8.80412C15.6449 8.47705 16.174 8.47701 16.501 8.80296Z" fill="#59AA45"/>
</svg>
