<svg width="500" height="351" viewBox="0 0 500 351" fill="none" xmlns="http://www.w3.org/2000/svg">
<rect x="278.61" y="124.706" width="35" height="34" rx="17" fill="#D84040"/>
<path d="M299.51 142.154C299.51 144.021 299.169 145.455 298.486 146.458C297.803 147.45 296.859 147.946 295.654 147.946C294.449 147.946 293.505 147.45 292.822 146.458C292.139 145.455 291.798 144.021 291.798 142.154C291.798 141.226 291.883 140.405 292.054 139.69C292.235 138.965 292.491 138.357 292.822 137.866C293.163 137.375 293.569 137.002 294.038 136.746C294.518 136.49 295.057 136.362 295.654 136.362C296.859 136.362 297.803 136.863 298.486 137.866C299.169 138.858 299.51 140.287 299.51 142.154ZM297.51 142.154C297.51 141.578 297.478 141.039 297.414 140.538C297.35 140.037 297.243 139.605 297.094 139.242C296.955 138.869 296.769 138.575 296.534 138.362C296.299 138.149 296.006 138.042 295.654 138.042C295.302 138.042 295.003 138.149 294.758 138.362C294.523 138.575 294.331 138.869 294.182 139.242C294.043 139.605 293.942 140.037 293.878 140.538C293.825 141.039 293.798 141.578 293.798 142.154C293.798 142.73 293.825 143.269 293.878 143.77C293.942 144.271 294.043 144.709 294.182 145.082C294.331 145.445 294.523 145.733 294.758 145.946C295.003 146.159 295.302 146.266 295.654 146.266C296.006 146.266 296.299 146.159 296.534 145.946C296.769 145.733 296.955 145.445 297.094 145.082C297.243 144.709 297.35 144.271 297.414 143.77C297.478 143.269 297.51 142.73 297.51 142.154Z" fill="white"/>
<path d="M297.247 168.213C296.293 158.21 288.616 151.231 278.571 151.231H274.122V148.551C274.122 135.251 263.299 124.429 250 124.429C236.701 124.429 225.878 135.251 225.878 148.551V151.231H221.429C211.384 151.231 203.702 158.216 202.753 168.213L199.178 205.736C198.642 211.364 200.271 216.585 203.766 220.429C207.197 224.197 212.193 226.277 217.848 226.277H282.152C287.807 226.277 292.803 224.197 296.234 220.429C299.729 216.585 301.358 211.364 300.822 205.736L297.247 168.213ZM231.238 148.551C231.238 138.205 239.654 129.789 250 129.789C260.346 129.789 268.762 138.205 268.762 148.551V151.231H231.238V148.551ZM292.267 216.821C289.839 219.502 286.339 220.917 282.152 220.917H217.848C213.667 220.917 210.161 219.502 207.733 216.821C205.262 214.109 204.12 210.351 204.511 206.24L208.087 168.717C208.778 161.459 214.138 156.586 221.423 156.586H278.566C285.851 156.586 291.211 161.459 291.903 168.717L295.478 206.24C295.88 210.351 294.738 214.109 292.267 216.821ZM232.579 175.353C232.579 177.572 230.788 179.373 228.58 179.373C226.377 179.373 224.538 177.572 224.538 175.353C224.538 173.134 226.291 171.333 228.499 171.333H228.58C230.788 171.333 232.579 173.134 232.579 175.353ZM275.462 175.353C275.462 177.572 273.672 179.373 271.463 179.373C269.26 179.373 267.421 177.572 267.421 175.353C267.421 173.134 269.174 171.333 271.383 171.333H271.463C273.672 171.333 275.462 173.134 275.462 175.353Z" fill="#003459"/>
</svg>
