<svg xmlns="http://www.w3.org/2000/svg" width="19" height="20" viewBox="0 0 19 20" fill="none">
    <path
        d="M16.4615 5.12821H14.1538V4.35897C14.1538 1.95487 12.199 0 9.79487 0C7.39077 0 5.4359 1.95487 5.4359 4.35897V5.12821H3.1282C1.85641 5.12821 0.820511 6.16308 0.820511 7.4359V16.1538C0.820511 18.6338 2.18666 20 4.66666 20H14.9231C17.4031 20 18.7692 18.6338 18.7692 16.1538V7.4359C18.7692 6.16308 17.7333 5.12821 16.4615 5.12821ZM6.97436 4.35897C6.97436 2.80308 8.23897 1.53846 9.79487 1.53846C11.3508 1.53846 12.6154 2.80308 12.6154 4.35897V5.12821H6.97436V4.35897ZM17.2308 16.1538C17.2308 17.7713 16.5405 18.4615 14.9231 18.4615H4.66666C3.04923 18.4615 2.35897 17.7713 2.35897 16.1538V7.4359C2.35897 7.01128 2.70461 6.66667 3.1282 6.66667H5.4359V8.97436C5.4359 9.39897 5.78051 9.74359 6.20513 9.74359C6.62974 9.74359 6.97436 9.39897 6.97436 8.97436V6.66667H12.6154V8.97436C12.6154 9.39897 12.96 9.74359 13.3846 9.74359C13.8092 9.74359 14.1538 9.39897 14.1538 8.97436V6.66667H16.4615C16.8851 6.66667 17.2308 7.01128 17.2308 7.4359V16.1538Z"
        fill="#00171F" />
</svg>