<svg width="80" height="83" viewBox="0 0 80 83" fill="none" xmlns="http://www.w3.org/2000/svg">
<path id="shopping-cart-times" d="M31.6637 78.3742C31.6637 80.6985 29.79 82.5848 27.4742 82.5848C25.1668 82.5848 23.2425 80.6985 23.2425 78.3742C23.2425 76.05 25.0741 74.1637 27.3899 74.1637H27.4742C29.7858 74.1637 31.6637 76.05 31.6637 78.3742ZM61.1548 74.1637H61.0705C58.7546 74.1637 56.9231 76.05 56.9231 78.3742C56.9231 80.6985 58.8474 82.5848 61.1548 82.5848C63.4706 82.5848 65.3443 80.6985 65.3443 78.3742C65.3443 76.05 63.4706 74.1637 61.1548 74.1637ZM79.8284 25.5188L75.5546 51.4981C74.4641 57.515 71.8916 63.6329 61.0535 63.6329H26.2488C21.0445 63.6329 16.5646 59.7466 15.8277 54.597L9.46971 10.1122C9.03181 7.02162 6.34121 4.68898 3.22116 4.68898H2.10529C0.943171 4.68898 0 3.74581 0 2.58369C0 1.42156 0.943171 0.478394 2.10529 0.478394H3.22527C8.42956 0.478394 12.9095 4.36475 13.6464 9.51429L14.1604 13.1102H69.4747C72.6074 13.1102 75.5507 14.487 77.5592 16.8912C79.5634 19.2955 80.3885 22.4408 79.8284 25.5188ZM74.3211 19.5903C73.1168 18.146 71.3485 17.3207 69.4706 17.3207H14.7581L20.0003 54.0034C20.4382 57.094 23.1288 59.4266 26.2488 59.4266H61.0535C68.4389 59.4266 70.3925 56.3866 71.4073 50.7823L75.6811 24.7987C76.0221 22.9166 75.5253 21.0345 74.3211 19.5903ZM53.0702 30.5672C52.2492 29.7462 50.9143 29.7462 50.0932 30.5672L45.2679 35.3926L40.4426 30.5672C39.6215 29.7462 38.2866 29.7462 37.4656 30.5672C36.6445 31.3883 36.6445 32.723 37.4656 33.5441L42.2909 38.3694L37.4656 43.1948C36.6445 44.0159 36.6445 45.3506 37.4656 46.1717C37.8782 46.5843 38.4172 46.7864 38.9562 46.7864C39.4951 46.7864 40.0341 46.5801 40.4467 46.1717L45.272 41.3463L50.0973 46.1717C50.51 46.5843 51.049 46.7864 51.5879 46.7864C52.1269 46.7864 52.6658 46.5801 53.0785 46.1717C53.8995 45.3506 53.8995 44.0159 53.0785 43.1948L48.2532 38.3694L53.0785 33.5441C53.8911 32.723 53.8913 31.3925 53.0702 30.5672Z" fill="#9CA3AF"/>
</svg>
