<svg width="14" height="14" viewBox="0 0 14 14" fill="none" xmlns="http://www.w3.org/2000/svg">
<path id="home-roof" d="M13.8039 4.90633L8.48225 0.529646C7.62284 -0.175396 6.37724 -0.176114 5.51783 0.529646L0.196278 4.90563C-0.0327532 5.09445 -0.0665173 5.43336 0.122308 5.66382C0.311133 5.89429 0.650753 5.9259 0.880502 5.73779L1.43545 5.28118V11.307C1.43545 13.0431 2.39178 13.9994 4.12783 13.9994H9.87156C11.6076 13.9994 12.5639 13.0431 12.5639 11.307V5.28118L13.1189 5.73779C13.2194 5.82036 13.3408 5.86049 13.4614 5.86049C13.6165 5.86049 13.7708 5.79376 13.8771 5.66452C14.0666 5.43406 14.0329 5.09516 13.8039 4.90633ZM8.25613 12.9225H5.74325V10.2301C5.74325 9.53724 6.30685 8.97364 6.99969 8.97364C7.69253 8.97364 8.25613 9.53724 8.25613 10.2301V12.9225ZM11.487 11.307C11.487 12.4393 11.0038 12.9225 9.87156 12.9225H9.33308V10.2301C9.33308 8.94348 8.28629 7.89669 6.99969 7.89669C5.7131 7.89669 4.6663 8.94348 4.6663 10.2301V12.9225H4.12783C2.99559 12.9225 2.5124 12.4393 2.5124 11.307V4.3959L6.20206 1.36251C6.66371 0.982708 7.33646 0.982708 7.79811 1.36251L11.4877 4.3966V11.307H11.487Z" fill="#9CA3AF"/>
</svg>
