<svg width="20" height="14" viewBox="0 0 20 14" fill="none" xmlns="http://www.w3.org/2000/svg">
    <path
        d="M13.75 1.75H0.75C0.336 1.75 0 1.414 0 1C0 0.586 0.336 0.25 0.75 0.25H13.75C14.164 0.25 14.5 0.586 14.5 1C14.5 1.414 14.164 1.75 13.75 1.75ZM19.5 7C19.5 6.586 19.164 6.25 18.75 6.25H0.75C0.336 6.25 0 6.586 0 7C0 7.414 0.336 7.75 0.75 7.75H18.75C19.164 7.75 19.5 7.414 19.5 7ZM10.5 13C10.5 12.586 10.164 12.25 9.75 12.25H0.75C0.336 12.25 0 12.586 0 13C0 13.414 0.336 13.75 0.75 13.75H9.75C10.164 13.75 10.5 13.414 10.5 13Z"
        fill="#00171F" />
</svg>