<svg width="12" height="12" viewBox="0 0 12 12" fill="none" xmlns="http://www.w3.org/2000/svg">
<path id="star" d="M6.63956 0.420889L7.93424 3.18586C8.03158 3.3941 8.21958 3.53812 8.43758 3.5713L11.4262 4.02868C11.9742 4.11268 12.1929 4.82423 11.7962 5.23224L9.63558 7.45228C9.47758 7.61464 9.40554 7.84828 9.44287 8.0777L9.93685 11.1159C10.0368 11.7321 9.42553 12.2022 8.90153 11.9121L6.30957 10.4756C6.1149 10.3676 5.88288 10.3676 5.68888 10.4756L3.09887 11.9107C2.57421 12.2015 1.96085 11.7307 2.06152 11.113L2.55558 8.0777C2.59291 7.84828 2.52087 7.61464 2.36287 7.45228L0.202227 5.23224C-0.195106 4.82423 0.0235151 4.11268 0.572182 4.02868L3.56087 3.5713C3.7782 3.53812 3.96621 3.3941 4.06421 3.18586L5.35888 0.420889C5.61955 -0.140296 6.3769 -0.140296 6.63956 0.420889Z" fill="#9CA3AF"/>
</svg>
