<svg width="12" height="12" viewBox="0 0 12 12" fill="none" xmlns="http://www.w3.org/2000/svg">
<path id="star" d="M6.64043 0.420889L7.93511 3.18586C8.03245 3.3941 8.22045 3.53812 8.43845 3.5713L11.4271 4.02868C11.9751 4.11268 12.1938 4.82423 11.7971 5.23224L9.63645 7.45228C9.47845 7.61464 9.40641 7.84828 9.44374 8.0777L9.93772 11.1159C10.0377 11.7321 9.4264 12.2022 8.9024 11.9121L6.31044 10.4756C6.11577 10.3676 5.88375 10.3676 5.68975 10.4756L3.09974 11.9107C2.57508 12.2015 1.96172 11.7307 2.06239 11.113L2.55645 8.0777C2.59378 7.84828 2.52174 7.61464 2.36374 7.45228L0.203097 5.23224C-0.194236 4.82423 0.0243849 4.11268 0.573052 4.02868L3.56174 3.5713C3.77907 3.53812 3.96708 3.3941 4.06508 3.18586L5.35975 0.420889C5.62042 -0.140296 6.37777 -0.140296 6.64043 0.420889Z" fill="#FBC756"/>
</svg>
