<svg width="20" height="20" viewBox="0 0 20 20" fill="none" xmlns="http://www.w3.org/2000/svg">
    <path d="M14.8018 19.7497C14.3428 19.7497 13.8808 19.6877 13.4248 19.5627C7.25983 17.8707 2.37882 12.9927 0.68582 6.83174C0.30082 5.43074 0.511767 3.97074 1.28177 2.72274C2.05477 1.46874 3.32583 0.583733 4.76883 0.295733C5.72883 0.103733 6.67782 0.53174 7.16482 1.35274L8.72781 3.99272C9.48681 5.27472 9.10968 6.92573 7.86868 7.75173L6.73782 8.50374C7.79482 10.6737 9.57267 12.4567 11.7337 13.5127L12.4959 12.3757C13.3269 11.1367 14.9778 10.7657 16.2588 11.5287L18.9019 13.1047C19.7199 13.5927 20.1428 14.5477 19.9568 15.4797C19.6688 16.9227 18.7838 18.1937 17.5308 18.9667C16.6888 19.4847 15.7518 19.7497 14.8018 19.7497ZM5.22781 1.74773C5.17881 1.74773 5.12884 1.75274 5.08084 1.76274C4.02684 1.97374 3.11384 2.60872 2.55984 3.50972C2.01084 4.39972 1.85982 5.43873 2.13382 6.43373C3.68682 12.0867 8.16581 16.5637 13.8218 18.1157C14.8178 18.3887 15.8537 18.2367 16.7427 17.6887C17.6427 17.1337 18.2789 16.2197 18.4859 15.1837C18.5479 14.8727 18.4068 14.5537 18.1328 14.3907L15.4908 12.8147C14.8958 12.4607 14.1277 12.6337 13.7417 13.2087L12.6267 14.8737C12.4267 15.1717 12.0409 15.2857 11.7149 15.1477C8.75187 13.9087 6.34086 11.4927 5.10086 8.51873C4.96286 8.18673 5.07871 7.80473 5.37771 7.60573L7.03885 6.50072C7.61485 6.11772 7.7898 5.35072 7.4368 4.75572L5.87381 2.11672C5.73681 1.88472 5.48881 1.74773 5.22781 1.74773Z" fill="#00171F"></path>
</svg>