<svg width="80" height="83" viewBox="0 0 80 83" fill="none" xmlns="http://www.w3.org/2000/svg">
<path id="shopping-cart-check" d="M31.5794 78.7271C31.5794 81.0514 29.7057 82.9377 27.3899 82.9377C25.0825 82.9377 23.1582 81.0514 23.1582 78.7271C23.1582 76.4029 24.9898 74.5166 27.3056 74.5166H27.3899C29.7057 74.5166 31.5794 76.4029 31.5794 78.7271ZM61.0746 74.5166H60.9903C58.6745 74.5166 56.8429 76.4029 56.8429 78.7271C56.8429 81.0514 58.7672 82.9377 61.0746 82.9377C63.3904 82.9377 65.2641 81.0514 65.2641 78.7271C65.2641 76.4029 63.3904 74.5166 61.0746 74.5166ZM79.8284 25.8717L75.5546 51.851C74.4641 57.8679 71.8916 63.9859 61.0535 63.9859H26.2488C21.0445 63.9859 16.5646 60.0995 15.8277 54.9499L9.46971 10.4651C9.03181 7.37453 6.34121 5.04188 3.22116 5.04188H2.10529C0.943171 5.04188 0 4.09871 0 2.93659C0 1.77447 0.943171 0.831299 2.10529 0.831299H3.22527C8.42956 0.831299 12.9095 4.71765 13.6464 9.8672L14.1604 13.4631H69.4747C72.6074 13.4631 75.5507 14.8399 77.5592 17.2441C79.5634 19.6484 80.3885 22.7937 79.8284 25.8717ZM74.3211 19.9432C73.1168 18.4989 71.3485 17.6736 69.4706 17.6736H14.7581L20.0003 54.3563C20.4382 57.4469 23.1288 59.7795 26.2488 59.7795H61.0535C68.4389 59.7795 70.3925 56.7395 71.4073 51.1352L75.6811 25.1516C76.0221 23.2695 75.5253 21.3874 74.3211 19.9432ZM51.0451 31.6233L41.3061 41.3624L37.1839 37.2402C36.3629 36.4192 35.028 36.4192 34.2069 37.2402C33.3858 38.0613 33.3858 39.3961 34.2069 40.2171L39.8196 45.8298C40.2154 46.2256 40.7502 46.4445 41.3102 46.4445C41.8702 46.4445 42.405 46.2214 42.8008 45.8298L54.0304 34.6002C54.8514 33.7792 54.8514 32.4444 54.0304 31.6233C53.2093 30.8023 51.8662 30.8023 51.0451 31.6233Z" fill="#59AA45"/>
</svg>
