<svg width="20" height="20" viewBox="0 0 20 20" fill="none"
    xmlns="http://www.w3.org/2000/svg">
    <path
        d="M19.2802 18.47L15.4392 14.629C16.7232 13.106 17.5002 11.143 17.5002 9C17.5002 4.175 13.5752 0.25 8.75021 0.25C3.92521 0.25 0.000213623 4.175 0.000213623 9C0.000213623 13.825 3.92521 17.75 8.75021 17.75C10.8932 17.75 12.8562 16.973 14.3792 15.689L18.2202 19.53C18.3662 19.676 18.5582 19.75 18.7502 19.75C18.9422 19.75 19.1342 19.677 19.2802 19.53C19.5732 19.238 19.5732 18.763 19.2802 18.47ZM1.50021 9C1.50021 5.002 4.75221 1.75 8.75021 1.75C12.7482 1.75 16.0002 5.002 16.0002 9C16.0002 12.998 12.7482 16.25 8.75021 16.25C4.75221 16.25 1.50021 12.998 1.50021 9Z"
        fill="#00171F" />
</svg>