<svg viewBox="0 0 20 20" xmlns="http://www.w3.org/2000/svg" xmlns:xlink="http://www.w3.org/1999/xlink">
    <style>:root&gt;svg{display:none}:root&gt;svg:target{display:block}</style>
    <svg id="arrow-down-icon" width="16" height="6" viewBox="0 0 8 4" fill="none" xmlns="http://www.w3.org/2000/svg">
        <path d="M3.99802 4C3.81883 4 3.63961 3.93469 3.50312 3.8047L0.70328 1.13815C0.429595 0.8775 0.429595 0.456145 0.70328 0.195491C0.976964 -0.0651636 1.41938 -0.0651636 1.69307 0.195491L3.99802 2.3907L6.30296 0.195491C6.57665 -0.0651636 7.01907 -0.0651636 7.29275 0.195491C7.56644 0.456145 7.56644 0.8775 7.29275 1.13815L4.49291 3.8047C4.35642 3.93469 4.17721 4 3.99802 4Z" fill="#00171F"></path>
    </svg>
    <svg id="cart-icon" width="19" height="20" viewBox="0 0 19 20" fill="none">
        <path
            d="M16.4615 5.12821H14.1538V4.35897C14.1538 1.95487 12.199 0 9.79487 0C7.39077 0 5.4359 1.95487 5.4359 4.35897V5.12821H3.1282C1.85641 5.12821 0.820511 6.16308 0.820511 7.4359V16.1538C0.820511 18.6338 2.18666 20 4.66666 20H14.9231C17.4031 20 18.7692 18.6338 18.7692 16.1538V7.4359C18.7692 6.16308 17.7333 5.12821 16.4615 5.12821ZM6.97436 4.35897C6.97436 2.80308 8.23897 1.53846 9.79487 1.53846C11.3508 1.53846 12.6154 2.80308 12.6154 4.35897V5.12821H6.97436V4.35897ZM17.2308 16.1538C17.2308 17.7713 16.5405 18.4615 14.9231 18.4615H4.66666C3.04923 18.4615 2.35897 17.7713 2.35897 16.1538V7.4359C2.35897 7.01128 2.70461 6.66667 3.1282 6.66667H5.4359V8.97436C5.4359 9.39897 5.78051 9.74359 6.20513 9.74359C6.62974 9.74359 6.97436 9.39897 6.97436 8.97436V6.66667H12.6154V8.97436C12.6154 9.39897 12.96 9.74359 13.3846 9.74359C13.8092 9.74359 14.1538 9.39897 14.1538 8.97436V6.66667H16.4615C16.8851 6.66667 17.2308 7.01128 17.2308 7.4359V16.1538Z"
            fill="#00171F" />
    </svg>
    <svg id="menu-icon" width="20" height="14" viewBox="0 0 20 14" fill="none">
        <path
            d="M13.75 1.75H0.75C0.336 1.75 0 1.414 0 1C0 0.586 0.336 0.25 0.75 0.25H13.75C14.164 0.25 14.5 0.586 14.5 1C14.5 1.414 14.164 1.75 13.75 1.75ZM19.5 7C19.5 6.586 19.164 6.25 18.75 6.25H0.75C0.336 6.25 0 6.586 0 7C0 7.414 0.336 7.75 0.75 7.75H18.75C19.164 7.75 19.5 7.414 19.5 7ZM10.5 13C10.5 12.586 10.164 12.25 9.75 12.25H0.75C0.336 12.25 0 12.586 0 13C0 13.414 0.336 13.75 0.75 13.75H9.75C10.164 13.75 10.5 13.414 10.5 13Z"
            fill="#00171F" />
    </svg>
    <svg id="phone-icon" width="20" height="20" viewBox="0 0 20 20" fill="none">
        <path d="M14.8018 19.7497C14.3428 19.7497 13.8808 19.6877 13.4248 19.5627C7.25983 17.8707 2.37882 12.9927 0.68582 6.83174C0.30082 5.43074 0.511767 3.97074 1.28177 2.72274C2.05477 1.46874 3.32583 0.583733 4.76883 0.295733C5.72883 0.103733 6.67782 0.53174 7.16482 1.35274L8.72781 3.99272C9.48681 5.27472 9.10968 6.92573 7.86868 7.75173L6.73782 8.50374C7.79482 10.6737 9.57267 12.4567 11.7337 13.5127L12.4959 12.3757C13.3269 11.1367 14.9778 10.7657 16.2588 11.5287L18.9019 13.1047C19.7199 13.5927 20.1428 14.5477 19.9568 15.4797C19.6688 16.9227 18.7838 18.1937 17.5308 18.9667C16.6888 19.4847 15.7518 19.7497 14.8018 19.7497ZM5.22781 1.74773C5.17881 1.74773 5.12884 1.75274 5.08084 1.76274C4.02684 1.97374 3.11384 2.60872 2.55984 3.50972C2.01084 4.39972 1.85982 5.43873 2.13382 6.43373C3.68682 12.0867 8.16581 16.5637 13.8218 18.1157C14.8178 18.3887 15.8537 18.2367 16.7427 17.6887C17.6427 17.1337 18.2789 16.2197 18.4859 15.1837C18.5479 14.8727 18.4068 14.5537 18.1328 14.3907L15.4908 12.8147C14.8958 12.4607 14.1277 12.6337 13.7417 13.2087L12.6267 14.8737C12.4267 15.1717 12.0409 15.2857 11.7149 15.1477C8.75187 13.9087 6.34086 11.4927 5.10086 8.51873C4.96286 8.18673 5.07871 7.80473 5.37771 7.60573L7.03885 6.50072C7.61485 6.11772 7.7898 5.35072 7.4368 4.75572L5.87381 2.11672C5.73681 1.88472 5.48881 1.74773 5.22781 1.74773Z" fill="#00171F"></path>
    </svg>
    <svg id="search-icon" width="20" height="20" viewBox="0 0 20 20" fill="none"
    >
        <path
            d="M19.2802 18.47L15.4392 14.629C16.7232 13.106 17.5002 11.143 17.5002 9C17.5002 4.175 13.5752 0.25 8.75021 0.25C3.92521 0.25 0.000213623 4.175 0.000213623 9C0.000213623 13.825 3.92521 17.75 8.75021 17.75C10.8932 17.75 12.8562 16.973 14.3792 15.689L18.2202 19.53C18.3662 19.676 18.5582 19.75 18.7502 19.75C18.9422 19.75 19.1342 19.677 19.2802 19.53C19.5732 19.238 19.5732 18.763 19.2802 18.47ZM1.50021 9C1.50021 5.002 4.75221 1.75 8.75021 1.75C12.7482 1.75 16.0002 5.002 16.0002 9C16.0002 12.998 12.7482 16.25 8.75021 16.25C4.75221 16.25 1.50021 12.998 1.50021 9Z"
            fill="#00171F" />
    </svg>
    <svg id="user-icon" width="17" height="20" viewBox="0 0 17 20" fill="none">
        <path d="M8.75705 8.75C6.41305 8.75 4.50705 6.843 4.50705 4.5C4.50705 2.157 6.41305 0.25 8.75705 0.25C11.101 0.25 13.007 2.157 13.007 4.5C13.007 6.843 11.101 8.75 8.75705 8.75ZM8.75705 1.75C7.24005 1.75 6.00705 2.983 6.00705 4.5C6.00705 6.017 7.24005 7.25 8.75705 7.25C10.274 7.25 11.507 6.017 11.507 4.5C11.507 2.983 10.273 1.75 8.75705 1.75ZM16.498 19V16.019C16.498 13.358 14.992 10.25 10.748 10.25H6.74802C2.50402 10.25 0.998016 13.357 0.998016 16.019V19C0.998016 19.414 1.33402 19.75 1.74802 19.75C2.16202 19.75 2.49802 19.414 2.49802 19V16.019C2.49802 15.018 2.80502 11.75 6.74802 11.75H10.748C14.691 11.75 14.998 15.017 14.998 16.019V19C14.998 19.414 15.334 19.75 15.748 19.75C16.162 19.75 16.498 19.414 16.498 19Z"
            fill="#00171F" />
    </svg>
    <svg id="bottom-catalog-icon" width="20" height="20" viewBox="0 0 20 20" fill="none">
        <path
            d="M12.7 6H10.3C9.1728 6 8.5 5.3272 8.5 4.2V1.8C8.5 0.6728 9.1728 0 10.3 0H12.7C13.8272 0 14.5 0.6728 14.5 1.8V4.2C14.5 5.3272 13.8272 6 12.7 6ZM10.3 1.2C9.8288 1.2 9.7 1.3288 9.7 1.8V4.2C9.7 4.6712 9.8288 4.8 10.3 4.8H12.7C13.1712 4.8 13.3 4.6712 13.3 4.2V1.8C13.3 1.3288 13.1712 1.2 12.7 1.2H10.3ZM4.7 6H2.3C1.1728 6 0.5 5.3272 0.5 4.2V1.8C0.5 0.6728 1.1728 0 2.3 0H4.7C5.8272 0 6.5 0.6728 6.5 1.8V4.2C6.5 5.3272 5.8272 6 4.7 6ZM2.3 1.2C1.8288 1.2 1.7 1.3288 1.7 1.8V4.2C1.7 4.6712 1.8288 4.8 2.3 4.8H4.7C5.1712 4.8 5.3 4.6712 5.3 4.2V1.8C5.3 1.3288 5.1712 1.2 4.7 1.2H2.3ZM12.7 14H10.3C9.1728 14 8.5 13.3272 8.5 12.2V9.8C8.5 8.6728 9.1728 8 10.3 8H12.7C13.8272 8 14.5 8.6728 14.5 9.8V12.2C14.5 13.3272 13.8272 14 12.7 14ZM10.3 9.2C9.8288 9.2 9.7 9.3288 9.7 9.8V12.2C9.7 12.6712 9.8288 12.8 10.3 12.8H12.7C13.1712 12.8 13.3 12.6712 13.3 12.2V9.8C13.3 9.3288 13.1712 9.2 12.7 9.2H10.3ZM4.7 14H2.3C1.1728 14 0.5 13.3272 0.5 12.2V9.8C0.5 8.6728 1.1728 8 2.3 8H4.7C5.8272 8 6.5 8.6728 6.5 9.8V12.2C6.5 13.3272 5.8272 14 4.7 14ZM2.3 9.2C1.8288 9.2 1.7 9.3288 1.7 9.8V12.2C1.7 12.6712 1.8288 12.8 2.3 12.8H4.7C5.1712 12.8 5.3 12.6712 5.3 12.2V9.8C5.3 9.3288 5.1712 9.2 4.7 9.2H2.3Z"
            fill="#00A8E8" />
    </svg>
    <svg id="bottom-home-icon" width="20" height="20" viewBox="0 0 20 20" fill="none">
        <path
            d="M14.3039 4.90633L8.98225 0.529646C8.12284 -0.175396 6.87724 -0.176114 6.01783 0.529646L0.696278 4.90563C0.467247 5.09445 0.433483 5.43336 0.622308 5.66382C0.811133 5.89429 1.15075 5.9259 1.3805 5.73779L1.93545 5.28118V11.307C1.93545 13.0431 2.89178 13.9994 4.62783 13.9994H10.3716C12.1076 13.9994 13.0639 13.0431 13.0639 11.307V5.28118L13.6189 5.73779C13.7194 5.82036 13.8408 5.86049 13.9614 5.86049C14.1165 5.86049 14.2708 5.79376 14.3771 5.66452C14.5666 5.43406 14.5329 5.09516 14.3039 4.90633ZM8.75613 12.9225H6.24325V10.2301C6.24325 9.53724 6.80685 8.97364 7.49969 8.97364C8.19253 8.97364 8.75613 9.53724 8.75613 10.2301V12.9225ZM11.987 11.307C11.987 12.4393 11.5038 12.9225 10.3716 12.9225H9.83308V10.2301C9.83308 8.94348 8.78629 7.89669 7.49969 7.89669C6.2131 7.89669 5.1663 8.94348 5.1663 10.2301V12.9225H4.62783C3.49559 12.9225 3.0124 12.4393 3.0124 11.307V4.3959L6.70206 1.36251C7.16371 0.982708 7.83646 0.982708 8.29811 1.36251L11.9877 4.3966V11.307H11.987Z"
            fill="#9CA3AF" />
    </svg>
    <svg id="bottom-viewed-icon" width="20" height="20" viewBox="0 0 20 20" fill="none">
        <path
            d="M14.1301 4.68188C13.1875 3.12525 11.0717 0.513916 7.5 0.513916C3.92834 0.513916 1.81254 3.12525 0.869909 4.68188C0.376697 5.49453 0.376697 6.50476 0.869909 7.31812C1.81254 8.87475 3.92834 11.4861 7.5 11.4861C11.0717 11.4861 13.1875 8.87475 14.1301 7.31812C14.6233 6.50476 14.6233 5.49524 14.1301 4.68188ZM13.206 6.77304C12.3804 8.13642 10.5404 10.4243 7.5 10.4243C4.4596 10.4243 2.61956 8.13712 1.79395 6.77304C1.50535 6.29592 1.50535 5.70339 1.79395 5.22627C2.61956 3.86289 4.4596 1.57505 7.5 1.57505C10.5404 1.57505 12.3804 3.86218 13.206 5.22627C13.4954 5.70409 13.4954 6.29592 13.206 6.77304ZM7.5 2.9915C5.81719 2.9915 4.44883 4.34143 4.44883 6C4.44883 7.65857 5.81719 9.0085 7.5 9.0085C9.18281 9.0085 10.5512 7.65857 10.5512 6C10.5512 4.34143 9.18281 2.9915 7.5 2.9915ZM7.5 7.94667C6.41091 7.94667 5.52571 7.07386 5.52571 6C5.52571 4.92614 6.41091 4.05333 7.5 4.05333C8.58909 4.05333 9.47429 4.92614 9.47429 6C9.47429 7.07386 8.58909 7.94667 7.5 7.94667Z"
            fill="#9CA3AF" />
    </svg>
    <svg id="bottom-wishlist-icon" width="20" height="20" viewBox="0 0 20 20" fill="none">
        <path
            d="M7.49997 13C7.4293 13 7.35861 12.9853 7.29261 12.9553C7.07461 12.856 1.94397 10.4767 1.12131 6.23934C0.803307 4.6 1.12264 3.00066 1.97531 1.96199C2.66531 1.12066 3.65728 0.673317 4.84461 0.667317C4.85061 0.667317 4.85662 0.667317 4.86195 0.667317C6.21662 0.667317 7.04265 1.43867 7.49932 2.09534C7.95798 1.436 8.79061 0.661317 10.1539 0.667317C11.3419 0.673317 12.3346 1.12066 13.0253 1.96199C13.8766 2.99999 14.1953 4.59932 13.8766 6.23999C13.0553 10.4773 7.92394 12.8573 7.70594 12.956C7.64128 12.9853 7.57064 13 7.49997 13ZM4.8613 1.66667C4.8573 1.66667 4.85399 1.66667 4.84999 1.66667C3.95799 1.67067 3.25133 1.98332 2.74867 2.59599C2.08267 3.40732 1.84199 4.698 2.10332 6.04866C2.73999 9.33133 6.56197 11.4647 7.49997 11.9433C8.43797 11.4647 12.26 9.33133 12.896 6.04866C13.1586 4.69733 12.918 3.40665 12.2533 2.59599C11.7506 1.98399 11.044 1.67198 10.15 1.66732C10.146 1.66732 10.142 1.66732 10.1386 1.66732C8.55731 1.66732 7.99668 3.252 7.97401 3.31933C7.90468 3.52133 7.71395 3.65865 7.50062 3.65865C7.49929 3.65865 7.4986 3.65865 7.49793 3.65865C7.28393 3.65798 7.09328 3.52133 7.02528 3.31799C7.00328 3.25133 6.44196 1.66667 4.8613 1.66667Z"
            fill="#9CA3AF" />
    </svg>
    <svg id="bottom-compare-icon" width="20" height="20" viewBox="0 0 20 20" fill="none">
        <path
            d="M14 7.00002V9.00002C14 10.3787 12.878 11.5 11.5 11.5H2.70736L3.854 12.6467C4.04934 12.842 4.04934 13.1587 3.854 13.354C3.75667 13.4514 3.62865 13.5007 3.50065 13.5007C3.37265 13.5007 3.24463 13.452 3.1473 13.354L1.1473 11.354C1.1013 11.308 1.06472 11.2528 1.03939 11.1914C0.988721 11.0694 0.988721 10.9314 1.03939 10.8094C1.06472 10.7481 1.1013 10.6927 1.1473 10.6467L3.1473 8.64667C3.34263 8.45133 3.65932 8.45133 3.85466 8.64667C4.04999 8.842 4.04999 9.15869 3.85466 9.35402L2.70801 10.5007H11.5C12.3267 10.5007 13 9.82801 13 9.00067V7.00067C13 6.72467 13.224 6.50067 13.5 6.50067C13.776 6.50067 14 6.72402 14 7.00002ZM1.5 7.50002C1.776 7.50002 2 7.27602 2 7.00002V5.00002C2 4.17269 2.67333 3.50002 3.5 3.50002H12.2926L11.146 4.64667C10.9507 4.842 10.9507 5.15869 11.146 5.35402C11.2433 5.45136 11.3713 5.50067 11.4993 5.50067C11.6273 5.50067 11.7554 5.45202 11.8527 5.35402L13.8527 3.35402C13.8987 3.30802 13.9353 3.25276 13.9606 3.19143C14.0113 3.06943 14.0113 2.93143 13.9606 2.80943C13.9353 2.7481 13.8987 2.69267 13.8527 2.64667L11.8527 0.646668C11.6574 0.451335 11.3407 0.451335 11.1453 0.646668C10.95 0.842001 10.95 1.15869 11.1453 1.35402L12.292 2.50067H3.5C2.122 2.50067 1 3.622 1 5.00067V7.00067C1 7.27601 1.224 7.50002 1.5 7.50002Z"
            fill="#9CA3AF" />
    </svg>
    <svg id="bottom-contacts-icon" width="15" height="12" viewBox="0 0 15 12" fill="none">
        <path
            d="M11.8077 11.9231H3.19231C1.45631 11.9231 0.5 10.9668 0.5 9.23077V2.76923C0.5 1.03323 1.45631 0.0769196 3.19231 0.0769196H11.8077C13.5437 0.0769196 14.5 1.03323 14.5 2.76923V9.23077C14.5 10.9668 13.5437 11.9231 11.8077 11.9231ZM3.19231 1.15384C2.0601 1.15384 1.57692 1.63702 1.57692 2.76923V9.23077C1.57692 10.363 2.0601 10.8462 3.19231 10.8462H11.8077C12.9399 10.8462 13.4231 10.363 13.4231 9.23077V2.76923C13.4231 1.63702 12.9399 1.15384 11.8077 1.15384H3.19231ZM8.23881 6.48748L11.7653 3.92297C12.0058 3.74851 12.0589 3.41108 11.8838 3.17056C11.7093 2.93077 11.3734 2.8762 11.1315 3.0521L7.60482 5.61661C7.54164 5.66256 7.45766 5.66256 7.39448 5.61661L3.86784 3.0521C3.62517 2.8762 3.29 2.93149 3.11554 3.17056C2.94036 3.41108 2.99351 3.74779 3.23402 3.92297L6.76049 6.4882C6.98162 6.64902 7.24084 6.72871 7.4993 6.72871C7.75776 6.72871 8.0184 6.6483 8.23881 6.48748Z"
            fill="#9CA3AF" />
    </svg>
    <svg id="menu-chevron" width="6" height="11" viewBox="0 0 6 11" fill="none" xmlns="http://www.w3.org/2000/svg">
        <path d="M1.24923 10.1022C1.05723 10.1022 0.865201 10.0292 0.719201 9.88223C0.426201 9.58923 0.426201 9.11419 0.719201 8.82119L4.18917 5.35122L0.719201 1.88125C0.426201 1.58825 0.426201 1.11321 0.719201 0.820214C1.0122 0.527214 1.48724 0.527214 1.78024 0.820214L5.78024 4.82021C6.07324 5.11321 6.07324 5.58825 5.78024 5.88125L1.78024 9.88125C1.63324 10.0292 1.44123 10.1022 1.24923 10.1022Z"
            fill="#003459"></path>
    </svg>
    <svg id="menu-back" width="18" height="10" viewBox="0 0 18 10" fill="none" xmlns="http://www.w3.org/2000/svg">
        <path d="M17.4979 4.9994C17.4979 5.4134 17.1619 5.7494 16.7479 5.7494H2.55895L5.27892 8.46937C5.57192 8.76237 5.57192 9.2374 5.27892 9.5304C5.13292 9.6764 4.94089 9.75037 4.74889 9.75037C4.55689 9.75037 4.36487 9.6774 4.21887 9.5304L0.218865 5.5304C0.149865 5.4614 0.095 5.37851 0.057 5.28651C-0.019 5.10351 -0.019 4.89651 0.057 4.71351C0.095 4.62151 0.149865 4.53837 0.218865 4.46937L4.21887 0.469369C4.51187 0.176369 4.9869 0.176369 5.2799 0.469369C5.5729 0.762369 5.5729 1.2374 5.2799 1.5304L2.55993 4.25037H16.7479C17.1619 4.24937 17.4979 4.5854 17.4979 4.9994Z"
            fill="#00171F" />
    </svg>
    <svg id="menu-close" width="12" height="12" viewBox="0 0 12 12" fill="none" xmlns="http://www.w3.org/2000/svg">
        <path d="M11.8029 10.8616C12.0633 11.122 12.0633 11.5442 11.8029 11.8046C11.6731 11.9344 11.5025 12.0001 11.3319 12.0001C11.1612 12.0001 10.9906 11.9352 10.8608 11.8046L5.99911 6.94288L1.13743 11.8046C1.00766 11.9344 0.837017 12.0001 0.666369 12.0001C0.495722 12.0001 0.325075 11.9352 0.195312 11.8046C-0.0651039 11.5442 -0.0651039 11.122 0.195312 10.8616L5.057 5.9999L0.195312 1.13824C-0.0651039 0.877827 -0.0651039 0.45562 0.195312 0.195205C0.455727 -0.0652107 0.877907 -0.0652107 1.13832 0.195205L6.00001 5.05692L10.8617 0.195205C11.1221 -0.0652107 11.5443 -0.0652107 11.8047 0.195205C12.0651 0.45562 12.0651 0.877827 11.8047 1.13824L6.943 5.9999L11.8029 10.8616Z"
            fill="#00A8E8" />
    </svg>
</svg>
