<svg width="100" height="101" viewBox="0 0 100 101" fill="none" xmlns="http://www.w3.org/2000/svg">
<path id="gift" d="M89.4737 21.806H81.5108C83.1793 19.6008 84.2105 16.885 84.2105 13.9113C84.2105 6.65868 78.3105 0.753418 71.0526 0.753418C67.1211 0.753418 63.4262 2.50621 60.8893 5.58515C60.7314 5.77989 53.6316 15.2273 50 20.0588C46.3632 15.222 39.258 5.76914 39.0843 5.55335C36.5738 2.50072 32.8789 0.753418 28.9474 0.753418C21.6895 0.753418 15.7895 6.65868 15.7895 13.9113C15.7895 16.885 16.8155 19.6008 18.4892 21.806H10.5263C4.72105 21.806 0 26.5271 0 32.3324V50.7534C0 52.2061 1.17895 53.385 2.63158 53.385H5.26316V82.3324C5.26316 94.385 11.6316 100.753 23.6842 100.753H76.3158C88.3684 100.753 94.7368 94.385 94.7368 82.3324V53.385H97.3684C98.8211 53.385 100 52.2061 100 50.7534V32.3324C100 26.5271 95.2789 21.806 89.4737 21.806ZM64.9787 8.90065C66.4892 7.06907 68.7 6.01658 71.0526 6.01658C75.4053 6.01658 78.9474 9.55868 78.9474 13.9113C78.9474 18.2639 75.4053 21.806 71.0526 21.806H55.2683C58.9946 16.8482 64.7155 9.24275 64.9787 8.90065ZM21.0526 13.9113C21.0526 9.55868 24.5947 6.01658 28.9474 6.01658C31.3 6.01658 33.5105 7.06934 34.9789 8.84829C35.2737 9.22723 41.0001 16.8482 44.7317 21.806H28.9474C24.5947 21.806 21.0526 18.2639 21.0526 13.9113ZM5.26316 32.3324C5.26316 29.4271 7.62105 27.0692 10.5263 27.0692H28.9474H47.3684V48.1218H5.26316V32.3324ZM10.5263 82.3324V53.385H47.3684V95.4903H23.6842C14.5842 95.4903 10.5263 91.4324 10.5263 82.3324ZM89.4737 82.3324C89.4737 91.4324 85.4158 95.4903 76.3158 95.4903H52.6316V53.385H89.4737V82.3324ZM94.7368 48.1218H52.6316V27.0692H71.0526H89.4737C92.3789 27.0692 94.7368 29.4271 94.7368 32.3324V48.1218Z" fill="#00A8E8"/>
</svg>
