<svg width="80" height="70" viewBox="0 0 80 70" fill="none" xmlns="http://www.w3.org/2000/svg">
<path id="envelope-check" d="M38.0952 60.1283C38.0952 61.1876 37.2419 62.0474 36.1905 62.0474H13.3333C4.60952 62.0474 0 57.403 0 48.6131V14.0676C0 5.27775 4.60952 0.633301 13.3333 0.633301H59.0476C67.7714 0.633301 72.381 5.27775 72.381 14.0676V25.5828C72.381 26.6422 71.5276 27.502 70.4762 27.502C69.4248 27.502 68.5714 26.6422 68.5714 25.5828V14.0676C68.5714 7.43108 65.6343 4.47168 59.0476 4.47168H13.3333C6.74667 4.47168 3.80952 7.43108 3.80952 14.0676V48.6131C3.80952 55.2497 6.74667 58.2091 13.3333 58.2091H36.1905C37.2419 58.2091 38.0952 59.0689 38.0952 60.1283ZM58.6821 16.7775C58.0612 15.9177 56.865 15.7335 56.0231 16.3553L37.3103 30.066C36.6398 30.5573 35.7412 30.5535 35.0707 30.066L16.3579 16.3553C15.5084 15.7335 14.3198 15.9177 13.6988 16.7775C13.0817 17.6335 13.2688 18.8349 14.1183 19.4568L32.8302 33.1674C33.8359 33.9044 35.0095 34.2729 36.1905 34.2729C37.3676 34.2729 38.5451 33.9044 39.5508 33.1674L58.2626 19.4568C59.116 18.8349 59.2992 17.6335 58.6821 16.7775ZM80 52.4515C80 61.9745 72.3086 69.7242 62.8571 69.7242C53.4057 69.7242 45.7143 61.9745 45.7143 52.4515C45.7143 42.9285 53.4057 35.1788 62.8571 35.1788C72.3086 35.1788 80 42.9285 80 52.4515ZM76.1905 52.4515C76.1905 45.0434 70.2095 39.0171 62.8571 39.0171C55.5048 39.0171 49.5238 45.0434 49.5238 52.4515C49.5238 59.8596 55.5048 65.8858 62.8571 65.8858C70.2095 65.8858 76.1905 59.8596 76.1905 52.4515ZM66.2705 47.8953L61.2686 52.9313L59.4438 51.0927C58.701 50.3442 57.4932 50.3442 56.7504 51.0927C56.0075 51.8412 56.0075 53.0579 56.7504 53.8064L59.9237 57.0038C60.2818 57.3646 60.7657 57.5642 61.2723 57.5642C61.779 57.5642 62.2628 57.3608 62.6209 57.0038L68.9714 50.6091C69.7142 49.8606 69.7142 48.6438 68.9714 47.8953C68.2285 47.1469 67.0171 47.1469 66.2705 47.8953Z" fill="#59AA45"/>
</svg>
