<svg width="12" height="10" viewBox="0 0 12 10" fill="none" xmlns="http://www.w3.org/2000/svg">
<g id="twemoji:flag-ukraine" clip-path="url(#clip0_721_14544)">
<path id="Vector" d="M10.6667 0.666992H1.33333C0.979711 0.666992 0.640573 0.807468 0.390524 1.05752C0.140476 1.30756 0 1.6467 0 2.00033L0 5.00033H12V2.00033C12 1.6467 11.8595 1.30756 11.6095 1.05752C11.3594 0.807468 11.0203 0.666992 10.6667 0.666992Z" fill="#005BBB"/>
<path id="Vector_2" d="M12 8C12 8.35362 11.8595 8.69276 11.6095 8.94281C11.3594 9.19286 11.0203 9.33333 10.6667 9.33333H1.33333C0.979711 9.33333 0.640573 9.19286 0.390524 8.94281C0.140476 8.69276 0 8.35362 0 14.1919" fill="#FFD500"/>
</g>
<defs>
<clipPath id="clip0_721_14544">
<rect width="12" height="10" fill="white"/>
</clipPath>
</defs>
</svg>
