<svg width="17" height="20" viewBox="0 0 17 20" fill="none" xmlns="http://www.w3.org/2000/svg">
    <path d="M8.75705 8.75C6.41305 8.75 4.50705 6.843 4.50705 4.5C4.50705 2.157 6.41305 0.25 8.75705 0.25C11.101 0.25 13.007 2.157 13.007 4.5C13.007 6.843 11.101 8.75 8.75705 8.75ZM8.75705 1.75C7.24005 1.75 6.00705 2.983 6.00705 4.5C6.00705 6.017 7.24005 7.25 8.75705 7.25C10.274 7.25 11.507 6.017 11.507 4.5C11.507 2.983 10.273 1.75 8.75705 1.75ZM16.498 19V16.019C16.498 13.358 14.992 10.25 10.748 10.25H6.74802C2.50402 10.25 0.998016 13.357 0.998016 16.019V19C0.998016 19.414 1.33402 19.75 1.74802 19.75C2.16202 19.75 2.49802 19.414 2.49802 19V16.019C2.49802 15.018 2.80502 11.75 6.74802 11.75H10.748C14.691 11.75 14.998 15.017 14.998 16.019V19C14.998 19.414 15.334 19.75 15.748 19.75C16.162 19.75 16.498 19.414 16.498 19Z"
        fill="#00171F" />
</svg>