<svg width="40" height="20" viewBox="0 0 216 70" fill="none" xmlns="http://www.w3.org/2000/svg">
<g clip-path="url(#clip0_2743_29226)">
<path d="M63.6254 16.9113H58.0786V12.6358H63.6254V16.9113ZM63.6254 44.2088H58.0786V22.1735H63.6254V44.2088Z" fill="#151920"/>
<path d="M71.8282 22.1735L72.0696 25.2486C72.612 24.2278 73.3828 23.3483 74.321 22.68C75.1964 22.0748 76.2352 21.7556 77.2967 21.7657C78.1432 21.7356 78.9836 21.9204 79.7407 22.3031C80.4979 22.6858 81.1474 23.2542 81.6297 23.9561C82.6782 25.3988 83.2024 27.6845 83.2024 30.8133V44.2088H77.6556V30.8824C77.6556 29.2358 77.4631 28.0704 77.0781 27.3863C76.913 27.0661 76.6608 26.7998 76.3511 26.6187C76.0414 26.4376 75.687 26.3491 75.3292 26.3635C74.7484 26.3556 74.1768 26.5104 73.6782 26.8108C73.1715 27.1252 72.7456 27.5556 72.4351 28.0671V44.1825H66.562V22.1735H71.8282Z" fill="#151920"/>
<path d="M92.6647 16.9113V22.5024H95.6012V26.449H92.6647V37.5982C92.6647 38.5323 92.7962 39.19 93.0595 39.5715C93.1728 39.7562 93.3321 39.9077 93.5216 40.011C93.7111 40.1143 93.9241 40.1657 94.1395 40.1602C94.3582 40.1648 94.5768 40.1472 94.792 40.1076C95.0049 40.0623 95.2151 40.0052 95.4218 39.9366L95.8557 44.1496C95.3654 44.3302 94.8612 44.4699 94.3483 44.5673C93.8094 44.6594 93.2634 44.7034 92.7169 44.6989C90.9071 44.6989 89.5204 44.131 88.5567 42.9952C87.5931 41.8595 87.1135 40.0714 87.1178 37.6311V26.449H84.1813V22.5024H87.1178V16.9113H92.6647Z" fill="#151920"/>
<path d="M105.951 44.7514C103.082 44.7514 100.858 43.7516 99.2784 41.752C97.6992 39.7524 96.9085 37.1794 96.9063 34.0331V33.2043C96.9063 29.8935 97.6677 27.1977 99.1903 25.117C100.713 23.0362 102.853 21.997 105.612 21.9991C108.17 21.9991 110.133 22.8839 111.501 24.6533C112.869 26.4227 113.551 28.8268 113.547 31.8657V35H102.574C102.669 36.6181 103.034 37.9106 103.67 38.8677C104.306 39.8247 105.285 40.3082 106.607 40.3082C107.563 40.3331 108.516 40.1997 109.429 39.9135C110.289 39.5958 111.11 39.1775 111.873 38.6671L113.345 42.2355C112.422 43.0366 111.354 43.6488 110.199 44.0378C108.836 44.5266 107.398 44.7682 105.951 44.7514ZM105.608 26.2977C105.172 26.2822 104.74 26.3932 104.364 26.6176C103.988 26.8421 103.684 27.1705 103.487 27.5639C103.015 28.4102 102.724 29.5734 102.613 31.0534H108V30.5469C108 29.2083 107.814 28.169 107.449 27.4258C107.291 27.0723 107.031 26.7753 106.702 26.5739C106.374 26.3725 105.992 26.2762 105.608 26.2977Z" fill="#151920"/>
<path d="M125.453 27.1298L123.557 27.0673C122.997 27.0484 122.449 27.2289 122.007 27.577C121.566 27.9553 121.236 28.4476 121.051 29.0011V44.2088H115.505V22.1735H120.696L120.914 25.288C121.236 24.3147 121.773 23.4276 122.484 22.6931C122.856 22.3181 123.316 22.0434 123.821 21.894C124.326 21.7446 124.86 21.7253 125.375 21.838C125.583 21.884 125.802 21.9432 126.027 22.009L125.453 27.1298Z" fill="#151920"/>
<path d="M135.78 35H134.755V44.2088H129.208V12.6358H134.755V30.7245H135.669L139.584 22.5024H146.175L140.325 32.29L147.056 44.2088H140.55L135.78 35Z" fill="#2CA656"/>
<path d="M158.44 44.2088C158.217 43.7006 158.039 43.1734 157.908 42.6335C157.764 42.0631 157.655 41.4843 157.582 40.9002C157.151 41.921 156.506 42.8362 155.693 43.584C154.901 44.2862 153.876 44.661 152.822 44.6331C150.849 44.6331 149.331 44.051 148.27 42.8867C147.208 41.7225 146.678 40.1263 146.678 38.0981C146.678 35.9735 147.375 34.3225 148.769 33.1451C150.163 31.9677 152.253 31.3801 155.037 31.3823H157.595V29.4419C157.595 28.2864 157.398 27.3995 157.005 26.7812C156.823 26.4821 156.565 26.2378 156.257 26.074C155.949 25.9103 155.603 25.833 155.256 25.8504C154.955 25.8335 154.656 25.893 154.384 26.0235C154.113 26.1539 153.878 26.3512 153.703 26.597C153.31 27.2379 153.124 27.9861 153.171 28.7381L147.82 28.715L147.781 28.5868C147.726 27.6357 147.884 26.6844 148.241 25.8024C148.599 24.9205 149.147 24.1301 149.846 23.489C151.301 22.0924 153.222 21.394 155.608 21.394C157.849 21.394 159.665 22.0924 161.057 23.489C162.449 24.8857 163.144 26.8842 163.142 29.4846V38.5487C163.138 39.5211 163.211 40.4922 163.361 41.4528C163.512 42.3845 163.74 43.3019 164.043 44.1957L158.44 44.2088ZM156.378 39.5321C156.788 39.1418 157.094 38.6545 157.269 38.1146V34.6712H154.796C153.846 34.6712 153.164 34.9803 152.717 35.6019C152.26 36.297 152.031 37.1199 152.065 37.9534C152.035 38.6117 152.227 39.2608 152.61 39.7952C153.127 40.4749 153.897 40.6656 154.92 40.3675C155.467 40.2081 155.967 39.9168 156.378 39.5189V39.5321Z" fill="#2CA656"/>
<path d="M175.215 38.4336C175.218 38.1159 175.152 37.8013 175.022 37.5116C174.893 37.222 174.702 36.9642 174.464 36.7563C173.966 36.2936 172.999 35.7279 171.563 35.0592C169.332 34.2151 167.653 33.2668 166.529 32.2143C165.976 31.7015 165.539 31.0742 165.248 30.3755C164.958 29.6767 164.82 28.923 164.845 28.1658C164.84 27.2862 165.03 26.4166 165.4 25.6201C165.77 24.8237 166.312 24.1204 166.986 23.5614C168.415 22.2919 170.306 21.6582 172.66 21.6604C175.12 21.6604 177.085 22.3182 178.556 23.6337C179.263 24.2439 179.821 25.011 180.185 25.875C180.549 26.7389 180.709 27.6761 180.654 28.613L180.615 28.738H175.077C175.116 27.945 174.902 27.1602 174.467 26.4983C174.254 26.2124 173.974 25.9847 173.651 25.8359C173.329 25.6872 172.974 25.622 172.621 25.6465C172.312 25.6397 172.006 25.6944 171.719 25.8072C171.431 25.9201 171.169 26.089 170.947 26.3043C170.728 26.5075 170.555 26.755 170.438 27.0304C170.321 27.3059 170.263 27.6031 170.268 27.9027C170.255 28.199 170.306 28.4946 170.419 28.7686C170.532 29.0426 170.703 29.2882 170.921 29.4879C171.367 29.8891 172.345 30.4449 173.857 31.1553C176.172 31.9578 177.893 32.9017 179.022 33.987C179.583 34.5321 180.024 35.1901 180.316 35.9183C180.607 36.6465 180.744 37.4284 180.716 38.2132C180.732 39.1065 180.537 39.9909 180.148 40.7937C179.759 41.5965 179.186 42.2946 178.477 42.8308C176.983 44.0301 175.011 44.6309 172.562 44.6331C170.004 44.6331 167.981 43.8964 166.493 42.423C165.005 40.9495 164.295 39.2788 164.362 37.4107L164.424 37.289H169.619C169.645 38.4906 169.929 39.3533 170.47 39.8774C171.082 40.4269 171.884 40.7096 172.702 40.6634C173.376 40.7106 174.041 40.4951 174.562 40.0616C174.779 39.8525 174.95 39.5992 175.062 39.3185C175.175 39.0377 175.227 38.7361 175.215 38.4336Z" fill="#2CA656"/>
<path d="M192.325 38.4336C192.327 38.1156 192.261 37.801 192.131 37.5113C192.001 37.2217 191.81 36.9641 191.571 36.7563C191.073 36.2936 190.106 35.7279 188.67 35.0592C186.439 34.2151 184.76 33.2668 183.636 32.2143C183.083 31.7015 182.646 31.0742 182.355 30.3755C182.065 29.6767 181.927 28.923 181.952 28.1658C181.947 27.2862 182.137 26.4166 182.507 25.6201C182.877 24.8237 183.419 24.1204 184.093 23.5614C185.522 22.2919 187.413 21.6582 189.767 21.6604C192.229 21.6604 194.194 22.3182 195.663 23.6337C196.37 24.2442 196.928 25.0113 197.292 25.8751C197.657 26.7389 197.818 27.676 197.764 28.613L197.728 28.7512H192.201C192.239 27.9587 192.026 27.1744 191.594 26.5115C191.381 26.226 191.1 25.9986 190.778 25.8499C190.455 25.7012 190.101 25.6358 189.747 25.6597C189.438 25.6525 189.131 25.7069 188.843 25.8197C188.556 25.9326 188.293 26.1018 188.07 26.3174C187.852 26.5211 187.679 26.7686 187.562 27.0439C187.445 27.3193 187.387 27.6163 187.391 27.9158C187.379 28.212 187.431 28.5074 187.544 28.7813C187.656 29.0551 187.827 29.3008 188.044 29.501C188.49 29.9023 189.469 30.4581 190.981 31.1685C193.304 31.9688 195.026 32.9072 196.149 33.9838C196.71 34.5285 197.152 35.1864 197.444 35.9146C197.736 36.6428 197.873 37.4249 197.846 38.2099C197.861 39.1043 197.666 39.9896 197.276 40.793C196.885 41.5964 196.311 42.2948 195.601 42.8308C194.106 44.0301 192.134 44.6309 189.685 44.6331C187.127 44.6331 185.104 43.8964 183.616 42.423C182.128 40.9495 181.418 39.2788 181.486 37.4107L181.548 37.289H186.742C186.768 38.4906 187.052 39.3533 187.594 39.8774C188.206 40.4274 189.01 40.7101 189.829 40.6634C190.501 40.71 191.166 40.4946 191.685 40.0616C191.9 39.8513 192.068 39.5975 192.179 39.3168C192.289 39.0362 192.339 38.7351 192.325 38.4336Z" fill="#2CA656"/>
<path d="M210.319 44.2088C210.096 43.7006 209.918 43.1734 209.788 42.6335C209.643 42.0631 209.534 41.4843 209.461 40.9002C209.03 41.921 208.385 42.8362 207.572 43.584C206.781 44.2862 205.755 44.661 204.701 44.6331C202.728 44.6331 201.211 44.051 200.149 42.8867C199.088 41.7225 198.557 40.1263 198.557 38.0981C198.557 35.9735 199.254 34.3225 200.648 33.1451C202.043 31.9677 204.132 31.3801 206.916 31.3823H209.474V29.4419C209.474 28.2864 209.277 27.3995 208.884 26.7812C208.702 26.4821 208.444 26.2378 208.136 26.074C207.828 25.9103 207.482 25.833 207.135 25.8504C206.835 25.8335 206.535 25.893 206.264 26.0235C205.992 26.1539 205.758 26.3512 205.582 26.597C205.189 27.2379 205.003 27.9861 205.05 28.7381L199.699 28.715L199.66 28.5868C199.606 27.6357 199.763 26.6844 200.12 25.8024C200.478 24.9205 201.026 24.1301 201.725 23.489C203.18 22.0924 205.101 21.394 207.487 21.394C209.728 21.394 211.544 22.0924 212.936 23.489C214.328 24.8857 215.023 26.8842 215.021 29.4846V38.5487C215.017 39.5211 215.09 40.4922 215.24 41.4528C215.391 42.3845 215.62 43.3019 215.922 44.1957L210.319 44.2088ZM208.584 39.5321C208.993 39.1418 209.299 38.6545 209.474 38.1146V34.6712H207.001C206.052 34.6712 205.37 34.9803 204.923 35.6019C204.465 36.297 204.237 37.1199 204.27 37.9534C204.24 38.6117 204.432 39.2608 204.815 39.7952C205.334 40.476 206.12 40.6667 207.128 40.3675C207.674 40.2072 208.174 39.9161 208.584 39.5189V39.5321Z" fill="#2CA656"/>
<path d="M63.6254 55.062C63.6301 55.5587 63.5653 56.0536 63.4329 56.5321C63.3229 56.9517 63.1334 57.346 62.8749 57.6931C62.636 58.0074 62.3291 58.2627 61.9777 58.4397C61.5991 58.6224 61.1835 58.7136 60.7639 58.7061C60.2865 58.7172 59.8123 58.624 59.3739 58.4331C58.9929 58.2624 58.6575 58.0032 58.3951 57.6767V61.2944H57.7425V51.4443H58.3396L58.4048 52.4309C58.6547 52.0788 58.9848 51.7923 59.3674 51.5956C59.7997 51.3832 60.2766 51.2794 60.7574 51.293C61.1801 51.2855 61.5992 51.3732 61.9842 51.5495C62.338 51.7182 62.6476 51.9683 62.888 52.2796C63.1455 52.6213 63.335 53.0099 63.4459 53.4242C63.5794 53.9125 63.6442 54.4174 63.6385 54.9239L63.6254 55.062ZM62.6465 54.9074C62.6496 54.5079 62.6058 54.1094 62.516 53.7202C62.4404 53.3784 62.3069 53.0524 62.1212 52.7565C61.9491 52.4932 61.7176 52.2746 61.4458 52.1185C61.1515 51.9582 60.821 51.8778 60.4865 51.885C60.2243 51.8812 59.9632 51.9201 59.7132 52.0001C59.5024 52.071 59.3041 52.1753 59.1259 52.3092C58.9614 52.4365 58.8172 52.5884 58.6985 52.7598C58.5807 52.9255 58.4822 53.1043 58.4048 53.2926V56.8018C58.4912 56.9873 58.6008 57.1609 58.7311 57.3182C58.8596 57.4766 59.0115 57.6141 59.1814 57.726C59.3616 57.847 59.5599 57.9381 59.7687 57.9957C60.0085 58.0644 60.2569 58.0977 60.5061 58.0943C60.8387 58.104 61.1678 58.0233 61.4589 57.8608C61.729 57.7034 61.9582 57.4836 62.1278 57.2195C62.3128 56.9233 62.4463 56.5974 62.5226 56.2559C62.61 55.8642 62.6516 55.4635 62.6465 55.062V54.9074Z" fill="#868B95"/>
<path d="M69.3973 58.6797C69.3549 58.4396 69.319 58.2884 69.2962 58.1108C69.2699 57.9309 69.2535 57.7498 69.2472 57.5681C69.1271 57.721 68.9927 57.8619 68.8459 57.9891C68.6781 58.1277 68.4953 58.2468 68.301 58.3443C67.8536 58.5662 67.3607 58.6788 66.8621 58.6732C66.5436 58.6778 66.2268 58.6266 65.9257 58.5219C65.6602 58.4291 65.4152 58.285 65.2046 58.0976C65.0109 57.9164 64.8545 57.6985 64.7445 57.4563C64.6276 57.179 64.5722 56.8793 64.5824 56.5782C64.5925 56.2771 64.6679 55.9818 64.8032 55.7132C64.9611 55.4262 65.1849 55.1815 65.4558 54.9995C65.7648 54.7905 66.1085 54.639 66.4706 54.5522C66.9149 54.4692 67.3638 54.4132 67.8148 54.3845H69.1722V53.5853C69.2113 53.3676 69.1954 53.1435 69.1258 52.9337C69.0562 52.7238 68.9353 52.5351 68.7741 52.3849C68.3917 52.0687 67.9036 51.9122 67.4103 51.9475C67.1529 51.945 66.8966 51.9816 66.65 52.056C66.4342 52.1238 66.2321 52.2296 66.0529 52.3684C65.891 52.4903 65.7574 52.6463 65.6614 52.8256C65.5663 53.0009 65.5179 53.1981 65.5211 53.3978H64.7347C64.7328 53.1192 64.8001 52.8444 64.9305 52.5986C65.0703 52.3445 65.2589 52.1209 65.4852 51.9409C65.7409 51.7354 66.0302 51.5762 66.34 51.4706C66.6972 51.3484 67.0723 51.2883 67.4494 51.293C67.7994 51.2898 68.1479 51.3386 68.4837 51.4377C68.7821 51.525 69.0597 51.6727 69.2994 51.8718C69.5278 52.0708 69.7085 52.3193 69.828 52.5986C69.8952 52.9329 69.8952 53.2773 69.828 53.6116V57.0649C69.9217 57.1766 69.9917 57.3064 70.0336 57.4464C70.0336 57.5813 70.0564 57.7062 70.076 57.8312C70.0956 57.9562 70.1184 58.0713 70.1445 58.1831C70.1706 58.2949 70.2033 58.3936 70.1445 58.4758V58.6732L69.3973 58.6797ZM66.8882 58.022C67.1541 58.0244 67.419 57.9878 67.6745 57.9134C67.9052 57.8458 68.125 57.745 68.3271 57.6141C68.5184 57.4921 68.691 57.3425 68.8394 57.1702C68.9799 57.0045 69.0963 56.8196 69.1852 56.6209V55.062H67.8442C67.4835 55.0577 67.1234 55.0941 66.7707 55.1705C66.4877 55.2286 66.2164 55.3342 65.9681 55.483C65.7637 55.6047 65.5923 55.7752 65.4689 55.9796C65.3524 56.1787 65.2926 56.4063 65.2959 56.6374C65.2941 56.8229 65.3313 57.0067 65.4049 57.1768C65.4786 57.3468 65.5871 57.4992 65.7234 57.624C65.8692 57.7543 66.0388 57.8548 66.2226 57.92C66.4368 57.9933 66.6621 58.0278 66.8882 58.022Z" fill="#868B95"/>
<path d="M73.7989 57.4267L75.8643 51.4443H76.7061L73.7108 59.7125C73.6521 59.8769 73.5738 60.0413 73.4792 60.2617C73.3845 60.4668 73.2615 60.6572 73.1137 60.8274C72.9561 61.0097 72.7657 61.1604 72.5525 61.2714C72.2975 61.3994 72.015 61.4615 71.7303 61.4523H71.5802L71.4105 61.4292C71.3566 61.4231 71.3032 61.4133 71.2506 61.3996L71.1299 61.37V60.7123C71.1821 60.7123 71.2539 60.7287 71.342 60.7386C71.4061 60.7419 71.4704 60.7419 71.5345 60.7386C71.7237 60.7421 71.9122 60.7144 72.0925 60.6564C72.2475 60.6044 72.3906 60.5216 72.5134 60.413C72.6424 60.2962 72.7526 60.1597 72.8396 60.0085C72.9375 59.8282 73.0204 59.6401 73.0876 59.4461L73.4139 58.5054L70.7449 51.4443H71.5998L73.7989 57.4267Z" fill="#868B95"/>
<path d="M78.7225 51.4443L78.7486 52.6217C78.863 52.4272 78.9987 52.2463 79.1532 52.0823C79.3026 51.9193 79.4753 51.7797 79.6655 51.6679C79.8584 51.5505 80.0672 51.4618 80.2854 51.4048C80.5204 51.3401 80.763 51.308 81.0065 51.3094C81.4633 51.2959 81.9149 51.4097 82.3117 51.6383C82.6947 51.8841 82.9729 52.2654 83.0915 52.7072C83.2048 52.5059 83.3405 52.3183 83.4961 52.1481C83.6531 51.9758 83.8332 51.8264 84.0312 51.7041C84.2341 51.5763 84.4537 51.4778 84.6837 51.4114C84.9371 51.3375 85.1998 51.3009 85.4636 51.3029C85.7961 51.2959 86.1273 51.3471 86.4424 51.4542C86.7179 51.5477 86.965 51.7107 87.1602 51.9278C87.3679 52.1668 87.5215 52.4485 87.6105 52.7533C87.7197 53.1448 87.7713 53.5503 87.7639 53.957V58.6798H87.1113V54.0129C87.1198 53.6945 87.0768 53.3768 86.984 53.0723C86.9107 52.8484 86.7855 52.6455 86.6186 52.4803C86.4596 52.3312 86.2652 52.2259 86.0541 52.1744C85.8193 52.1159 85.5782 52.0872 85.3363 52.0889C85.028 52.0861 84.7225 52.1477 84.439 52.2698C84.1968 52.3757 83.9757 52.525 83.7865 52.7105C83.6132 52.8828 83.4727 53.0857 83.3721 53.3091C83.2771 53.5099 83.2175 53.7257 83.1959 53.9471V58.6798H82.5433V53.9537C82.5512 53.6515 82.5082 53.3501 82.4161 53.0624C82.3412 52.8442 82.2147 52.6478 82.0474 52.4901C81.886 52.3437 81.6926 52.2377 81.4829 52.181C81.2457 52.1166 81.0009 52.0856 80.7553 52.0889C80.478 52.0831 80.2022 52.1311 79.9428 52.2303C79.7177 52.3187 79.51 52.4468 79.3294 52.6085C79.1577 52.7648 79.0123 52.9481 78.8987 53.1512C78.7872 53.3495 78.6965 53.5589 78.6279 53.7761V58.6798H77.9753V51.4443H78.7225Z" fill="#868B95"/>
<path d="M92.2959 58.6798C91.8572 58.6852 91.4224 58.5967 91.0202 58.4199C90.639 58.2517 90.2968 58.0053 90.0152 57.6964C89.7283 57.3745 89.5066 56.9991 89.3626 56.5913C89.2325 56.1312 89.1376 55.6618 89.0788 55.187V54.9173C89.0712 54.4086 89.1552 53.9027 89.3268 53.4242C89.4755 53.0043 89.7025 52.6169 89.9956 52.283C90.268 51.9745 90.6015 51.7269 90.9745 51.5561C91.3378 51.3841 91.7347 51.2964 92.1361 51.2996C92.5513 51.2907 92.9634 51.3738 93.3433 51.543C93.6862 51.6982 93.9897 51.9298 94.2308 52.2205C94.4784 52.5257 94.6626 52.878 94.7724 53.2565C94.9008 53.6828 94.9635 54.1265 94.9584 54.572V55.062H89.7281V55.2002C89.863 55.5623 89.9795 55.9311 90.0772 56.3052C90.1853 56.6338 90.3548 56.9386 90.5764 57.2031C90.7857 57.4568 91.0459 57.6631 91.3399 57.8082C91.645 57.9567 91.98 58.0321 92.3188 58.0286C92.7 58.0369 93.0781 57.9582 93.4249 57.7984C93.7709 57.6168 94.0694 57.3554 94.2961 57.0353L94.7855 57.4136C94.6643 57.5878 94.5278 57.7507 94.3776 57.9003C94.2158 58.058 94.0336 58.193 93.836 58.3015C93.6183 58.4219 93.3857 58.5126 93.1443 58.5712C92.8669 58.6421 92.582 58.6786 92.2959 58.6798ZM92.2764 51.9837C91.9924 51.9822 91.7112 52.0405 91.4509 52.1547C91.2033 52.273 90.9815 52.4395 90.7983 52.6447C90.5959 52.8674 90.4346 53.1247 90.3219 53.4045C90.1928 53.7201 90.1072 54.0521 90.0674 54.3911H94.3091V54.3056C94.3012 54.0109 94.2529 53.7187 94.1655 53.4373C94.0835 53.1695 93.9542 52.9188 93.7838 52.6974C93.614 52.4812 93.4004 52.3041 93.1573 52.1777C92.8837 52.0419 92.5813 51.9753 92.2764 51.9837Z" fill="#868B95"/>
<path d="M96.9814 51.4443L97.0075 52.6809C97.1259 52.4794 97.2647 52.2909 97.4219 52.1185C97.576 51.951 97.7515 51.805 97.9439 51.6844C98.1359 51.5619 98.3448 51.4688 98.5639 51.4081C98.7929 51.3413 99.0302 51.3081 99.2686 51.3094C99.5836 51.3048 99.8971 51.3549 100.195 51.4574C100.462 51.5527 100.701 51.7131 100.89 51.9244C101.093 52.1645 101.241 52.4463 101.324 52.75C101.432 53.1473 101.483 53.5582 101.474 53.9701V58.6798H100.822V54.0194C100.83 53.708 100.79 53.3971 100.701 53.0986C100.632 52.8761 100.514 52.6725 100.355 52.5033C100.204 52.3494 100.016 52.2364 99.8103 52.1744C99.5777 52.109 99.3371 52.0769 99.0957 52.079C98.827 52.0746 98.56 52.1227 98.3094 52.2204C98.082 52.3103 97.8713 52.4382 97.6862 52.5987C97.5052 52.7557 97.348 52.9385 97.2196 53.1413C97.0856 53.3375 96.976 53.5496 96.8933 53.7728V58.6798H96.2407V51.4443H96.9814Z" fill="#868B95"/>
<path d="M104.737 49.4709V51.4443H106.042V52.102H104.737V56.8281C104.728 57.0326 104.754 57.2372 104.812 57.4333C104.851 57.5661 104.92 57.6878 105.014 57.7885C105.096 57.8706 105.197 57.9296 105.308 57.9595C105.422 57.9889 105.54 58.0032 105.657 58.0022C105.766 58.0024 105.875 57.9947 105.984 57.9792L106.277 57.9365L106.31 58.5942C106.188 58.6361 106.062 58.6637 105.935 58.6765C105.782 58.6961 105.628 58.706 105.475 58.7061C105.266 58.708 105.058 58.678 104.858 58.6173C104.671 58.5605 104.502 58.455 104.368 58.3114C104.218 58.1468 104.107 57.95 104.042 57.7359C104.007 57.4382 104.013 57.1371 104.062 56.8413V52.102H102.757V51.4443H104.062V49.4709H104.737Z" fill="#868B95"/>
<path d="M116.483 55.062C116.489 55.5579 116.429 56.0524 116.304 56.5321C116.201 56.9416 116.024 57.3284 115.782 57.6734C115.561 57.9842 115.272 58.2396 114.937 58.4199C114.586 58.6025 114.196 58.6941 113.801 58.6863C113.351 58.6974 112.905 58.604 112.496 58.4133C112.139 58.2373 111.828 57.978 111.589 57.6569V61.2746H110.937V51.4443H111.537L111.589 52.4309C111.82 52.0834 112.13 51.7969 112.493 51.5956C112.895 51.3836 113.344 51.2794 113.798 51.293C114.196 51.2856 114.589 51.3735 114.947 51.5495C115.284 51.7216 115.576 51.9718 115.798 52.2796C116.041 52.6251 116.218 53.0132 116.32 53.4242C116.446 53.9138 116.506 54.4182 116.5 54.9239L116.483 55.062ZM115.831 54.9074C115.834 54.5068 115.79 54.1072 115.7 53.7169C115.624 53.3764 115.491 53.0516 115.306 52.7565C115.134 52.4925 114.903 52.2737 114.63 52.1185C114.336 51.9582 114.005 51.8778 113.671 51.885C113.409 51.8812 113.148 51.9201 112.898 52.0001C112.485 52.1333 112.128 52.4004 111.883 52.7598C111.764 52.9251 111.666 53.1039 111.589 53.2926V56.8018C111.675 56.9873 111.785 57.1609 111.915 57.3182C112.044 57.4765 112.196 57.6141 112.366 57.726C112.546 57.8468 112.745 57.9388 112.953 57.9989C113.193 58.0665 113.441 58.0987 113.69 58.0943C114.023 58.1034 114.351 58.024 114.643 57.8641C114.914 57.7007 115.143 57.4754 115.312 57.2063C115.497 56.9101 115.631 56.5842 115.707 56.2427C115.793 55.8553 115.835 55.4591 115.831 55.062V54.9074Z" fill="#868B95"/>
<path d="M121.339 52.102C121.164 52.0723 120.987 52.058 120.81 52.0593C120.565 52.0557 120.32 52.0958 120.089 52.1777C119.888 52.2626 119.698 52.3731 119.524 52.5066C119.231 52.745 118.975 53.0279 118.767 53.3452V58.6798H118.115V51.4443H118.767V52.5658C118.996 52.2059 119.288 51.8915 119.629 51.6383C119.991 51.4064 120.414 51.2916 120.843 51.3094C120.941 51.3103 121.039 51.3191 121.136 51.3357C121.212 51.3455 121.287 51.3654 121.358 51.3949L121.339 52.102Z" fill="#868B95"/>
<path d="M122.03 54.8811C122.026 54.4017 122.101 53.9248 122.252 53.4702C122.386 53.0608 122.599 52.6819 122.879 52.3553C123.148 52.0414 123.482 51.791 123.857 51.6219C124.256 51.4401 124.689 51.3492 125.127 51.3555C125.569 51.3485 126.008 51.4394 126.412 51.6219C126.788 51.7905 127.123 52.041 127.391 52.3553C127.67 52.6815 127.882 53.0605 128.014 53.4702C128.164 53.925 128.238 54.4019 128.233 54.8811V55.0949C128.238 55.5731 128.164 56.0488 128.014 56.5025C127.882 56.9132 127.67 57.2933 127.391 57.6207C127.122 57.9337 126.788 58.1829 126.412 58.3509C126.008 58.5224 125.575 58.6107 125.136 58.6107C124.698 58.6107 124.264 58.5224 123.861 58.3509C123.486 58.1817 123.152 57.9326 122.882 57.6207C122.601 57.2934 122.387 56.9134 122.252 56.5025C122.101 56.049 122.026 55.5733 122.03 55.0949V54.8811ZM122.683 55.0982C122.68 55.4877 122.734 55.8755 122.843 56.2493C122.943 56.594 123.103 56.9181 123.316 57.2064C123.521 57.479 123.783 57.7035 124.083 57.8641C124.408 58.0303 124.769 58.1139 125.133 58.1075C125.497 58.1143 125.857 58.0307 126.181 57.8641C126.479 57.7034 126.74 57.479 126.944 57.2064C127.158 56.9189 127.318 56.5946 127.417 56.2493C127.526 55.8755 127.58 55.4877 127.577 55.0982V54.8746C127.579 54.4905 127.525 54.1082 127.417 53.7399C127.318 53.3939 127.157 53.0686 126.944 52.7795C126.738 52.5066 126.475 52.2822 126.174 52.1218C125.848 51.9529 125.486 51.8681 125.12 51.8751C124.758 51.8681 124.4 51.9529 124.079 52.1218C123.781 52.2832 123.52 52.5076 123.316 52.7795C123.104 53.0694 122.944 53.3944 122.843 53.7399C122.735 54.1082 122.681 54.4905 122.683 54.8746V55.0982Z" fill="#868B95"/>
<path d="M132.207 58.022C132.449 58.0229 132.69 57.9863 132.922 57.9135C133.144 57.841 133.351 57.7296 133.535 57.5846C133.714 57.4412 133.864 57.2635 133.975 57.0617C134.093 56.8461 134.161 56.6067 134.175 56.3611H134.925C134.909 56.6819 134.824 56.9953 134.674 57.2787C134.525 57.562 134.324 57.8133 134.08 58.0187C133.827 58.2297 133.538 58.3934 133.228 58.5022C132.467 58.7651 131.635 58.7298 130.899 58.4035C130.532 58.2278 130.209 57.9702 129.956 57.6504C129.692 57.3147 129.496 56.9304 129.378 56.519C129.244 56.0649 129.187 55.5913 129.208 55.1179V54.8417C129.187 54.3684 129.244 53.8948 129.378 53.4406C129.496 53.0318 129.691 52.6498 129.952 52.3158C130.206 51.9952 130.528 51.7366 130.895 51.5594C131.304 51.3685 131.75 51.274 132.2 51.2831C132.559 51.2797 132.916 51.3398 133.254 51.4607C133.567 51.574 133.855 51.7471 134.103 51.9705C134.348 52.1953 134.544 52.4684 134.68 52.773C134.818 53.0757 134.9 53.4011 134.922 53.7333H134.171C134.149 53.4952 134.086 53.2627 133.985 53.046C133.883 52.8248 133.739 52.6259 133.561 52.4605C133.381 52.2967 133.172 52.1694 132.944 52.0856C132.705 51.9989 132.452 51.9555 132.197 51.9573C131.839 51.9455 131.483 52.0282 131.166 52.1974C130.889 52.3509 130.653 52.5699 130.478 52.8355C130.292 53.1162 130.16 53.4297 130.089 53.7596C130.008 54.0885 129.969 54.4667 129.858 54.845V55.1212C129.969 55.5027 130.008 55.8711 130.089 56.2197C130.16 56.5481 130.29 56.8604 130.474 57.1406C130.65 57.4066 130.888 57.6256 131.166 57.7786C131.487 57.9473 131.845 58.031 132.207 58.022Z" fill="#868B95"/>
<path d="M139.065 58.6798C138.628 58.685 138.194 58.5964 137.793 58.42C137.412 58.2517 137.07 58.0053 136.788 57.6964C136.501 57.3745 136.279 56.9991 136.135 56.5914C136.041 56.1297 136.016 55.6561 136.064 55.187V54.9173C136.057 54.4097 136.136 53.9047 136.299 53.4242C136.437 53.0077 136.65 52.6207 136.928 52.283C137.181 51.9785 137.495 51.7309 137.848 51.5561C138.189 51.3848 138.564 51.2969 138.945 51.2996C139.339 51.2912 139.73 51.3744 140.087 51.543C140.413 51.7012 140.699 51.933 140.922 52.2205C141.158 52.5297 141.333 52.8813 141.438 53.2565C141.557 53.6845 141.615 54.1275 141.611 54.572V55.062H136.713V55.2002C136.678 55.5742 136.725 55.9514 136.85 56.3052C136.958 56.6339 137.128 56.9386 137.349 57.2031C137.559 57.4569 137.819 57.6631 138.113 57.8082C138.418 57.9567 138.753 58.0321 139.092 58.0286C139.473 58.0369 139.851 57.9582 140.198 57.7984C140.542 57.6238 140.842 57.3704 141.072 57.0584L141.562 57.4366C141.44 57.6109 141.304 57.7738 141.154 57.9234C140.992 58.0811 140.81 58.216 140.612 58.3246C140.394 58.445 140.162 58.5357 139.92 58.5943C139.64 58.6578 139.353 58.6866 139.065 58.6798ZM138.935 51.9837C138.651 51.9822 138.37 52.0405 138.109 52.1547C137.862 52.273 137.64 52.4395 137.457 52.6447C137.255 52.8674 137.093 53.1247 136.981 53.4045C136.851 53.7198 136.766 54.0519 136.729 54.3911H140.971V54.3056C140.963 54.0109 140.915 53.7187 140.827 53.4374C140.745 53.1695 140.616 52.9189 140.446 52.6974C140.276 52.4813 140.062 52.3041 139.819 52.1777C139.545 52.0414 139.241 51.9748 138.935 51.9837Z" fill="#868B95"/>
<path d="M147.32 56.884C147.32 56.7294 147.293 56.576 147.242 56.4302C147.178 56.265 147.076 56.1174 146.945 55.9993C146.767 55.839 146.563 55.7101 146.342 55.6178C146.02 55.4793 145.684 55.3768 145.34 55.312C144.967 55.2342 144.6 55.1321 144.24 55.0061C143.949 54.9079 143.673 54.7672 143.421 54.5884C143.211 54.4367 143.039 54.2373 142.919 54.0063C142.801 53.7583 142.743 53.4855 142.749 53.2104C142.748 52.9369 142.809 52.6668 142.929 52.4211C143.052 52.1652 143.23 51.9404 143.451 51.7633C143.696 51.5675 143.974 51.4191 144.273 51.3259C144.624 51.2124 144.991 51.1569 145.359 51.1614C145.751 51.155 146.141 51.2127 146.515 51.3325C146.83 51.4309 147.123 51.5894 147.379 51.7995C147.609 51.9931 147.793 52.2357 147.918 52.5099C148.041 52.7882 148.103 53.0899 148.1 53.3946H147.278C147.278 53.1978 147.234 53.0036 147.151 52.8256C147.063 52.639 146.938 52.4731 146.782 52.3388C146.601 52.1954 146.397 52.0841 146.178 52.01C145.915 51.9195 145.638 51.875 145.359 51.8784C145.082 51.872 144.805 51.912 144.541 51.9968C144.338 52.0619 144.15 52.1658 143.986 52.3027C143.846 52.4137 143.734 52.5569 143.66 52.7204C143.596 52.8666 143.563 53.0244 143.562 53.1841C143.558 53.3388 143.584 53.4927 143.637 53.6379C143.698 53.789 143.798 53.9208 143.927 54.0194C144.111 54.1591 144.314 54.27 144.531 54.3483C144.861 54.4687 145.199 54.5676 145.542 54.6443C145.936 54.734 146.323 54.8516 146.701 54.9962C146.991 55.1062 147.263 55.2604 147.506 55.4534C147.707 55.6179 147.869 55.8258 147.98 56.0618C148.085 56.3122 148.138 56.5823 148.133 56.8544C148.136 57.1476 148.07 57.4372 147.94 57.6997C147.81 57.9585 147.623 58.1837 147.392 58.3574C147.131 58.5498 146.839 58.6935 146.528 58.7817C145.747 58.9931 144.924 58.9829 144.149 58.7521C143.818 58.6446 143.509 58.4762 143.239 58.2555C143.002 58.063 142.811 57.819 142.681 57.5418C142.556 57.2802 142.491 56.9935 142.491 56.7032H143.314C143.323 56.9634 143.401 57.2166 143.539 57.4366C143.666 57.6295 143.836 57.7904 144.035 57.9069C144.236 58.0279 144.457 58.1136 144.687 58.1601C144.921 58.2093 145.16 58.2347 145.399 58.2358C145.677 58.2408 145.954 58.2031 146.221 58.1239C146.437 58.0623 146.64 57.962 146.821 57.8279C146.973 57.7145 147.098 57.5684 147.187 57.4004C147.273 57.242 147.319 57.0646 147.32 56.884Z" fill="#868B95"/>
<path d="M153.859 56.884C153.859 56.7294 153.832 56.5759 153.781 56.4302C153.717 56.265 153.615 56.1174 153.484 55.9993C153.305 55.839 153.101 55.7101 152.88 55.6178C152.559 55.4793 152.223 55.3768 151.879 55.312C151.505 55.2342 151.137 55.132 150.776 55.0061C150.485 54.9073 150.211 54.7666 149.96 54.5884C149.75 54.4367 149.578 54.2373 149.458 54.0063C149.339 53.7582 149.281 53.4855 149.288 53.2104C149.287 52.9369 149.348 52.6668 149.467 52.4211C149.59 52.1652 149.769 51.9404 149.99 51.7633C150.234 51.5675 150.513 51.4191 150.812 51.3259C151.163 51.2124 151.53 51.1569 151.898 51.1614C152.29 51.155 152.68 51.2127 153.053 51.3325C153.369 51.4309 153.662 51.5894 153.918 51.7995C154.148 51.9931 154.331 52.2357 154.456 52.5099C154.579 52.7882 154.642 53.0899 154.639 53.3946H153.817C153.816 53.1978 153.773 53.0036 153.69 52.8256C153.602 52.639 153.476 52.4731 153.321 52.3388C153.14 52.1954 152.936 52.0841 152.717 52.01C152.454 51.9195 152.177 51.875 151.898 51.8784C151.621 51.872 151.344 51.912 151.079 51.9968C150.877 52.0619 150.688 52.1658 150.525 52.3027C150.384 52.4137 150.273 52.5569 150.198 52.7203C150.134 52.8664 150.099 53.0242 150.097 53.1841C150.095 53.339 150.122 53.4929 150.176 53.6379C150.237 53.789 150.337 53.9208 150.466 54.0194C150.65 54.1591 150.853 54.27 151.07 54.3483C151.4 54.4687 151.738 54.5676 152.081 54.6443C152.475 54.734 152.862 54.8516 153.239 54.9962C153.53 55.1062 153.801 55.2604 154.045 55.4534C154.248 55.613 154.413 55.8164 154.528 56.0487C154.634 56.2991 154.686 56.5692 154.681 56.8413C154.684 57.1344 154.618 57.424 154.489 57.6865C154.359 57.9454 154.171 58.1705 153.941 58.3443C153.68 58.5366 153.387 58.6803 153.076 58.7685C152.296 58.9799 151.473 58.9697 150.698 58.739C150.366 58.6314 150.058 58.463 149.787 58.2423C149.55 58.0499 149.36 57.8059 149.229 57.5287C149.104 57.267 149.04 56.9803 149.04 56.69H149.862C149.871 56.9503 149.949 57.2034 150.087 57.4234C150.215 57.6163 150.385 57.7772 150.583 57.8937C150.785 58.0148 151.006 58.1004 151.236 58.147C151.47 58.1962 151.708 58.2215 151.947 58.2226C152.225 58.2276 152.503 58.1899 152.769 58.1108C152.985 58.0499 153.187 57.9495 153.367 57.8148C153.52 57.7022 153.646 57.5561 153.735 57.3872C153.816 57.2319 153.858 57.0593 153.859 56.884Z" fill="#868B95"/>
<path d="M155.983 49.3558C155.981 49.2863 155.992 49.217 156.017 49.152C156.042 49.0871 156.079 49.0278 156.127 48.9776C156.177 48.9247 156.238 48.8834 156.306 48.8567C156.373 48.83 156.446 48.8185 156.518 48.823C156.591 48.8189 156.664 48.8306 156.732 48.8573C156.801 48.8839 156.862 48.925 156.913 48.9776C156.988 49.053 157.039 49.1496 157.059 49.2547C157.079 49.3598 157.066 49.4685 157.024 49.5664C156.981 49.6643 156.91 49.7468 156.82 49.8032C156.729 49.8595 156.624 49.887 156.518 49.882C156.448 49.8867 156.378 49.8764 156.311 49.8518C156.245 49.8272 156.185 49.7888 156.134 49.7392C156.084 49.6896 156.044 49.6298 156.018 49.5637C155.992 49.4977 155.98 49.4268 155.983 49.3558ZM156.943 58.6797H156.29V51.4443H156.943V58.6797Z" fill="#868B95"/>
<path d="M159.631 51.4442L159.654 52.6809C159.772 52.4794 159.911 52.2909 160.068 52.1185C160.223 51.9518 160.399 51.8059 160.59 51.6843C160.783 51.5625 160.992 51.4694 161.21 51.4081C161.439 51.3413 161.677 51.3081 161.915 51.3094C162.23 51.3046 162.544 51.3546 162.842 51.4574C163.109 51.5518 163.348 51.7124 163.537 51.9244C163.739 52.1645 163.887 52.4462 163.971 52.7499C164.079 53.1472 164.129 53.5582 164.121 53.9701V58.6797H163.468V54.0194C163.477 53.7079 163.436 53.3971 163.348 53.0985C163.279 52.8761 163.161 52.6725 163.002 52.5033C162.85 52.3494 162.663 52.2363 162.457 52.1744C162.224 52.109 161.984 52.0769 161.742 52.079C161.474 52.0746 161.207 52.1226 160.956 52.2204C160.729 52.3103 160.518 52.4382 160.333 52.5986C160.152 52.7564 159.994 52.9391 159.863 53.1413C159.73 53.3382 159.62 53.5501 159.537 53.7728V58.6797H158.884V51.4442H159.631Z" fill="#868B95"/>
<path d="M165.752 54.9305C165.746 54.4243 165.809 53.9198 165.938 53.4307C166.045 53.0188 166.228 52.6306 166.477 52.2862C166.701 51.9789 166.994 51.7288 167.331 51.5561C167.688 51.3808 168.08 51.2929 168.477 51.2996C168.931 51.2853 169.381 51.3907 169.782 51.6054C170.145 51.8104 170.452 52.1031 170.676 52.4572L170.715 51.4311H171.299V58.4232C171.321 58.846 171.258 59.269 171.113 59.6664C170.991 60.0143 170.796 60.3317 170.542 60.5971C170.29 60.8559 169.985 61.0567 169.648 61.1859C169.275 61.326 168.879 61.3952 168.48 61.3898C168.251 61.3885 168.022 61.3631 167.798 61.3141C167.574 61.2603 167.355 61.1843 167.146 61.0872C166.929 60.9841 166.724 60.8572 166.535 60.709C166.342 60.5549 166.171 60.3732 166.03 60.1696L166.47 59.696C166.717 60.0176 167.028 60.2832 167.384 60.4755C167.713 60.6414 168.076 60.7259 168.444 60.7221C168.748 60.7289 169.051 60.6765 169.335 60.5675C169.584 60.4715 169.807 60.3183 169.987 60.1203C170.17 59.9141 170.309 59.6723 170.395 59.4099C170.49 59.1303 170.656 58.4561 170.656 58.4561V57.6372C170.425 57.9653 170.118 58.2318 169.762 58.4133C169.356 58.6107 168.908 58.7066 168.457 58.6929C168.063 58.6992 167.673 58.6077 167.322 58.4265C166.986 58.2455 166.695 57.9903 166.47 57.6799C166.223 57.336 166.04 56.9491 165.932 56.5387C165.805 56.0571 165.744 55.5602 165.752 55.062V54.9305ZM166.405 55.0587C166.402 55.4613 166.445 55.863 166.532 56.2559C166.605 56.5967 166.738 56.9218 166.924 57.2162C167.087 57.4785 167.311 57.6973 167.576 57.8542C167.868 58.0145 168.197 58.094 168.529 58.0845C168.783 58.0886 169.036 58.0542 169.279 57.9825C169.49 57.9209 169.689 57.8266 169.87 57.703C170.037 57.5833 170.186 57.4405 170.314 57.2787C170.443 57.1135 170.552 56.9336 170.64 56.7426V53.3288C170.564 53.1349 170.465 52.9505 170.346 52.7795C170.226 52.6053 170.081 52.4501 169.916 52.3191C169.739 52.1779 169.541 52.0668 169.328 51.9902C169.076 51.907 168.811 51.867 168.545 51.8718C168.204 51.8605 167.866 51.9411 167.566 52.1053C167.303 52.2656 167.079 52.4851 166.914 52.7466C166.729 53.0424 166.596 53.3685 166.522 53.7103C166.435 54.1021 166.393 54.5026 166.395 54.9041L166.405 55.0587Z" fill="#868B95"/>
<path d="M180.686 56.884C180.686 56.7294 180.659 56.576 180.608 56.4302C180.547 56.2645 180.446 56.1166 180.314 55.9993C180.135 55.8398 179.931 55.7109 179.711 55.6178C179.388 55.4794 179.051 55.3768 178.706 55.312C178.333 55.2338 177.966 55.1316 177.606 55.0061C177.315 54.908 177.041 54.7672 176.79 54.5884C176.58 54.4359 176.407 54.2367 176.285 54.0063C176.169 53.7584 176.109 53.4877 176.109 53.2137C176.109 52.9396 176.169 52.6689 176.285 52.4211C176.408 52.1661 176.585 51.9415 176.803 51.7633C177.049 51.5691 177.328 51.4209 177.626 51.3259C177.977 51.2124 178.344 51.1569 178.712 51.1614C179.104 51.155 179.494 51.2127 179.867 51.3325C180.183 51.4294 180.477 51.5881 180.732 51.7995C180.962 51.9931 181.145 52.2357 181.27 52.5099C181.396 52.7875 181.459 53.0895 181.456 53.3946H180.634C180.634 53.1978 180.59 53.0036 180.507 52.8256C180.419 52.6382 180.292 52.4722 180.135 52.3388C179.954 52.1942 179.75 52.0829 179.531 52.01C179.268 51.9193 178.991 51.8748 178.712 51.8784C178.435 51.8722 178.158 51.9122 177.893 51.9968C177.691 52.0627 177.503 52.1664 177.339 52.3027C177.211 52.4108 177.107 52.5455 177.036 52.6977C176.964 52.8498 176.926 53.0157 176.924 53.1841C176.923 53.3386 176.948 53.4923 176.999 53.6379C177.062 53.7883 177.162 53.9198 177.29 54.0194C177.474 54.1585 177.677 54.2693 177.893 54.3483C178.224 54.4683 178.562 54.5671 178.905 54.6443C179.299 54.7335 179.686 54.8511 180.063 54.9962C180.354 55.1055 180.626 55.2597 180.869 55.4534C181.07 55.6179 181.232 55.8258 181.342 56.0618C181.449 56.3118 181.502 56.5822 181.495 56.8545C181.5 57.1477 181.434 57.4377 181.303 57.6997C181.173 57.9585 180.985 58.1837 180.755 58.3575C180.495 58.5498 180.203 58.6935 179.893 58.7817C179.525 58.887 179.144 58.938 178.761 58.933C178.339 58.9409 177.918 58.8798 177.515 58.7521C177.182 58.6453 176.872 58.4769 176.601 58.2555C176.366 58.0612 176.176 57.8177 176.043 57.5418C175.923 57.2801 175.863 56.9947 175.867 56.7064H176.689C176.698 56.9673 176.777 57.2209 176.918 57.4399C177.044 57.6326 177.213 57.7936 177.41 57.9102C177.612 58.0314 177.833 58.1171 178.063 58.1634C178.296 58.2126 178.533 58.238 178.771 58.2391C179.049 58.2441 179.326 58.2064 179.593 58.1272C179.809 58.0656 180.013 57.9653 180.194 57.8312C180.346 57.7187 180.471 57.5724 180.559 57.4037C180.645 57.2443 180.689 57.0654 180.686 56.884Z" fill="#868B95"/>
<path d="M185.062 57.4267L187.127 51.4443H187.969L184.974 59.7125C184.915 59.8769 184.837 60.0413 184.742 60.2617C184.647 60.4668 184.524 60.6572 184.377 60.8274C184.219 61.0097 184.028 61.1604 183.815 61.2714C183.56 61.3994 183.278 61.4615 182.993 61.4523H182.843L182.673 61.4292C182.619 61.4231 182.566 61.4133 182.513 61.3996L182.393 61.37V60.7123C182.445 60.7123 182.517 60.7287 182.605 60.7386C182.669 60.7418 182.733 60.7418 182.797 60.7386C182.986 60.7421 183.175 60.7144 183.355 60.6564C183.51 60.6044 183.653 60.5216 183.776 60.413C183.905 60.2962 184.015 60.1597 184.102 60.0085C184.2 59.8282 184.283 59.6401 184.35 59.4461L184.677 58.5054L182.008 51.4443H182.863L185.062 57.4267Z" fill="#868B95"/>
<path d="M193.16 56.884C193.16 56.7291 193.132 56.5754 193.079 56.4302C193.017 56.2645 192.916 56.1166 192.785 55.9993C192.606 55.8397 192.402 55.7109 192.181 55.6178C191.858 55.4794 191.521 55.3768 191.176 55.312C190.804 55.2338 190.436 55.1316 190.077 55.0061C189.786 54.9079 189.511 54.7672 189.261 54.5884C189.051 54.4367 188.878 54.2373 188.759 54.0063C188.639 53.7585 188.58 53.4857 188.586 53.2104C188.586 52.9366 188.648 52.6665 188.768 52.4211C188.891 52.1652 189.07 51.9404 189.29 51.7633C189.535 51.5674 189.814 51.4191 190.113 51.3259C190.464 51.2122 190.831 51.1567 191.199 51.1614C191.591 51.1555 191.981 51.2132 192.354 51.3324C192.669 51.4301 192.961 51.5888 193.216 51.7995C193.446 51.9921 193.63 52.235 193.754 52.5098C193.88 52.7875 193.943 53.0895 193.94 53.3945H193.118C193.117 53.1978 193.074 53.0035 192.99 52.8256C192.903 52.639 192.777 52.4731 192.622 52.3388C192.441 52.1954 192.236 52.0841 192.018 52.0099C191.754 51.9198 191.478 51.8753 191.199 51.8784C190.922 51.872 190.645 51.912 190.38 51.9968C190.177 52.0627 189.988 52.1665 189.822 52.3027C189.682 52.4134 189.57 52.5567 189.496 52.7203C189.431 52.8664 189.397 53.0242 189.395 53.1841C189.393 53.339 189.419 53.4929 189.473 53.6379C189.534 53.789 189.635 53.9208 189.763 54.0194C189.947 54.1591 190.151 54.2699 190.367 54.3483C190.698 54.4687 191.035 54.5676 191.379 54.6443C191.772 54.734 192.16 54.8516 192.537 54.9962C192.827 55.1069 193.099 55.2611 193.343 55.4534C193.544 55.6171 193.705 55.8253 193.813 56.0618C193.921 56.3115 193.975 56.5819 193.969 56.8544C193.982 57.1424 193.929 57.4296 193.813 57.6931C193.683 57.9519 193.495 58.177 193.265 58.3508C193.004 58.5432 192.711 58.6869 192.4 58.7751C191.619 58.9865 190.796 58.9763 190.021 58.7455C189.689 58.6395 189.38 58.4709 189.111 58.2489C188.874 58.0556 188.682 57.8119 188.55 57.5352C188.427 57.2728 188.364 56.9865 188.364 56.6966H189.186C189.192 56.9574 189.27 57.2113 189.411 57.43C189.538 57.622 189.707 57.7827 189.904 57.9003C190.106 58.021 190.326 58.1066 190.556 58.1535C190.789 58.2025 191.026 58.2279 191.264 58.2292C191.544 58.2344 191.822 58.1967 192.09 58.1173C192.305 58.0557 192.507 57.9554 192.687 57.8213C192.84 57.7088 192.967 57.5626 193.056 57.3938C193.131 57.2347 193.166 57.0599 193.16 56.884Z" fill="#868B95"/>
<path d="M196.749 49.4709V51.4443H198.054V52.102H196.749V56.8281C196.74 57.0325 196.764 57.237 196.821 57.4333C196.86 57.5661 196.929 57.6878 197.023 57.7885C197.105 57.8706 197.206 57.9296 197.317 57.9595C197.431 57.9889 197.548 58.0032 197.666 58.0022C197.781 58.003 197.895 57.9953 198.009 57.9792L198.302 57.9365L198.335 58.5942C198.213 58.6353 198.087 58.6629 197.96 58.6765C197.806 58.696 197.651 58.7059 197.496 58.7061C197.288 58.708 197.08 58.678 196.88 58.6173C196.694 58.5604 196.526 58.4549 196.394 58.3114C196.243 58.1467 196.132 57.95 196.067 57.7359C196.033 57.4381 196.04 57.1369 196.09 56.8413V52.102H194.785V51.4443H196.09V49.4709H196.749Z" fill="#868B95"/>
<path d="M202.13 58.6798C201.691 58.6853 201.256 58.5967 200.854 58.42C200.474 58.2516 200.133 58.0052 199.852 57.6964C199.565 57.3749 199.343 56.9994 199.2 56.5914C199.09 56.1315 199.037 55.6599 199.04 55.187V54.9173C199.032 54.4086 199.116 53.9027 199.288 53.4242C199.432 53.0055 199.653 52.6183 199.94 52.283C200.213 51.9745 200.546 51.7269 200.919 51.5561C201.282 51.3841 201.679 51.2964 202.081 51.2996C202.496 51.2907 202.908 51.3738 203.288 51.543C203.631 51.6982 203.934 51.9298 204.175 52.2205C204.423 52.5263 204.608 52.8784 204.72 53.2565C204.846 53.6833 204.908 54.1268 204.903 54.572V55.062H199.686V55.2002C199.723 55.5757 199.799 55.9461 199.914 56.3052C200.021 56.6337 200.19 56.9384 200.41 57.2031C200.619 57.4568 200.88 57.6631 201.174 57.8082C201.479 57.9567 201.814 58.0321 202.153 58.0286C202.534 58.0369 202.912 57.9582 203.259 57.7984C203.604 57.6247 203.904 57.3711 204.133 57.0584L204.622 57.4366C204.501 57.6108 204.365 57.7738 204.215 57.9233C204.054 58.081 203.873 58.216 203.676 58.3246C203.457 58.4444 203.224 58.5351 202.981 58.5943C202.702 58.6577 202.416 58.6864 202.13 58.6798ZM201.908 51.9837C201.624 51.9822 201.343 52.0405 201.082 52.1547C200.835 52.273 200.613 52.4395 200.43 52.6447C200.227 52.8674 200.066 53.1247 199.953 53.4045C199.824 53.7198 199.739 54.0519 199.702 54.3911H203.944V54.3056C203.936 54.0109 203.888 53.7187 203.8 53.4373C203.718 53.1695 203.589 52.9188 203.418 52.6974C203.249 52.4813 203.035 52.3041 202.792 52.1777C202.517 52.0414 202.214 51.9748 201.908 51.9837Z" fill="#868B95"/>
<path d="M206.952 51.4443L206.978 52.6217C207.093 52.4272 207.228 52.2463 207.383 52.0823C207.532 51.9193 207.705 51.7797 207.895 51.6679C208.088 51.5505 208.297 51.4618 208.515 51.4048C208.75 51.3401 208.993 51.308 209.236 51.3094C209.693 51.2959 210.145 51.4097 210.541 51.6383C210.924 51.8841 211.202 52.2654 211.321 52.7072C211.434 52.5059 211.57 52.3183 211.726 52.1481C211.883 51.9758 212.063 51.8264 212.261 51.7041C212.464 51.5763 212.683 51.4778 212.913 51.4114C213.167 51.3375 213.429 51.3009 213.693 51.3029C214.026 51.2959 214.357 51.3471 214.672 51.4542C214.947 51.5477 215.195 51.7107 215.39 51.9278C215.598 52.1662 215.75 52.4481 215.837 52.7533C215.949 53.1443 216.002 53.5501 215.993 53.957V58.6798H215.341V54.0129C215.349 53.6945 215.306 53.3768 215.214 53.0723C215.14 52.8484 215.015 52.6455 214.848 52.4803C214.689 52.3312 214.495 52.2259 214.284 52.1744C214.049 52.1159 213.808 52.0872 213.566 52.0889C213.258 52.0861 212.952 52.1477 212.669 52.2698C212.426 52.3757 212.205 52.525 212.016 52.7105C211.686 53.0431 211.477 53.4792 211.425 53.9471V58.6798H210.773V53.9537C210.781 53.6515 210.738 53.3501 210.646 53.0624C210.571 52.8442 210.444 52.6478 210.277 52.4901C210.116 52.3437 209.922 52.2377 209.713 52.181C209.475 52.1168 209.23 52.0858 208.985 52.0889C208.708 52.0831 208.432 52.1311 208.172 52.2303C207.947 52.3187 207.74 52.4468 207.559 52.6085C207.386 52.764 207.241 52.9474 207.128 53.1512C207.017 53.3495 206.926 53.5589 206.858 53.7761V58.6798H206.205V51.4443H206.952Z" fill="#868B95"/>
<path d="M48.29 24.3371C48.2916 18.7718 46.4008 13.374 42.9328 9.04353C39.4648 4.71303 34.6292 1.7114 29.2318 0.538925C14.1477 -2.72033 0 9.19519 0 24.7449V48.247C3.69528 50.3376 7.64349 51.9372 11.7462 53.006L11.9322 53.0521V52.9962C11.9322 45.3594 17.3975 39.183 24.1418 39.183C30.886 39.183 36.3513 45.3693 36.3513 52.9962V53.0521L36.5373 53.006C40.64 51.9372 44.5882 50.3376 48.2835 48.247V24.3371H48.29ZM24.0243 37.7918C22.2393 37.7918 20.4944 37.2583 19.0103 36.2587C17.5261 35.2591 16.3693 33.8383 15.6863 32.1761C15.0032 30.5138 14.8245 28.6847 15.1727 26.9201C15.5209 25.1554 16.3805 23.5345 17.6426 22.2623C18.9048 20.99 20.5129 20.1236 22.2636 19.7726C24.0143 19.4216 25.8289 19.6018 27.478 20.2903C29.1271 20.9788 30.5366 22.1448 31.5283 23.6408C32.52 25.1368 33.0493 26.8956 33.0493 28.6948C33.0493 31.1075 32.0985 33.4213 30.4059 35.1273C28.7134 36.8334 26.4179 37.7918 24.0243 37.7918Z" fill="#2CA656"/>
<path d="M33.5681 58.2654C27.3626 59.6631 20.9275 59.6631 14.7219 58.2654C13.668 58.0253 12.5782 57.749 11.4591 57.4201C7.46653 56.2512 3.62133 54.6212 0 52.5625V59.3375C1.27251 60.7978 9.89619 70 24.145 70C38.3938 70 47.0175 60.7912 48.29 59.3375V52.5625C44.6677 54.6214 40.8214 56.2515 36.8277 57.4201C35.7118 57.749 34.622 58.022 33.5681 58.2654Z" fill="#76B437"/>
</g>
<defs>
<clipPath id="clip0_2743_29226">
<rect width="216" height="70" fill="white"/>
</clipPath>
</defs>
</svg>
