<svg width="38" height="8" viewBox="0 0 38 8" fill="none" xmlns="http://www.w3.org/2000/svg">
<g id="Group">
<g id="Group_2">
<path id="Vector" fill-rule="evenodd" clip-rule="evenodd" d="M31.8149 6.15445L31.7291 6.08096C31.52 5.90242 31.4832 5.57689 31.6738 5.36778L33.9105 2.81133C34.0891 2.60223 34.4146 2.56548 34.6237 2.75605L34.7096 2.82987C34.9187 3.00808 34.9554 3.33394 34.7649 3.54272L32.5281 6.09917C32.3496 6.30828 32.0364 6.33267 31.8149 6.15445Z" fill="url(#paint0_linear_403_2642)"/>
<path id="Vector_2" opacity="0.4" fill-rule="evenodd" clip-rule="evenodd" d="M33.6097 3.25402L33.5665 3.20459L33.2224 3.59809L33.2592 3.64102C33.8494 4.23094 33.5974 4.82704 33.4621 5.03615L33.5112 4.98087C33.5912 4.88851 33.7141 4.74737 33.8429 4.59387C33.9782 4.36005 34.1688 3.80687 33.6097 3.25402Z" fill="url(#paint1_linear_403_2642)"/>
<path id="Vector_3" opacity="0.4" fill-rule="evenodd" clip-rule="evenodd" d="M34.347 4.02232L34.4393 3.91793C34.4455 3.90558 34.4576 3.89322 34.4637 3.88086C34.3655 3.99143 34.2611 4.1085 34.1626 4.22493C34.2364 4.14525 34.2979 4.07761 34.347 4.02232Z" fill="url(#paint2_radial_403_2642)"/>
<path id="Vector_4" fill-rule="evenodd" clip-rule="evenodd" d="M34.7776 2.89078L32.5402 0.334658C32.3619 0.125226 32.0361 0.0881521 31.8273 0.279373L31.7414 0.352545C31.5323 0.530758 31.4956 0.856614 31.6862 1.0654L33.5727 3.20395L33.6156 3.25338C34.175 3.81274 33.9844 4.36559 33.8433 4.59909C33.9538 4.46998 34.0644 4.34087 34.1688 4.22412C34.2673 4.10738 34.3717 3.99063 34.4699 3.88006C34.5685 3.76949 34.6605 3.66509 34.722 3.59713C34.9369 3.38834 34.9678 3.09956 34.7772 2.89078H34.7776Z" fill="url(#paint3_linear_403_2642)"/>
<g id="Group_3">
<path id="Vector_5" fill-rule="evenodd" clip-rule="evenodd" d="M34.6543 6.15445L34.5684 6.08096C34.3593 5.90242 34.3226 5.57689 34.5131 5.36778L36.7499 2.81133C36.9281 2.60223 37.254 2.56548 37.4627 2.75605L37.5489 2.82987C37.7577 3.00808 37.7948 3.33394 37.6042 3.54272L35.3671 6.09917C35.1889 6.30828 34.8757 6.33267 34.6543 6.15445Z" fill="url(#paint4_linear_403_2642)"/>
<path id="Vector_6" opacity="0.4" fill-rule="evenodd" clip-rule="evenodd" d="M36.4735 3.22928L36.4306 3.18018L36.0862 3.57368L36.1233 3.6166C36.7132 4.20653 36.4615 4.80263 36.3259 5.01174L36.3753 4.95645C36.455 4.86409 36.5779 4.72263 36.707 4.56913C36.8423 4.33563 37.0329 3.78213 36.4735 3.22928Z" fill="url(#paint5_linear_403_2642)"/>
<path id="Vector_7" opacity="0.4" fill-rule="evenodd" clip-rule="evenodd" d="M37.1801 4.02232L37.2725 3.91793C37.2783 3.90558 37.2907 3.89322 37.2969 3.88086C37.1987 3.99143 37.0943 4.1085 36.9957 4.22493C37.0695 4.14525 37.1372 4.07761 37.1801 4.02232Z" fill="url(#paint6_radial_403_2642)"/>
<path id="Vector_8" fill-rule="evenodd" clip-rule="evenodd" d="M37.6104 2.89078L35.3733 0.334658C35.1951 0.125226 34.8695 0.0881521 34.6604 0.279373L34.5746 0.352545C34.3655 0.531083 34.3287 0.856939 34.5193 1.06572L36.4058 3.20428L36.4487 3.25371C37.0081 3.81306 36.8175 4.36591 36.6764 4.59941C36.787 4.47031 36.8975 4.3412 37.0019 4.22445C37.1001 4.1077 37.2048 3.99095 37.3031 3.88038C37.4013 3.76981 37.4936 3.66542 37.5551 3.59745C37.7701 3.38867 37.8009 3.09956 37.6104 2.89078Z" fill="url(#paint7_linear_403_2642)"/>
</g>
</g>
<path id="Vector_9" fill-rule="evenodd" clip-rule="evenodd" d="M10.1887 0.131348C10.7725 0.131348 11.2886 0.260129 11.7188 0.505985C12.1552 0.764199 12.487 1.1268 12.7204 1.58762C12.9543 2.05494 13.071 2.60779 13.071 3.24097C13.071 3.92293 12.9357 4.51903 12.659 5.00456C12.3887 5.49627 11.9956 5.8527 11.4853 6.08034C11.7497 6.1662 11.9647 6.36295 12.1429 6.65173L12.4502 7.11255C12.5117 7.21726 12.5484 7.31548 12.5484 7.41987C12.5484 7.54897 12.4996 7.65955 12.3949 7.73955C12.2905 7.81955 12.1673 7.86865 12.0323 7.86865C11.9279 7.86865 11.8294 7.84394 11.7374 7.79483C11.6512 7.74572 11.5715 7.6719 11.5097 7.57987L11.006 6.74409C10.926 6.6088 10.8216 6.51027 10.6925 6.4488C10.5634 6.38734 10.3975 6.35059 10.1884 6.35059C9.59262 6.35059 9.08237 6.22148 8.64594 5.97563C8.20984 5.71774 7.87781 5.35513 7.64431 4.89399C7.41081 4.42082 7.29406 3.86764 7.29406 3.24097C7.29406 2.60779 7.41699 2.0608 7.64431 1.58762C7.87781 1.12062 8.21569 0.764199 8.64594 0.505985C9.08237 0.248097 9.59229 0.131348 10.189 0.131348H10.1887ZM24.9076 0.137201C25.0549 0.137201 25.1716 0.198991 25.276 0.327772L27.0399 2.51576L28.7973 0.327772C28.9014 0.204844 29.0308 0.14338 29.1782 0.14338C29.3073 0.14338 29.424 0.192812 29.5284 0.297203C29.6331 0.401594 29.6822 0.512164 29.6822 0.659808C29.6822 0.770378 29.6393 0.887127 29.5531 0.991518L27.5928 3.38211V5.77302C27.5928 5.95124 27.5437 6.0862 27.439 6.19091C27.3346 6.29498 27.2055 6.33823 27.0455 6.33823C26.8796 6.33823 26.7385 6.28913 26.6341 6.19091C26.5294 6.09238 26.4802 5.95742 26.4802 5.77302V3.38211L24.5323 0.985339C24.4461 0.881273 24.4032 0.770378 24.4032 0.653629C24.4032 0.518343 24.4523 0.395415 24.5567 0.291024C24.6614 0.186633 24.7843 0.137201 24.9069 0.137201H24.9076ZM16.9302 0.186633C17.5816 0.186633 18.0857 0.346309 18.4483 0.678019C18.8109 0.997697 18.9953 1.45851 18.9953 2.04258C18.9953 2.62633 18.8109 3.08715 18.4483 3.413C18.0857 3.74471 17.5816 3.90471 16.9302 3.90471H15.3878V5.76067C15.3878 5.93888 15.3387 6.07417 15.2343 6.17238C15.1296 6.27677 14.9946 6.32587 14.8223 6.32587C14.6564 6.32002 14.5153 6.27059 14.4229 6.16652C14.3185 6.06181 14.2694 5.92652 14.2694 5.75449V0.708914C14.2694 0.543059 14.3182 0.413952 14.4167 0.321918C14.5153 0.235739 14.6444 0.186633 14.8102 0.186633H16.9302ZM5.59161 0.137201C5.75746 0.137201 5.9051 0.186633 6.00332 0.291024C6.10803 0.395415 6.15714 0.524522 6.15714 0.690377V5.75449C6.15714 5.92034 6.10803 6.06181 6.00332 6.1662C5.89893 6.27059 5.76364 6.32002 5.59161 6.32002C5.43193 6.32002 5.29664 6.27059 5.19225 6.1662C5.08786 6.06181 5.03843 5.92652 5.03843 5.75449V0.690377C5.03843 0.524522 5.08786 0.395415 5.19225 0.291024C5.29664 0.186633 5.42575 0.137201 5.59161 0.137201ZM21.8652 0.131348C21.9882 0.131348 22.0987 0.161917 22.2035 0.217202C22.3075 0.278991 22.3875 0.364846 22.4428 0.481595L24.8337 5.60066C24.8581 5.68067 24.8767 5.74831 24.8767 5.82831C24.8767 5.95742 24.8214 6.06799 24.717 6.16652C24.6123 6.25238 24.4893 6.30148 24.3482 6.30148C24.262 6.30148 24.17 6.27677 24.09 6.22766C24.01 6.17856 23.9423 6.09856 23.8994 6.00002L23.3771 4.84489H20.3534L19.8311 6.00034C19.782 6.10473 19.7205 6.17856 19.6405 6.22766C19.5605 6.27677 19.4747 6.30148 19.3764 6.30148C19.2473 6.30148 19.1182 6.25238 19.0138 6.1662C18.9033 6.08034 18.8538 5.96327 18.8538 5.82798C18.8538 5.75449 18.8724 5.67449 18.9029 5.60066L21.2877 0.481595C21.3365 0.371025 21.4168 0.278666 21.5274 0.217202C21.6318 0.155738 21.742 0.131348 21.8652 0.131348ZM0.816603 0.14338C0.982459 0.14338 1.12978 0.192812 1.22831 0.297203C1.33271 0.401594 1.38181 0.530701 1.38181 0.696556V5.36099H3.79712C4.14119 5.36099 4.3194 5.51481 4.3194 5.81595C4.3194 6.11709 4.14119 6.27059 3.79712 6.27059H0.785709C0.619854 6.27059 0.490747 6.22181 0.398713 6.12945C0.312534 6.04327 0.263428 5.91416 0.263428 5.75449V0.696556C0.263428 0.530701 0.312534 0.401594 0.416925 0.297203C0.521641 0.192812 0.650748 0.14338 0.816603 0.14338ZM10.176 1.0042C9.61083 1.0042 9.1744 1.19477 8.86123 1.57591C8.54773 1.96291 8.38805 2.50373 8.38805 3.22894C8.38805 3.95415 8.54741 4.49496 8.86123 4.88196C9.1744 5.26928 9.61701 5.45985 10.1764 5.45985C10.7357 5.45985 11.1718 5.26928 11.4853 4.88196C11.7988 4.49496 11.9585 3.94211 11.9585 3.22894C11.9585 2.50373 11.7988 1.96291 11.4853 1.57591C11.1718 1.18859 10.7412 1.0042 10.176 1.0042ZM21.8652 1.42827L20.7283 3.98472H23.0083L21.8652 1.42827ZM16.7888 1.05298H15.3878V3.0504L16.7891 3.05658C17.5511 3.05658 17.9384 2.71836 17.9384 2.05494C17.9384 1.3912 17.5511 1.05331 16.7891 1.05331L16.7888 1.05298Z" fill="black"/>
</g>
<defs>
<linearGradient id="paint0_linear_403_2642" x1="72.5755" y1="271.302" x2="336.46" y2="119.154" gradientUnits="userSpaceOnUse">
<stop stop-color="#1FADC3"/>
<stop offset="0.7072" stop-color="#36B98F"/>
</linearGradient>
<linearGradient id="paint1_linear_403_2642" x1="69.8286" y1="72.9541" x2="96.9704" y2="50.2858" gradientUnits="userSpaceOnUse">
<stop stop-color="#123F06" stop-opacity="0"/>
<stop offset="1" stop-color="#123F06"/>
</linearGradient>
<radialGradient id="paint2_radial_403_2642" cx="0" cy="0" r="1" gradientUnits="userSpaceOnUse" gradientTransform="translate(-70.6732 43.7781) scale(149.845 149.804)">
<stop offset="0.4185" stop-color="#123F06" stop-opacity="0"/>
<stop offset="1" stop-color="#123F06"/>
</radialGradient>
<linearGradient id="paint3_linear_403_2642" x1="83.1872" y1="107.516" x2="321.021" y2="252.92" gradientUnits="userSpaceOnUse">
<stop stop-color="#9FDB57"/>
<stop offset="1" stop-color="#71CA5E"/>
</linearGradient>
<linearGradient id="paint4_linear_403_2642" x1="75.1864" y1="271.459" x2="339.067" y2="119.317" gradientUnits="userSpaceOnUse">
<stop stop-color="#1FADC3"/>
<stop offset="0.7072" stop-color="#36B98F"/>
</linearGradient>
<linearGradient id="paint5_linear_403_2642" x1="72.7061" y1="72.9297" x2="99.8498" y2="50.2513" gradientUnits="userSpaceOnUse">
<stop stop-color="#123F06" stop-opacity="0"/>
<stop offset="1" stop-color="#123F06"/>
</linearGradient>
<radialGradient id="paint6_radial_403_2642" cx="0" cy="0" r="1" gradientUnits="userSpaceOnUse" gradientTransform="translate(-67.5869 43.7781) scale(149.845 149.804)">
<stop offset="0.4185" stop-color="#123F06" stop-opacity="0"/>
<stop offset="1" stop-color="#123F06"/>
</radialGradient>
<linearGradient id="paint7_linear_403_2642" x1="86.1239" y1="107.635" x2="323.967" y2="253.034" gradientUnits="userSpaceOnUse">
<stop stop-color="#9FDB57"/>
<stop offset="1" stop-color="#71CA5E"/>
</linearGradient>
</defs>
</svg>
