<svg width="30" height="25" viewBox="0 0 30 25" fill="none" xmlns="http://www.w3.org/2000/svg">
<g clip-path="url(#clip0_1742_5711)">
<path d="M5.43727 24.2316V22.6853C5.43727 22.0939 5.07698 21.7066 4.45849 21.7066C4.14924 21.7066 3.81297 21.8086 3.58179 22.1449C3.40164 21.8627 3.14344 21.7066 2.75613 21.7066C2.49792 21.7066 2.23971 21.7846 2.03555 22.0668V21.7576H1.49512V24.2316H2.03555V22.8655C2.03555 22.4271 2.26673 22.22 2.62702 22.22C2.98731 22.22 3.16745 22.4511 3.16745 22.8655V24.2316H3.70789V22.8655C3.70789 22.4271 3.96609 22.22 4.29936 22.22C4.65965 22.22 4.83979 22.4511 4.83979 22.8655V24.2316H5.43727ZM13.4537 21.7576H12.577V21.01H12.0365V21.7576H11.5472V22.247H12.0365V23.3819C12.0365 23.9493 12.2677 24.2826 12.8862 24.2826C13.1174 24.2826 13.3756 24.2045 13.5558 24.1025L13.3996 23.6371C13.2435 23.7392 13.0634 23.7662 12.9343 23.7662C12.6761 23.7662 12.574 23.6101 12.574 23.3549V22.247H13.4507V21.7576H13.4537ZM18.0414 21.7035C17.7321 21.7035 17.5249 21.8597 17.3958 22.0638V21.7546H16.8554V24.2286H17.3958V22.8355C17.3958 22.4241 17.576 22.1899 17.9122 22.1899C18.0143 22.1899 18.1434 22.217 18.2485 22.241L18.4046 21.7246C18.2966 21.7035 18.1434 21.7035 18.0414 21.7035ZM11.1088 21.9618C10.8506 21.7816 10.4903 21.7035 10.103 21.7035C9.48451 21.7035 9.07318 22.0128 9.07318 22.5022C9.07318 22.9135 9.38243 23.1477 9.92286 23.2228L10.1811 23.2498C10.4633 23.3008 10.6194 23.3789 10.6194 23.508C10.6194 23.6881 10.4122 23.8172 10.052 23.8172C9.69167 23.8172 9.40644 23.6881 9.2263 23.559L8.96809 23.9704C9.25032 24.1775 9.63763 24.2796 10.0249 24.2796C10.7455 24.2796 11.1598 23.9433 11.1598 23.481C11.1598 23.0426 10.8236 22.8114 10.3102 22.7334L10.052 22.7064C9.82078 22.6793 9.64063 22.6283 9.64063 22.4752C9.64063 22.295 9.82078 22.1929 10.106 22.1929C10.4153 22.1929 10.7245 22.322 10.8806 22.4001L11.1088 21.9618ZM25.4873 21.7035C25.1781 21.7035 24.9709 21.8597 24.8418 22.0638V21.7546H24.3014V24.2286H24.8418V22.8355C24.8418 22.4241 25.0219 22.1899 25.3582 22.1899C25.4603 22.1899 25.5894 22.217 25.6945 22.241L25.8506 21.7306C25.7455 21.7035 25.5924 21.7035 25.4873 21.7035ZM18.5818 22.9946C18.5818 23.7422 19.0982 24.2826 19.8968 24.2826C20.2571 24.2826 20.5153 24.2045 20.7735 24.0004L20.5153 23.562C20.3082 23.7182 20.104 23.7932 19.8698 23.7932C19.4315 23.7932 19.1222 23.484 19.1222 22.9946C19.1222 22.5292 19.4315 22.22 19.8698 22.1959C20.101 22.1959 20.3082 22.274 20.5153 22.4271L20.7735 21.9888C20.5153 21.7816 20.2571 21.7066 19.8968 21.7066C19.0982 21.7035 18.5818 22.247 18.5818 22.9946ZM23.5808 22.9946V21.7576H23.0403V22.0668C22.8602 21.8357 22.602 21.7066 22.2657 21.7066C21.5692 21.7066 21.0287 22.247 21.0287 22.9946C21.0287 23.7422 21.5692 24.2826 22.2657 24.2826C22.626 24.2826 22.8842 24.1535 23.0403 23.9223V24.2316H23.5808V22.9946ZM21.5962 22.9946C21.5962 22.5562 21.8784 22.1959 22.3438 22.1959C22.7821 22.1959 23.0914 22.5322 23.0914 22.9946C23.0914 23.4329 22.7821 23.7932 22.3438 23.7932C21.8814 23.7662 21.5962 23.4299 21.5962 22.9946ZM15.129 21.7035C14.4084 21.7035 13.892 22.22 13.892 22.9916C13.892 23.7662 14.4084 24.2796 15.156 24.2796C15.5163 24.2796 15.8766 24.1775 16.1618 23.9433L15.9036 23.556C15.6965 23.7122 15.4383 23.8142 15.1831 23.8142C14.8468 23.8142 14.5135 23.6581 14.4355 23.2228H16.2639C16.2639 23.1447 16.2639 23.0937 16.2639 23.0156C16.2879 22.22 15.8226 21.7035 15.129 21.7035ZM15.129 22.1689C15.4653 22.1689 15.6965 22.3761 15.7475 22.7604H14.4595C14.5105 22.4271 14.7417 22.1689 15.129 22.1689ZM28.5558 22.9946V20.7788H28.0153V22.0668C27.8352 21.8357 27.577 21.7066 27.2407 21.7066C26.5442 21.7066 26.0037 22.247 26.0037 22.9946C26.0037 23.7422 26.5442 24.2826 27.2407 24.2826C27.601 24.2826 27.8592 24.1535 28.0153 23.9223V24.2316H28.5558V22.9946ZM26.5712 22.9946C26.5712 22.5562 26.8534 22.1959 27.3188 22.1959C27.7571 22.1959 28.0664 22.5322 28.0664 22.9946C28.0664 23.4329 27.7571 23.7932 27.3188 23.7932C26.8534 23.7662 26.5712 23.4299 26.5712 22.9946ZM8.4787 22.9946V21.7576H7.93827V22.0668C7.75813 21.8357 7.49992 21.7066 7.16365 21.7066C6.46709 21.7066 5.92666 22.247 5.92666 22.9946C5.92666 23.7422 6.46709 24.2826 7.16365 24.2826C7.52394 24.2826 7.78215 24.1535 7.93827 23.9223V24.2316H8.4787V22.9946ZM6.4701 22.9946C6.4701 22.5562 6.75232 22.1959 7.21769 22.1959C7.65604 22.1959 7.96529 22.5322 7.96529 22.9946C7.96529 23.4329 7.65604 23.7932 7.21769 23.7932C6.75232 23.7662 6.4701 23.4299 6.4701 22.9946Z" fill="black"/>
<path d="M19.0472 2.96826H10.9287V17.5539H19.0472V2.96826Z" fill="#FF5A00"/>
<path d="M11.4692 10.2613C11.4692 7.29794 12.8623 4.66783 15 2.96847C13.4267 1.73148 11.4422 0.983887 9.27742 0.983887C4.14932 0.983887 0 5.13321 0 10.2613C0 15.3894 4.14932 19.5387 9.27742 19.5387C11.4422 19.5387 13.4267 18.7911 15 17.5541C12.8593 15.8788 11.4692 13.2247 11.4692 10.2613Z" fill="#EB001B"/>
<path d="M30 10.2613C30 15.3894 25.8507 19.5387 20.7226 19.5387C18.5578 19.5387 16.5733 18.7911 15 17.5541C17.1647 15.8518 18.5308 13.2247 18.5308 10.2613C18.5308 7.29794 17.1377 4.66783 15 2.96847C16.5703 1.73148 18.5548 0.983887 20.7196 0.983887C25.8507 0.983887 30 5.16023 30 10.2613Z" fill="#F79E1B"/>
</g>
<defs>
<clipPath id="clip0_1742_5711">
<rect width="30" height="23.2986" fill="white" transform="translate(0 0.983887)"/>
</clipPath>
</defs>
</svg>
