<svg width="57" height="30" viewBox="0 0 57 30" fill="none" xmlns="http://www.w3.org/2000/svg">
<path fill-rule="evenodd" clip-rule="evenodd" d="M7.34513 2C4.39309 2 2 4.40155 2 7.36401V22.3832C2 25.3457 4.39309 27.7472 7.34513 27.7472H49.0371C51.9893 27.7472 54.3823 25.3457 54.3823 22.3832V7.36401C54.3823 4.40155 51.9893 2 49.0371 2H7.34513ZM45.6139 19.136H47.9681V13.6298C47.9681 12.4885 47.6036 11.6649 46.8744 11.159C46.1453 10.6531 45.206 10.4001 44.0568 10.4001C42.5121 10.4001 41.2083 10.8472 40.1455 11.7414L41.0352 13.2415C41.8015 12.5708 42.6726 12.2355 43.6489 12.2355C44.2421 12.2355 44.718 12.365 45.0764 12.6238C45.4347 12.8826 45.6139 13.2297 45.6139 13.665V14.8122C44.9961 14.118 44.0506 13.7709 42.7778 13.7709C41.9497 13.7709 41.2207 14.0004 40.5904 14.4592C39.9726 14.9181 39.6635 15.6063 39.6635 16.5241C39.6635 17.4064 39.9786 18.1006 40.6089 18.6065C41.2515 19.1007 41.9745 19.3478 42.7778 19.3478C44.026 19.3478 44.9713 18.983 45.6139 18.2536V19.136ZM45.6139 17.0888C45.2308 17.5829 44.6006 17.83 43.7231 17.83C43.2413 17.83 42.8396 17.7183 42.5183 17.4947C42.197 17.2712 42.0363 16.9653 42.0363 16.577C42.0363 16.177 42.197 15.8652 42.5183 15.6416C42.8396 15.4063 43.2413 15.2887 43.7231 15.2887C44.6006 15.2887 45.2308 15.5357 45.6139 16.0299V17.0888ZM36.978 19.3472C36.1499 19.3472 35.5197 19.1472 35.0872 18.7471C34.6546 18.3471 34.4384 17.7706 34.4384 17.0176V12.5703H32.9553V10.6113H34.4384V8.28174H36.811V10.6113H38.6278V12.5703H36.811V16.4176C36.811 16.6882 36.8852 16.9117 37.0336 17.0882C37.1819 17.2647 37.3794 17.353 37.6268 17.353C37.9974 17.353 38.2693 17.2706 38.4423 17.1058L38.9429 18.8001C38.5103 19.1648 37.8553 19.3472 36.978 19.3472ZM29.2858 19.136H31.6398V13.6298C31.6398 12.4885 31.2753 11.6649 30.5461 11.159C29.817 10.6531 28.8779 10.4001 27.7287 10.4001C26.1838 10.4001 24.8801 10.8472 23.8174 11.7414L24.7071 13.2415C25.4733 12.5708 26.3446 12.2355 27.3208 12.2355C27.914 12.2355 28.3897 12.365 28.7482 12.6238C29.1064 12.8826 29.2858 13.2297 29.2858 13.665V14.8122C28.6678 14.118 27.7225 13.7709 26.4495 13.7709C25.6216 13.7709 24.8925 14.0004 24.2623 14.4592C23.6443 14.9181 23.3354 15.6063 23.3354 16.5241C23.3354 17.4064 23.6505 18.1006 24.2807 18.6065C24.9232 19.1007 25.6462 19.3478 26.4495 19.3478C27.6977 19.3478 28.643 18.983 29.2858 18.2536V19.136ZM29.2858 17.0888C28.9027 17.5829 28.2723 17.83 27.395 17.83C26.913 17.83 26.5113 17.7183 26.19 17.4947C25.8687 17.2712 25.708 16.9653 25.708 16.577C25.708 16.177 25.8687 15.8652 26.19 15.6416C26.5113 15.4063 26.913 15.2887 27.395 15.2887C28.2723 15.2887 28.9027 15.5357 29.2858 16.0299V17.0888ZM21.5752 19.1354H19.221V7.36401H21.5752V19.1354ZM10.7684 18.0419C11.4851 18.9125 12.4058 19.3479 13.5304 19.3479C14.7044 19.3479 15.6559 18.9478 16.385 18.1478C17.1265 17.3478 17.4972 16.2536 17.4972 14.8652C17.4972 13.4769 17.1265 12.3886 16.385 11.6003C15.6559 10.8002 14.7044 10.4003 13.5304 10.4003C12.3934 10.4003 11.4728 10.8297 10.7684 11.6886V10.612H8.41415V22.3834H10.7684V18.0419ZM14.4201 16.6654C14.0123 17.1242 13.4686 17.3536 12.7889 17.3536C12.4181 17.3536 12.035 17.2595 11.6396 17.0712C11.2565 16.883 10.9661 16.6536 10.7684 16.383V13.3651C10.9661 13.0945 11.2565 12.8651 11.6396 12.6768C12.0227 12.4886 12.4058 12.3945 12.7889 12.3945C13.4686 12.3945 14.0123 12.6239 14.4201 13.0828C14.8403 13.5416 15.0504 14.1358 15.0504 14.8652C15.0504 15.6064 14.8403 16.2065 14.4201 16.6654Z" fill="black"/>
</svg>
