<svg width="40" height="10" viewBox="0 0 40 10" fill="none" xmlns="http://www.w3.org/2000/svg">
<g id="paypal 1" clip-path="url(#clip0_403_2662)">
<g id="Page-1">
<g id="pp_fc_hl">
<g id="pp_h_rgb">
<path id="Fill-1" fill-rule="evenodd" clip-rule="evenodd" d="M30.9629 4.42158C30.843 5.20867 30.2419 5.20867 29.6605 5.20867H29.3297L29.5617 3.73914C29.5757 3.65035 29.6523 3.58492 29.7423 3.58492H29.8939C30.2896 3.58492 30.6635 3.58492 30.8562 3.81039C30.9715 3.9453 31.0064 4.14525 30.9629 4.42158ZM30.7098 2.36816H28.517C28.3672 2.36816 28.2395 2.47725 28.2162 2.62537L27.3296 8.24774C27.312 8.35861 27.3977 8.45893 27.5101 8.45893H28.6351C28.7401 8.45893 28.8294 8.38255 28.8457 8.27888L29.0972 6.68499C29.1205 6.53688 29.2482 6.42778 29.398 6.42778H30.0919C31.5362 6.42778 32.3697 5.7288 32.5876 4.34353C32.6857 3.73766 32.5915 3.26159 32.3078 2.9283C31.996 2.56191 31.4434 2.36816 30.7098 2.36816Z" fill="#2790C3"/>
<path id="Fill-2" fill-rule="evenodd" clip-rule="evenodd" d="M15.3238 4.42158C15.204 5.20867 14.6028 5.20867 14.0215 5.20867H13.6907L13.9227 3.73914C13.9368 3.65035 14.0133 3.58492 14.1032 3.58492H14.2549C14.6506 3.58492 15.0245 3.58492 15.2172 3.81039C15.3326 3.9453 15.3675 4.14525 15.3238 4.42158ZM15.0708 2.36816H12.8781C12.7282 2.36816 12.6006 2.47725 12.5772 2.62537L11.6905 8.24774C11.673 8.35861 11.7588 8.45893 11.871 8.45893H12.918C13.0679 8.45893 13.1956 8.34983 13.2189 8.20182L13.4582 6.68499C13.4815 6.53688 13.6092 6.42778 13.7591 6.42778H14.4529C15.8971 6.42778 16.7307 5.7288 16.9486 4.34353C17.0467 3.73766 16.9526 3.26159 16.6689 2.9283C16.357 2.56191 15.8043 2.36816 15.0708 2.36816Z" fill="#27346A"/>
<path id="Fill-3" fill-rule="evenodd" clip-rule="evenodd" d="M20.1612 6.44025C20.0598 7.0402 19.5836 7.44296 18.9761 7.44296C18.6716 7.44296 18.4278 7.34501 18.2711 7.15954C18.1158 6.97565 18.0574 6.71372 18.1065 6.42202C18.2011 5.82749 18.685 5.41172 19.2832 5.41172C19.5814 5.41172 19.8234 5.51066 19.9833 5.6978C20.1441 5.88632 20.2073 6.15003 20.1612 6.44025ZM21.6244 4.39669H20.5745C20.4846 4.39669 20.408 4.46203 20.394 4.55102L20.3478 4.84459L20.2744 4.73816C20.047 4.40812 19.5403 4.29785 19.0343 4.29785C17.8743 4.29785 16.8834 5.17689 16.6905 6.4098C16.5901 7.02483 16.7326 7.61256 17.0814 8.02281C17.4017 8.39975 17.859 8.55663 18.4038 8.55663C19.3388 8.55663 19.8573 7.95599 19.8573 7.95599L19.8104 8.24779C19.7929 8.35875 19.8786 8.45917 19.9909 8.45917H20.9365C21.0864 8.45917 21.214 8.35018 21.2374 8.20206L21.805 4.60788C21.8225 4.49692 21.7368 4.39669 21.6244 4.39669Z" fill="#27346A"/>
<path id="Fill-4" fill-rule="evenodd" clip-rule="evenodd" d="M35.8002 6.44025C35.6988 7.0402 35.2226 7.44296 34.6152 7.44296C34.3106 7.44296 34.0669 7.34501 33.9101 7.15954C33.7548 6.97565 33.6964 6.71372 33.7456 6.42202C33.8401 5.82749 34.324 5.41172 34.9223 5.41172C35.2204 5.41172 35.4625 5.51066 35.6222 5.6978C35.7831 5.88632 35.8462 6.15003 35.8002 6.44025ZM37.2634 4.39669H36.2135C36.1236 4.39669 36.047 4.46203 36.033 4.55102L35.9868 4.84459L35.9134 4.73816C35.686 4.40812 35.1793 4.29785 34.6732 4.29785C33.5134 4.29785 32.5224 5.17689 32.3295 6.4098C32.2292 7.02483 32.3717 7.61256 32.7203 8.02281C33.0408 8.39975 33.498 8.55663 34.0427 8.55663C34.9778 8.55663 35.4963 7.95599 35.4963 7.95599L35.4495 8.24779C35.4319 8.35875 35.5176 8.45917 35.63 8.45917H36.5755C36.7254 8.45917 36.853 8.35018 36.8764 8.20206L37.444 4.60788C37.4615 4.49692 37.3758 4.39669 37.2634 4.39669Z" fill="#2790C3"/>
<g id="Group-10">
<g id="Mask group">
<mask id="mask0_403_2662" style="mask-type:luminance" maskUnits="userSpaceOnUse" x="0" y="0" width="40" height="10">
<g id="Group">
<path id="Vector" d="M0.00585938 9.87978H39.8772V0.20459H0.00585938V9.87978Z" fill="#27346A"/>
</g>
</mask>
<g mask="url(#mask0_403_2662)">
<path id="Fill-5" fill-rule="evenodd" clip-rule="evenodd" d="M27.2165 4.39648H26.1612C26.0603 4.39648 25.9659 4.44655 25.9092 4.53001L24.4535 6.67409L23.8365 4.61378C23.798 4.48488 23.6793 4.39648 23.5447 4.39648H22.5073C22.382 4.39648 22.2938 4.51967 22.3342 4.63822L23.4963 8.04911L22.4033 9.59136C22.3175 9.71237 22.4041 9.87981 22.5524 9.87981H23.6068C23.7067 9.87981 23.8002 9.83083 23.8572 9.74864L27.3668 4.68345C27.4508 4.56224 27.3641 4.39648 27.2165 4.39648Z" fill="#27346A"/>
</g>
</g>
<g id="Mask group_2">
<mask id="mask1_403_2662" style="mask-type:luminance" maskUnits="userSpaceOnUse" x="0" y="0" width="40" height="10">
<g id="Group_2">
<path id="Vector_2" d="M0.00585938 9.87978H39.8772V0.20459H0.00585938V9.87978Z" fill="#2790C3"/>
</g>
</mask>
<g mask="url(#mask1_403_2662)">
<path id="Fill-7" fill-rule="evenodd" clip-rule="evenodd" d="M38.5009 2.52259L37.601 8.24774C37.5836 8.3587 37.6693 8.45893 37.7816 8.45893H38.6867C38.8366 8.45893 38.9642 8.34983 38.9876 8.20182L39.8749 2.57945C39.8924 2.46848 39.8067 2.36816 39.6943 2.36816H38.6815C38.5915 2.36816 38.5149 2.4337 38.5009 2.52259Z" fill="#2790C3"/>
</g>
</g>
<g id="Mask group_3">
<mask id="mask2_403_2662" style="mask-type:luminance" maskUnits="userSpaceOnUse" x="0" y="0" width="40" height="10">
<g id="Group_3">
<path id="Vector_3" d="M0.00585938 9.87978H39.8772V0.20459H0.00585938V9.87978Z" fill="#27346A"/>
</g>
</mask>
<g mask="url(#mask2_403_2662)">
<path id="Fill-8" fill-rule="evenodd" clip-rule="evenodd" d="M4.15383 9.48139L4.44858 7.61235L4.4676 7.50878C4.48179 7.41871 4.52791 7.33633 4.59739 7.277C4.66686 7.21768 4.75545 7.18496 4.84681 7.18496H5.08085C5.471 7.18496 5.82941 7.14327 6.14624 7.06108C6.48425 6.97348 6.78492 6.83699 7.03976 6.65576C7.30998 6.4636 7.53693 6.21516 7.71441 5.91755C7.90165 5.60358 8.03912 5.22556 8.12308 4.79412C8.19729 4.41314 8.21118 4.07207 8.16457 3.78028C8.1152 3.47202 7.99645 3.209 7.81168 2.99831C7.69963 2.87069 7.55624 2.76012 7.38556 2.66966L7.38152 2.66749L7.38142 2.66256C7.44104 2.28227 7.43878 1.96505 7.37462 1.69198C7.31017 1.41832 7.1797 1.17205 6.97541 0.939281C6.55215 0.456995 5.78231 0.212402 4.68736 0.212402H1.68021C1.5797 0.212402 1.48214 0.248372 1.40566 0.313708C1.32919 0.379044 1.27854 0.469806 1.26277 0.56914L0.0106401 8.50932C-0.000791283 8.58175 0.020002 8.65537 0.0676985 8.71095C0.115395 8.76682 0.184772 8.79885 0.25809 8.79885H2.12367L2.122 8.80772L1.99389 9.62014C1.98403 9.68331 2.00217 9.74736 2.04365 9.79585C2.08514 9.84443 2.14555 9.87242 2.20941 9.87242H3.77413C3.86193 9.87242 3.94698 9.84098 4.0137 9.78392C4.08041 9.72686 4.12476 9.64773 4.13846 9.56111L4.15383 9.48139Z" fill="#27346A"/>
</g>
</g>
<g id="Mask group_4">
<mask id="mask3_403_2662" style="mask-type:luminance" maskUnits="userSpaceOnUse" x="0" y="0" width="40" height="10">
<g id="Group_4">
<path id="Vector_4" d="M0.00585938 9.87978H39.8772V0.20459H0.00585938V9.87978Z" fill="#27346A"/>
</g>
</mask>
<g mask="url(#mask3_403_2662)">
<path id="Fill-9" fill-rule="evenodd" clip-rule="evenodd" d="M3.0819 2.67269C3.10171 2.54684 3.18242 2.44386 3.29112 2.39173C3.34059 2.36808 3.39578 2.35487 3.45362 2.35487H5.81075C6.09003 2.35487 6.35039 2.3732 6.58848 2.41154C6.65648 2.42248 6.7226 2.43509 6.78696 2.44938C6.85131 2.46367 6.91369 2.47953 6.97409 2.49727C7.00435 2.50604 7.03401 2.51531 7.06328 2.52506C7.18015 2.56389 7.28895 2.60962 7.38907 2.66263C7.50713 1.91003 7.38829 1.39789 6.98119 0.934031C6.533 0.423363 5.72334 0.20459 4.68742 0.20459H1.68028C1.4686 0.20459 1.28836 0.358618 1.25535 0.567733L0.00321565 8.50792C-0.0215195 8.66461 0.0995941 8.80622 0.258155 8.80622H2.11457L3.0819 2.67269Z" fill="#27346A"/>
</g>
</g>
</g>
<path id="Fill-11" fill-rule="evenodd" clip-rule="evenodd" d="M7.38905 2.6626C7.38009 2.72005 7.37013 2.77849 7.35831 2.8387C6.96185 4.87477 5.60507 5.57869 3.87223 5.57869H2.98984C2.77816 5.57869 2.5994 5.73281 2.56639 5.94193L1.98644 9.61879C1.96486 9.75577 2.0708 9.87974 2.20945 9.87974H3.77427C3.95944 9.87974 4.11712 9.74503 4.14599 9.56203L4.16136 9.4825L4.45611 7.61328L4.47513 7.51C4.50401 7.327 4.66168 7.19229 4.84685 7.19229H5.0809C6.59684 7.19229 7.78383 6.57637 8.13071 4.79524C8.27558 4.05102 8.20068 3.42978 7.81743 2.99302C7.70154 2.86097 7.55727 2.75168 7.38905 2.6626Z" fill="#2790C3"/>
<path id="Fill-12" fill-rule="evenodd" clip-rule="evenodd" d="M6.97409 2.49738C6.91368 2.47964 6.8513 2.46378 6.78695 2.44949C6.7226 2.4352 6.65648 2.42258 6.58848 2.41164C6.35039 2.37331 6.09003 2.35498 5.81075 2.35498H3.45362C3.39577 2.35498 3.34059 2.36819 3.29112 2.39184C3.18242 2.44397 3.10171 2.54695 3.0819 2.67279L2.58089 5.84934L2.56641 5.94207C2.59942 5.73296 2.77818 5.57883 2.98986 5.57883H3.87224C5.60509 5.57883 6.96187 4.87491 7.35833 2.83884C7.37015 2.77863 7.3801 2.72019 7.38907 2.66274C7.28895 2.60972 7.18015 2.564 7.06328 2.52517C7.03401 2.51541 7.00435 2.50615 6.97409 2.49738Z" fill="#1F264F"/>
</g>
</g>
</g>
</g>
<defs>
<clipPath id="clip0_403_2662">
<rect width="40" height="9.7561" fill="white" transform="translate(0 0.12207)"/>
</clipPath>
</defs>
</svg>
