<svg width="40" height="13" viewBox="0 0 40 13" fill="none" xmlns="http://www.w3.org/2000/svg">
<path d="M6.1535 0.47998C9.5534 0.47998 12.307 3.23359 12.307 6.63349C12.307 10.0334 9.5534 12.787 6.1535 12.787C2.7536 12.787 0 10.0334 0 6.63349C0 3.23359 2.7536 0.47998 6.1535 0.47998Z" fill="url(#paint0_linear_1742_5710)"/>
<path d="M6.1535 0.47998C2.7536 0.47998 0 3.23359 0 6.63349C0 10.0334 2.75752 12.787 6.1535 12.787C9.5534 12.787 12.307 10.0334 12.307 6.63349C12.307 3.23359 9.5534 0.47998 6.1535 0.47998ZM6.1535 12.1094C3.12963 12.1094 0.67763 9.65736 0.67763 6.63349C0.67763 3.60961 3.12963 1.15761 6.1535 1.15761C9.17737 1.15761 11.6294 3.60961 11.6294 6.63349C11.6294 9.65736 9.17737 12.1094 6.1535 12.1094Z" fill="#8CBF5C"/>
<path d="M8.3019 5.23711L6.93097 7.27H8.3019V5.23711ZM8.81893 4.41455V7.27391H9.42214V7.79095H8.81893V8.86027H8.29798V7.79095H6.3591V7.23474L8.31365 4.41847L8.81893 4.41455ZM5.78723 8.33932V8.85636H2.88086V8.84069C2.90828 8.35499 3.03362 7.99855 3.27647 7.70478C3.47232 7.46193 3.71125 7.28175 4.20087 6.97623C4.20087 6.97623 4.37321 6.86655 4.42413 6.83522C4.68657 6.66679 4.85499 6.53361 4.99209 6.38085C5.16052 6.18501 5.24669 5.97349 5.24669 5.72281C5.24669 5.23711 4.902 4.90417 4.40846 4.90417C3.83267 4.90417 3.5389 5.34286 3.52324 5.99699V6.00874H3.0062V5.99699L3.00228 5.87948C3.00228 5.00209 3.57416 4.41455 4.43588 4.41455C5.27802 4.41455 5.82639 4.92375 5.82639 5.71106C5.82639 6.1145 5.68147 6.43961 5.40336 6.72554C5.19577 6.94489 4.98034 7.08982 4.49855 7.38359C4.49072 7.3875 4.4868 7.39142 4.47897 7.39534C4.45547 7.40709 4.34971 7.46976 4.32229 7.48934C4.09119 7.62644 3.95018 7.72436 3.82484 7.84187C3.67208 7.98679 3.57024 8.14739 3.52324 8.3354H5.78723V8.33932Z" fill="white"/>
<path d="M15.4873 4.15479H17.5359C18.0451 4.15479 18.4446 4.27621 18.7384 4.51514C19.0321 4.75799 19.181 5.11443 19.181 5.5923C19.181 6.04275 19.0439 6.39919 18.7697 6.66162C18.4955 6.92406 18.1234 7.05723 17.6495 7.05723H16.3177V8.87469H15.4873V4.15479ZM16.3177 4.84808V6.39527H17.4732C18.0764 6.39527 18.3741 6.13675 18.3741 5.61972C18.3741 5.1066 18.049 4.852 17.3988 4.852H16.3177V4.84808Z" fill="#0D0E0F"/>
<path d="M21.6402 5.38823V6.11286C21.5071 6.10111 21.4209 6.09328 21.3739 6.09328C20.7158 6.09328 20.3868 6.52022 20.3868 7.37411V8.87821H19.6387V5.45481H20.3476V6.13636C20.5905 5.62716 20.9743 5.37256 21.4953 5.37256L21.6402 5.38823Z" fill="#0D0E0F"/>
<path d="M22.8751 4.13525V4.87947H22.1191V4.13525H22.8751ZM22.8751 5.45526V8.87866H22.1191V5.45526H22.8751Z" fill="#0D0E0F"/>
<path d="M23.4102 5.45361H24.2327L25.1101 8.08579L25.9522 5.45361H26.7356L25.5096 8.88485H24.6597L23.4102 5.45361Z" fill="#0D0E0F"/>
<path d="M26.9945 6.51244C27.0729 5.73689 27.5743 5.35303 28.4947 5.35303C28.9217 5.35303 29.2664 5.43528 29.521 5.60371C29.7756 5.77214 29.9009 6.03457 29.9009 6.3871V8.1223C29.9009 8.22022 29.9127 8.28681 29.9362 8.32206C29.9597 8.35732 30.0067 8.3769 30.0772 8.3769C30.132 8.3769 30.1868 8.37299 30.2495 8.36515V8.89785C30.0537 8.94486 29.8931 8.97228 29.7599 8.97228C29.4387 8.97228 29.2507 8.83518 29.2037 8.561C28.9178 8.83518 28.5143 8.97228 28.0012 8.97228C27.6487 8.97228 27.3667 8.88219 27.1591 8.69809C26.9515 8.51399 26.8457 8.26723 26.8457 7.94996C26.8457 7.85203 26.8575 7.76194 26.877 7.67969C26.9005 7.59743 26.924 7.52301 26.9554 7.46034C26.9828 7.39767 27.0298 7.34283 27.0964 7.28799C27.1591 7.23316 27.2139 7.19007 27.257 7.15482C27.3001 7.11956 27.3667 7.08823 27.4646 7.05689C27.5586 7.02556 27.6291 7.00206 27.6761 6.98639C27.7231 6.97072 27.8014 6.95505 27.9189 6.93547C28.0325 6.9198 28.1109 6.90413 28.1461 6.90022C28.1853 6.89238 28.2636 6.88455 28.3811 6.86888C28.6514 6.83363 28.8355 6.80229 28.9334 6.77879C29.0313 6.75529 29.0979 6.71612 29.1332 6.66912C29.1645 6.63387 29.1802 6.55161 29.1802 6.42235C29.1802 6.07766 28.9452 5.90532 28.4751 5.90532C28.2284 5.90532 28.0482 5.95232 27.9307 6.04633C27.8171 6.14033 27.7427 6.29701 27.7113 6.51636H26.9945V6.51244ZM29.1684 7.16265C29.1097 7.19399 29.0431 7.22141 28.9687 7.24491C28.8943 7.26841 28.8316 7.28408 28.7846 7.29191C28.7376 7.29974 28.6671 7.30758 28.5652 7.32325C28.4673 7.335 28.4007 7.34675 28.3694 7.35066C28.2754 7.36241 28.2049 7.37808 28.15 7.38592C28.0952 7.39767 28.0325 7.41725 27.9542 7.44075C27.8759 7.46817 27.8171 7.49951 27.774 7.53868C27.7309 7.57785 27.6957 7.62877 27.6643 7.69144C27.633 7.75411 27.6173 7.83245 27.6173 7.91862C27.6173 8.08313 27.6722 8.20847 27.7779 8.29465C27.8876 8.38474 28.0364 8.42782 28.2323 8.42782C28.5692 8.42782 28.8277 8.33773 29.0078 8.15755C29.1097 8.05571 29.1606 7.85987 29.1606 7.5661V7.16265H29.1684Z" fill="#0D0E0F"/>
<path d="M32.4191 5.45447V6.00676H31.7297V7.80855C31.7297 7.91431 31.7336 7.98873 31.7375 8.03182C31.7414 8.0749 31.7532 8.1219 31.7767 8.17282C31.8002 8.22375 31.8394 8.259 31.8942 8.27467C31.949 8.29425 32.0274 8.30208 32.1214 8.30208C32.2467 8.30208 32.3447 8.29817 32.4191 8.29033V8.88571C32.2702 8.90138 32.0979 8.91313 31.9099 8.91313C31.7767 8.91313 31.6592 8.90138 31.5613 8.88179C31.4633 8.86221 31.3772 8.8387 31.3106 8.81129C31.244 8.78387 31.1892 8.74078 31.1461 8.67419C31.103 8.61152 31.0677 8.55669 31.0442 8.5136C31.0207 8.47051 31.0011 8.39609 30.9894 8.29033C30.9776 8.18458 30.9737 8.10232 30.9737 8.04748C30.9737 7.99265 30.9737 7.89472 30.9737 7.75763C30.9737 7.74196 30.9737 7.72629 30.9737 7.71454C30.9737 7.70279 30.9737 7.69104 30.9737 7.67537C30.9737 7.65971 30.9737 7.64404 30.9737 7.63229V6.00676H30.4019V5.45447H30.9737V4.42432H31.7297V5.45447H32.4191Z" fill="#0D0E0F"/>
<path d="M36.3973 8.20678V8.87657H33.2285C33.2324 8.66897 33.2599 8.47705 33.3147 8.3047C33.3695 8.13235 33.4283 7.98351 33.4988 7.86209C33.5654 7.74066 33.6672 7.61532 33.8043 7.48998C33.9375 7.36463 34.0589 7.25888 34.1686 7.17662C34.2783 7.09437 34.4271 6.98861 34.6151 6.86327C34.6269 6.85543 34.6934 6.81235 34.811 6.73401C34.9285 6.65567 34.999 6.60867 35.0264 6.58908C35.0538 6.5695 35.1126 6.52249 35.2066 6.44807C35.3006 6.37365 35.3593 6.3149 35.3907 6.27181C35.4181 6.22872 35.4573 6.16605 35.5082 6.09163C35.5591 6.01721 35.5943 5.93887 35.61 5.86445C35.6257 5.78611 35.6374 5.70385 35.6374 5.61768C35.6374 5.37483 35.5708 5.1829 35.4338 5.04581C35.3006 4.9048 35.1165 4.83821 34.8854 4.83821C34.7522 4.83821 34.6386 4.8578 34.5407 4.90088C34.4428 4.94397 34.3683 4.9988 34.3135 5.06148C34.2587 5.12806 34.2117 5.21424 34.1764 5.31608C34.1412 5.42183 34.1177 5.51976 34.1059 5.60985C34.0942 5.70385 34.0863 5.80961 34.0824 5.93495H33.346V5.81745C33.346 5.31608 33.487 4.92047 33.7691 4.6267C34.0511 4.33293 34.431 4.18408 34.905 4.18408C35.3554 4.18408 35.7197 4.30942 35.9939 4.56402C36.2681 4.81863 36.4052 5.15548 36.4052 5.57459C36.4052 5.74302 36.3777 5.90362 36.3268 6.05246C36.272 6.2013 36.2171 6.32273 36.1584 6.41674C36.0996 6.51074 35.9939 6.6165 35.8489 6.74184C35.704 6.86718 35.5943 6.95336 35.5238 7.00036C35.4533 7.04736 35.3241 7.13745 35.1321 7.26671C34.5799 7.62315 34.2469 7.93651 34.1372 8.20286H36.3973V8.20678Z" fill="#0D0E0F"/>
<path d="M40.0002 7.14035V7.77881H39.4087V8.87947H38.6802L38.6724 7.77881H36.7021V7.03068L38.6919 4.19873H39.4087V7.14427L40.0002 7.14035ZM38.6841 7.14035V5.13096L37.3249 7.14035H38.6841Z" fill="#0D0E0F"/>
<defs>
<linearGradient id="paint0_linear_1742_5710" x1="0" y1="6.63349" x2="12.307" y2="6.63349" gradientUnits="userSpaceOnUse">
<stop stop-color="#313131"/>
<stop offset="1" stop-color="#0E0F0F"/>
</linearGradient>
</defs>
</svg>
