<svg width="34" height="15" viewBox="0 0 34 15" fill="none" xmlns="http://www.w3.org/2000/svg">
<g id="skrill 1" clip-path="url(#clip0_1329_5014)">
<path id="Vector" d="M27.0384 2.42842L29.8637 1.85476V14.2226H27.0384V2.42842ZM31.1627 2.42842V14.2157H33.988V1.85476L31.1627 2.42842ZM23.0218 14.2157H25.8472V5.17379H23.0218V14.2157ZM4.35177 6.45086C3.99261 6.42354 3.16655 6.36208 3.16655 5.51525C3.16655 4.49086 4.35775 4.49086 4.80071 4.49086C5.58486 4.49086 6.60247 4.7572 7.32677 5.00305C7.32677 5.00305 7.73381 5.16696 8.07501 5.33086L8.10494 5.33769V2.53769L8.06303 2.52403C7.20705 2.18257 6.21339 1.85476 4.36374 1.85476C1.17923 1.85476 0.0538788 3.97184 0.0538788 5.78159C0.0538788 6.82647 0.448949 9.28501 4.09437 9.57183C4.40564 9.59232 5.22571 9.64696 5.22571 10.5279C5.22571 11.2518 4.55529 11.6821 3.42395 11.6821C2.18486 11.6821 0.987682 11.3201 0.2574 10.9787V13.8674C1.34684 14.1952 2.57993 14.3592 4.02254 14.3592C7.13522 14.3592 8.52994 12.3582 8.52994 10.3709C8.52994 8.1172 6.9736 6.65574 4.35177 6.45086ZM21.4296 5.04403C18.8197 5.13964 17.4968 6.47818 17.4968 9.13476V14.2226H20.3461V10.0704C20.3461 8.47915 20.5257 7.79623 22.1838 7.73476V5.08501C21.8965 5.02354 21.4296 5.04403 21.4296 5.04403ZM13.7676 5.16696C13.7078 5.34452 13.2528 6.80598 12.1574 8.31525V1.85476L9.24226 2.51037V14.2157H12.1574V10.5962C13.0014 12.044 13.4204 14.2157 13.4204 14.2157H16.9102C16.563 12.5767 15.0546 9.55818 15.0546 9.55818C16.4074 7.59818 17.006 5.50842 17.1018 5.16013H13.7676V5.16696ZM24.4285 4.30647C25.1947 4.30647 25.8232 3.59622 25.8232 2.72208C25.8232 1.84793 25.2007 1.13086 24.4285 1.13086C23.6623 1.13086 23.0398 1.8411 23.0398 2.72208C23.0398 3.59622 23.6623 4.30647 24.4285 4.30647Z" fill="url(#paint0_linear_1329_5014)"/>
</g>
<defs>
<linearGradient id="paint0_linear_1329_5014" x1="0.0598666" y1="7.74073" x2="33.9899" y2="7.74073" gradientUnits="userSpaceOnUse">
<stop stop-color="#872166"/>
<stop offset="1" stop-color="#4F2455"/>
</linearGradient>
<clipPath id="clip0_1329_5014">
<rect width="34" height="14" fill="white" transform="translate(0 0.742188)"/>
</clipPath>
</defs>
</svg>
