<svg width="44" height="9" viewBox="0 0 44 9" fill="none" xmlns="http://www.w3.org/2000/svg">
<g clip-path="url(#clip0_1750_16420)">
<path d="M2.1791 8.47338V8.8904H2.01367V7.66715H2.18047V7.77139C2.22039 7.72991 2.26748 7.696 2.31948 7.67131C2.37227 7.64907 2.429 7.63772 2.48628 7.63795C2.55067 7.63582 2.61481 7.64707 2.67463 7.671C2.73444 7.69493 2.78865 7.73101 2.8338 7.77696C2.87941 7.82237 2.91526 7.87661 2.93916 7.93637C2.96307 7.99612 2.97451 8.06013 2.9728 8.12446C2.97325 8.18776 2.96145 8.25054 2.93805 8.30934C2.91572 8.3668 2.88216 8.41924 2.83935 8.46359C2.79727 8.51086 2.74499 8.54794 2.68646 8.57201C2.62693 8.59627 2.56306 8.60809 2.49879 8.60676C2.43879 8.60724 2.37927 8.59591 2.32364 8.5734C2.26838 8.54889 2.21836 8.51398 2.17629 8.47057M2.17629 8.11472C2.17521 8.15779 2.18277 8.20065 2.19852 8.24076C2.21428 8.28086 2.23791 8.31741 2.26803 8.34823C2.29546 8.37931 2.32929 8.4041 2.3672 8.42089C2.40511 8.43768 2.4462 8.44609 2.48765 8.44553C2.52946 8.44535 2.57081 8.43693 2.60936 8.42077C2.64792 8.4046 2.6829 8.381 2.71233 8.35131C2.74176 8.32162 2.76506 8.28643 2.78089 8.24774C2.79671 8.20905 2.80477 8.16762 2.80458 8.12581C2.80536 8.08244 2.79753 8.03935 2.78155 7.99903C2.76556 7.9587 2.74174 7.92195 2.71146 7.89089C2.68243 7.86051 2.64745 7.83644 2.6087 7.82018C2.56996 7.80392 2.52828 7.79581 2.48626 7.79637C2.44545 7.79647 2.4051 7.80505 2.36777 7.82156C2.33044 7.83807 2.29695 7.86215 2.26942 7.89228C2.23957 7.92106 2.21591 7.95563 2.1999 7.99388C2.18388 8.03212 2.17585 8.07323 2.17629 8.11469" fill="#3792D0"/>
<path d="M5.93807 8.58608V8.46654C5.89887 8.50884 5.85161 8.54287 5.79906 8.56663C5.74665 8.59021 5.68972 8.60207 5.63226 8.60138C5.56813 8.60307 5.50434 8.59161 5.44481 8.5677C5.38528 8.5438 5.33128 8.50796 5.28613 8.46239C5.24061 8.41663 5.20482 8.36212 5.18093 8.30216C5.15704 8.2422 5.14554 8.17802 5.14712 8.11349C5.14656 8.05019 5.15836 7.98739 5.18186 7.92861C5.20357 7.87156 5.23668 7.81953 5.27917 7.7757C5.32231 7.72962 5.37431 7.69275 5.43206 7.66728C5.49208 7.64298 5.5564 7.63112 5.62114 7.63242C5.68115 7.63194 5.74066 7.64328 5.79629 7.66578C5.84892 7.69 5.89619 7.7245 5.93531 7.76724V7.65603H6.1035V8.58043L5.93807 8.58608ZM5.31681 8.11763C5.31555 8.16106 5.32316 8.20429 5.33917 8.24468C5.35518 8.28507 5.37926 8.32178 5.40993 8.35255C5.43878 8.38363 5.47389 8.40825 5.51295 8.42478C5.55201 8.44132 5.59412 8.44939 5.63652 8.44846C5.67713 8.44834 5.71727 8.43975 5.75438 8.42324C5.79148 8.40672 5.82473 8.38265 5.85199 8.35255C5.88208 8.32359 5.90596 8.28882 5.92221 8.25035C5.93846 8.21187 5.94672 8.17051 5.94651 8.12875C5.94739 8.08578 5.93959 8.04308 5.92359 8.00319C5.90759 7.96331 5.88371 7.92706 5.85338 7.89661C5.82562 7.86556 5.79153 7.84081 5.75341 7.82403C5.71529 7.80725 5.67401 7.79882 5.63236 7.79931C5.59069 7.7993 5.54943 7.80756 5.51097 7.82359C5.4725 7.83962 5.43759 7.86311 5.40826 7.89271C5.37892 7.9223 5.35573 7.95742 5.34004 7.99602C5.32435 8.03463 5.31646 8.07596 5.31683 8.11763" fill="#3792D0"/>
<path d="M8.27051 7.66162H8.44842L8.69862 8.3497L8.96829 7.66162H9.14762L8.64999 8.88487H8.47484L8.60273 8.55958L8.27051 7.66162Z" fill="#3792D0"/>
<path d="M11.8777 8.11899C11.8836 8.03456 11.8668 7.9501 11.8291 7.87434C11.8133 7.84884 11.7908 7.82813 11.7641 7.81442C11.7374 7.80071 11.7075 7.79452 11.6776 7.79651C11.6469 7.79454 11.6162 7.80069 11.5886 7.81436C11.561 7.82802 11.5375 7.84871 11.5205 7.87434C11.4809 7.94702 11.463 8.02957 11.4691 8.11213V8.58613H11.3105V7.66174H11.4593V7.77151C11.4866 7.733 11.5222 7.70116 11.5636 7.67838C11.6065 7.6563 11.6544 7.64577 11.7026 7.64781C11.7611 7.64567 11.8191 7.6591 11.8708 7.68674C11.9186 7.71514 11.9569 7.75727 11.9806 7.80767C12.005 7.75688 12.0442 7.7147 12.0932 7.68674C12.1468 7.65913 12.2066 7.64573 12.2669 7.64781C12.3135 7.64564 12.36 7.65359 12.4032 7.6711C12.4464 7.68862 12.4853 7.7153 12.5171 7.74929C12.5837 7.82606 12.6177 7.92584 12.6117 8.0273V8.59305H12.4449V8.04949C12.4489 7.98407 12.4302 7.91927 12.392 7.866C12.3758 7.84469 12.3547 7.82753 12.3306 7.81593C12.3064 7.80433 12.2798 7.79862 12.253 7.79927C12.2232 7.79666 12.1931 7.80181 12.1659 7.81423C12.1386 7.82665 12.115 7.84592 12.0973 7.87016C12.0597 7.94242 12.0433 8.02388 12.0501 8.10508V8.58881H11.8888L11.8777 8.11899Z" fill="#3792D0"/>
<path d="M14.99 8.1887C15.0012 8.26171 15.0381 8.3283 15.0942 8.37636C15.1422 8.41657 15.2012 8.44129 15.2635 8.44724C15.3258 8.4532 15.3884 8.44011 15.4431 8.40972C15.4885 8.38236 15.5259 8.34353 15.5516 8.29712H15.7378C15.7022 8.39123 15.6405 8.47322 15.5599 8.53343C15.4818 8.58795 15.3883 8.61618 15.293 8.61405C15.2287 8.61457 15.1649 8.60228 15.1054 8.57791C15.0468 8.55317 14.9942 8.5162 14.9511 8.46949C14.9076 8.42374 14.8736 8.36987 14.851 8.31096C14.8264 8.25292 14.8136 8.19053 14.8135 8.12747C14.813 8.06476 14.8243 8.00251 14.8469 7.94398C14.8699 7.88688 14.9034 7.83457 14.9456 7.78974C14.9889 7.74183 15.0413 7.70307 15.0998 7.67575C15.1596 7.65038 15.2239 7.63761 15.2888 7.63821C15.3679 7.63731 15.4458 7.65647 15.5154 7.69391C15.5851 7.7322 15.6447 7.78654 15.6892 7.85244C15.7154 7.89584 15.7355 7.94261 15.749 7.99146C15.7619 8.04845 15.768 8.10678 15.767 8.16522V8.18878L14.99 8.1887ZM15.5849 8.03857C15.5687 7.96991 15.5312 7.90814 15.4778 7.86204C15.4246 7.82056 15.359 7.79804 15.2916 7.79804C15.2241 7.79804 15.1585 7.82056 15.1053 7.86204C15.0504 7.90615 15.0118 7.96728 14.9955 8.03578L15.5849 8.03857Z" fill="#3792D0"/>
<path d="M18.1439 8.58622H17.9785V7.66183H18.1384V7.77164C18.1691 7.73338 18.2081 7.7025 18.2523 7.6813C18.296 7.6617 18.3435 7.65174 18.3914 7.6521C18.4427 7.6488 18.4941 7.65667 18.5421 7.67516C18.5901 7.69365 18.6335 7.72233 18.6694 7.75921C18.7394 7.8446 18.7742 7.95347 18.7667 8.06363V8.59186H18.6041V8.10127C18.6095 8.02442 18.59 7.94787 18.5484 7.88304C18.5281 7.85856 18.5022 7.83933 18.473 7.82699C18.4437 7.81465 18.4118 7.80956 18.3802 7.81215C18.3454 7.80936 18.3105 7.81557 18.2789 7.83018C18.2472 7.84478 18.2199 7.8673 18.1995 7.89555C18.1558 7.98136 18.1365 8.07753 18.1438 8.17355L18.1439 8.58622Z" fill="#3792D0"/>
<path d="M21.0866 8.58597V7.8117H20.9546V7.66157H21.0866V7.36133H21.252V7.66157H21.3827V7.8117H21.252V8.58597H21.0866Z" fill="#3792D0"/>
<path d="M26.2494 8.18873C26.257 8.23765 26.2763 8.28401 26.3058 8.32385C26.3352 8.36369 26.3738 8.39583 26.4183 8.41754C26.4628 8.43925 26.5119 8.44987 26.5614 8.44852C26.6109 8.44716 26.6593 8.43386 26.7025 8.40975C26.7482 8.38277 26.7857 8.34384 26.811 8.29715H26.9986C26.9621 8.3911 26.8999 8.47295 26.8193 8.53347C26.7412 8.58798 26.6477 8.61621 26.5524 8.61408C26.4885 8.61471 26.4252 8.60241 26.3662 8.57794C26.3076 8.5532 26.255 8.51623 26.2119 8.46952C26.1685 8.42347 26.1341 8.3697 26.1104 8.31099C26.0641 8.19305 26.0641 8.06195 26.1104 7.94402C26.1329 7.88697 26.1659 7.83466 26.2077 7.78977C26.2791 7.71307 26.3738 7.66209 26.4771 7.64475C26.5804 7.6274 26.6866 7.64467 26.779 7.69386C26.8363 7.72428 26.8865 7.76634 26.9264 7.81734C26.9664 7.86833 26.9953 7.92713 27.0112 7.98995C27.0246 8.04688 27.0311 8.10522 27.0307 8.16371V8.18873H26.2494ZM26.8457 8.0386C26.829 7.96981 26.7911 7.90804 26.7373 7.86207C26.6856 7.81988 26.6205 7.79768 26.5538 7.79952C26.4851 7.79859 26.4182 7.8217 26.3648 7.86486C26.3103 7.90932 26.2717 7.97031 26.255 8.03862L26.8457 8.0386Z" fill="#3792D0"/>
<path d="M29.4021 8.58615H29.2354V7.66175H29.3952V7.77157C29.4257 7.73289 29.4648 7.70191 29.5095 7.68115C29.5542 7.66038 29.6031 7.65041 29.6523 7.65203C29.7036 7.64891 29.755 7.65686 29.8029 7.67534C29.8509 7.69383 29.8944 7.7224 29.9303 7.75914C29.9998 7.8448 30.0345 7.95347 30.0276 8.06356V8.59178H29.8636V8.1012C29.8695 8.02451 29.8505 7.94798 29.8094 7.88297C29.789 7.85858 29.7631 7.83941 29.7339 7.82708C29.7046 7.81475 29.6728 7.8096 29.6412 7.81208C29.6064 7.80915 29.5715 7.8153 29.5398 7.82992C29.5081 7.84454 29.4808 7.86713 29.4605 7.89548C29.4161 7.98105 29.3968 8.07742 29.4048 8.17348L29.4021 8.58615Z" fill="#3792D0"/>
<path d="M32.3018 8.65976H32.4784C32.5027 8.70123 32.5377 8.73534 32.5799 8.75845C32.6227 8.78113 32.6704 8.79306 32.7189 8.7932C32.7605 8.79487 32.802 8.7881 32.841 8.77328C32.8799 8.75847 32.9155 8.73593 32.9455 8.70702C32.9742 8.67778 32.9965 8.64293 33.0111 8.60466C33.0257 8.56639 33.0322 8.52552 33.0303 8.4846V8.46652C32.9912 8.50894 32.9439 8.54299 32.8912 8.56661C32.8383 8.5901 32.781 8.60195 32.7231 8.60136C32.6589 8.60304 32.5951 8.59158 32.5356 8.56767C32.4761 8.54376 32.4221 8.50792 32.3769 8.46234C32.3314 8.41658 32.2956 8.36207 32.2717 8.30211C32.2479 8.24214 32.2364 8.17796 32.2379 8.11343C32.2374 8.05014 32.2492 7.98734 32.2727 7.92857C32.2944 7.87118 32.328 7.81905 32.3714 7.77566C32.414 7.72962 32.4656 7.69273 32.5229 7.66723C32.5829 7.64296 32.6472 7.63111 32.7119 7.63242C32.7719 7.63194 32.8314 7.64328 32.8871 7.66578C32.9421 7.68938 32.9918 7.72395 33.033 7.76739V7.65618H33.1998V8.42766C33.2078 8.5646 33.163 8.6994 33.0747 8.80436C33.0308 8.85117 32.9772 8.88786 32.9176 8.91187C32.8581 8.93587 32.7941 8.94662 32.73 8.94337C32.6341 8.9462 32.5397 8.92007 32.4589 8.86839C32.3834 8.8179 32.3271 8.74348 32.299 8.6571M32.4102 8.11497C32.4093 8.15836 32.4171 8.2015 32.4331 8.24185C32.449 8.2822 32.473 8.31893 32.5034 8.3499C32.5324 8.38077 32.5675 8.40525 32.6065 8.42176C32.6456 8.43828 32.6876 8.44647 32.73 8.44581C32.7708 8.44571 32.8111 8.43713 32.8484 8.42062C32.8858 8.40411 32.9193 8.38003 32.9468 8.3499C32.9767 8.32086 33.0004 8.28604 33.0164 8.24757C33.0324 8.20909 33.0404 8.16776 33.0399 8.12609C33.0408 8.08325 33.0331 8.04068 33.0173 8.00083C33.0016 7.96098 32.9781 7.92465 32.9482 7.89395C32.9203 7.86311 32.8861 7.83851 32.8481 7.82174C32.81 7.80498 32.7688 7.79643 32.7272 7.79665C32.6854 7.79646 32.644 7.80458 32.6053 7.82053C32.5667 7.83648 32.5316 7.85994 32.5022 7.88956C32.4727 7.91917 32.4494 7.95435 32.4336 7.99304C32.4178 8.03174 32.4099 8.07318 32.4102 8.11497Z" fill="#3792D0"/>
<path d="M35.6254 7.55306H35.46V7.36133H35.6254V7.55306ZM35.4614 7.66148H35.6254V8.58457H35.4614V7.66148Z" fill="#3792D0"/>
<path d="M38.055 8.58622H37.8882V7.66183H38.048V7.77164C38.0788 7.73337 38.1177 7.7025 38.162 7.6813C38.2057 7.6617 38.2531 7.65174 38.301 7.6521C38.3523 7.6488 38.4038 7.65667 38.4518 7.67516C38.4998 7.69365 38.5432 7.72233 38.579 7.75921C38.649 7.8446 38.6838 7.95347 38.6763 8.06363V8.59186H38.5095V8.10127C38.5154 8.02452 38.4964 7.9479 38.4552 7.88285C38.4346 7.85843 38.4085 7.83927 38.379 7.82695C38.3495 7.81462 38.3175 7.80948 38.2857 7.81196C38.2511 7.809 38.2163 7.81513 38.1849 7.82977C38.1534 7.8444 38.1263 7.86701 38.1063 7.89536C38.062 7.98094 38.0427 8.07731 38.0507 8.17336L38.055 8.58622Z" fill="#3792D0"/>
<path d="M41.0646 8.18872C41.0751 8.26193 41.1122 8.32871 41.1688 8.37636C41.2165 8.41656 41.2753 8.44128 41.3374 8.44724C41.3994 8.4532 41.4619 8.44011 41.5163 8.40972C41.5625 8.38333 41.6001 8.34425 41.6247 8.29712H41.818C41.7824 8.39123 41.7206 8.47321 41.64 8.53343C41.5619 8.58795 41.4684 8.61618 41.3731 8.61405C41.3088 8.61456 41.245 8.60228 41.1855 8.57791C41.1269 8.55317 41.0743 8.5162 41.0312 8.46949C40.9878 8.42343 40.9534 8.36966 40.9298 8.31096C40.8834 8.19302 40.8834 8.06192 40.9298 7.94398C40.9523 7.88694 40.9853 7.83462 41.0271 7.78974C41.0711 7.74208 41.124 7.70338 41.1827 7.67575C41.2425 7.65038 41.3069 7.63761 41.3718 7.63821C41.4508 7.63731 41.5288 7.65647 41.5984 7.69391C41.6677 7.73225 41.7268 7.7866 41.7707 7.85244C41.7981 7.89521 41.8183 7.94217 41.8305 7.99146C41.8446 8.04827 41.8512 8.10669 41.85 8.16522V8.18878L41.0646 8.18872ZM41.6595 8.03859C41.6427 7.97015 41.6053 7.90852 41.5524 7.86206C41.4992 7.82058 41.4336 7.79806 41.3661 7.79806C41.2986 7.79806 41.2331 7.82058 41.1799 7.86206C41.1245 7.90603 41.0854 7.96716 41.0687 8.03582L41.6595 8.03859Z" fill="#3792D0"/>
<path d="M32.1029 0.34311H30.7129V5.72681H31.3384V3.60974H31.9723C32.6645 3.60974 33.1965 3.46285 33.5681 3.16909C33.9397 2.87532 34.125 2.45829 34.1241 1.91799C34.1241 0.870813 33.4518 0.347688 32.1071 0.348616M33.1038 2.80901C32.8564 2.98832 32.4547 3.07729 31.9014 3.07729H31.337V0.885238H32.032C32.5255 0.885238 32.8896 0.972815 33.1218 1.1466C33.2407 1.24042 33.3348 1.36194 33.3959 1.50053C33.4569 1.63912 33.4831 1.79057 33.4722 1.94162C33.4722 2.3364 33.348 2.62368 33.0996 2.80346M36.6345 0.322266L34.5063 5.72681H35.1458L35.8019 4.01842H37.9592L38.6292 5.73097H39.2769L37.1614 0.322266H36.6345ZM36.0229 3.45129L36.6568 1.78322C36.7489 1.52885 36.8264 1.26941 36.8889 1.00619C36.9588 1.26936 37.0423 1.52872 37.1391 1.78322L37.7646 3.45129H36.0229ZM42.8231 0.34311L41.3871 3.03565L39.9623 0.34311H39.277L41.0701 3.66814V5.72687H41.704V3.64178L43.4999 0.345959L42.8231 0.34311ZM5.76692 3.66117C5.65382 4.07999 5.56563 4.50515 5.50282 4.9344C5.43123 4.49885 5.33139 4.06841 5.20395 3.64581L4.19202 0.34311H3.52894L2.56422 3.6167C2.43426 4.04823 2.33577 4.48862 2.26953 4.9344C2.20668 4.50797 2.12086 4.08525 2.01246 3.66807L1.16306 0.34311H0.5L1.93176 5.72681H2.55034L3.60261 2.14463C3.712 1.79586 3.79788 1.44016 3.85969 1.07991C3.88375 1.22783 3.91718 1.37408 3.95978 1.51777C4.02372 1.76103 4.0821 1.96259 4.13354 2.12243L5.21925 5.72681H5.83783L7.27655 0.34311H6.61347L5.76692 3.66117ZM9.50757 0.325051L7.37938 5.72957H8.01324L8.6763 4.01842H10.8323L11.5023 5.73097H12.15L10.0344 0.326336L9.50757 0.325051ZM8.89595 3.45408L9.52981 1.78601C9.62194 1.53162 9.69946 1.27218 9.76197 1.00895C9.84815 1.31616 9.93016 1.57471 10.0122 1.78598L10.6377 3.45406L8.89595 3.45408ZM14.2602 3.03706L12.8354 0.343131H12.1501L13.9432 3.66816V5.7269H14.5729V3.64181L16.3799 0.343196H15.703L14.2602 3.03706Z" fill="#26304B"/>
<mask id="mask0_1750_16420" style="mask-type:luminance" maskUnits="userSpaceOnUse" x="17" y="0" width="13" height="6">
<path d="M22.741 4.9165V4.44247C22.6359 4.39413 22.5505 4.3113 22.4989 4.20772C22.4473 4.10414 22.4326 3.98604 22.4574 3.873C22.4821 3.75996 22.5448 3.65877 22.6349 3.58622C22.7251 3.51367 22.8373 3.47412 22.953 3.47412C23.0687 3.47412 23.181 3.51367 23.2711 3.58622C23.3613 3.65877 23.4239 3.75996 23.4487 3.873C23.4734 3.98604 23.4588 4.10414 23.4072 4.20772C23.3556 4.3113 23.2701 4.39413 23.165 4.44247V4.91648C23.1674 4.94577 23.1637 4.97524 23.1541 5.00303C23.1446 5.03082 23.1293 5.05633 23.1094 5.07794C23.0895 5.09955 23.0653 5.1168 23.0384 5.1286C23.0115 5.1404 22.9824 5.14649 22.953 5.14649C22.9236 5.14649 22.8946 5.1404 22.8676 5.1286C22.8407 5.1168 22.8165 5.09955 22.7966 5.07794C22.7767 5.05633 22.7615 5.03082 22.7519 5.00303C22.7423 4.97524 22.7386 4.94579 22.741 4.9165ZM24.3882 3.04546V3.06631H21.5233V3.04546H20.9979V3.06631C20.9979 3.90683 21.1703 4.56618 21.515 5.04437C21.6746 5.27438 21.8896 5.46052 22.14 5.58563C22.3905 5.71074 22.6684 5.77079 22.9482 5.76026C23.2308 5.77373 23.5123 5.71645 23.7672 5.59363C24.022 5.4708 24.2422 5.28631 24.4078 5.05688C24.7497 4.58701 24.9207 3.9258 24.9207 3.07327V3.04542L24.3882 3.04546ZM17.374 0.340418V5.72266H17.9996V3.42358H20.2306V2.86755H17.9996V0.897842H20.3738V0.341811L17.374 0.340418ZM26.6665 0.890879H27.4797C27.9431 0.890879 28.2799 0.969187 28.4903 1.1258C28.7007 1.28242 28.8058 1.53911 28.8058 1.89589C28.8164 2.04229 28.794 2.1892 28.7404 2.32583C28.6868 2.46245 28.6032 2.58533 28.4958 2.68543C28.2902 2.86059 27.9658 2.94816 27.5228 2.94816H26.6665L26.6665 0.890879ZM26.041 0.341811V5.72412H26.6665V3.48611H27.7897L29.0922 5.7241H29.8317L28.3707 3.30545C29.0917 3.05523 29.4526 2.57428 29.4536 1.86258C29.4536 1.35381 29.295 0.974321 28.9796 0.721338C28.6641 0.468356 28.1762 0.341854 27.5158 0.341854L26.041 0.341811ZM21.5081 1.03683C21.1661 1.50529 20.9951 2.00988 20.9951 2.86892V2.89677H21.5234V2.87592C21.5234 2.1809 21.6457 1.79306 21.8917 1.42748C22.007 1.24868 22.1671 1.10325 22.3562 1.00568C22.5452 0.908112 22.7565 0.861829 22.969 0.871449C23.1791 0.860517 23.3883 0.90528 23.5756 1.00121C23.7628 1.09714 23.9214 1.24083 24.0352 1.41773C24.2757 1.78192 24.3966 2.16558 24.3966 2.87035V2.8912H24.9221V2.87035C24.9221 2.03632 24.7497 1.52071 24.4063 1.04382C24.2466 0.813148 24.0313 0.62649 23.7803 0.501116C23.5293 0.375743 23.2508 0.315705 22.9704 0.326558C22.6879 0.313359 22.4066 0.370911 22.1519 0.493991C21.8973 0.617071 21.6774 0.801784 21.5122 1.03137" fill="white"/>
</mask>
<g mask="url(#mask0_1750_16420)">
<path d="M29.8275 0.33252H17.374V5.76208H29.8275V0.33252Z" fill="url(#paint0_linear_1750_16420)"/>
</g>
</g>
<defs>
<linearGradient id="paint0_linear_1750_16420" x1="-50.3606" y1="25.8569" x2="-50.2112" y2="25.8569" gradientUnits="userSpaceOnUse">
<stop stop-color="#4EC8EC"/>
<stop offset="0.01" stop-color="#4EC8EC"/>
<stop offset="1" stop-color="#4684C5"/>
</linearGradient>
<clipPath id="clip0_1750_16420">
<rect width="43" height="8.6217" fill="white" transform="translate(0.5 0.322266)"/>
</clipPath>
</defs>
</svg>
