<svg width="16" height="16" viewBox="0 0 16 16" fill="none" xmlns="http://www.w3.org/2000/svg">
<g id="monobank-sticker" clip-path="url(#clip0_893_421)">
<g id="Clip path group">
<mask id="mask0_893_421" style="mask-type:luminance" maskUnits="userSpaceOnUse" x="0" y="0" width="16" height="16">
<g id="clip0_3234_27132">
<path id="Vector" d="M16 0H0V16H16V0Z" fill="white"/>
</g>
</mask>
<g mask="url(#mask0_893_421)">
<g id="Group">
<path id="Vector_2" d="M5.05268 7.50438L5.22944 7.53558C5.20959 7.58851 5.18802 7.64078 5.16472 7.69231C5.01765 8.01764 4.81538 8.29018 4.54783 8.50418C4.2117 8.77291 3.81788 8.91044 3.38994 8.90484C3.08512 8.90091 2.79288 8.82064 2.51478 8.67318C2.18737 8.49884 1.91323 8.25198 1.68506 7.94024C1.48128 7.66271 1.32997 7.35271 1.22874 7.01371C1.1311 6.68651 1.08518 6.35418 1.09374 6.01768C1.09462 5.98622 1.09557 5.96304 1.09793 5.91017C1.09854 5.8965 1.09896 5.88713 1.0993 5.87914C1.09932 5.86701 1.09966 5.85512 1.10027 5.84332L1.08941 5.81568L1.17911 5.30696L1.20331 5.28212C1.23936 5.14998 1.28839 5.0201 1.34958 4.88998C1.49627 4.57714 1.69516 4.31422 1.95518 4.10702C2.27266 3.85445 2.64214 3.71814 3.04555 3.70918C3.36334 3.70244 3.66914 3.77833 3.95945 3.9273C4.25644 4.07998 4.51265 4.29461 4.72894 4.56257C5.01326 4.91358 5.2069 5.31764 5.31648 5.76993L5.26711 6.04988C5.0081 5.8173 4.80354 5.53414 4.64535 5.20345C4.4679 4.83188 4.36451 4.43237 4.3299 4.00698C4.3116 3.78275 4.314 3.55756 4.33657 3.33488C4.34728 3.22382 4.35564 3.15559 4.37004 3.08861C4.44697 2.66854 4.57742 2.30435 4.77783 1.97114C4.94864 1.68662 5.15606 1.44771 5.40808 1.25759C5.71612 1.02461 6.05993 0.887015 6.43477 0.859315C6.8168 0.830655 7.182 0.918395 7.5188 1.1124C7.787 1.26712 8.0154 1.47575 8.20827 1.73222C8.4798 2.09256 8.65934 2.50574 8.75794 2.96936C8.81674 3.24644 8.84214 3.52818 8.83447 3.81376C8.8302 3.9741 8.8158 4.13348 8.791 4.29345C8.758 4.50167 8.7086 4.70092 8.6412 4.89142C8.59754 5.01546 8.548 5.13417 8.49227 5.24753L8.30267 5.2141C8.29094 5.06468 8.2902 4.91324 8.30007 4.75976C8.31034 4.5943 8.33187 4.43243 8.36494 4.27466C8.44194 3.90544 8.57247 3.55422 8.75507 3.22385C8.95554 2.86037 9.20414 2.54522 9.50514 2.2812C9.7844 2.03632 10.0881 1.85329 10.4226 1.73796C10.6966 1.64333 10.9773 1.60291 11.2617 1.62044L11.2671 1.6208C11.4187 1.63156 11.5019 1.64639 11.6499 1.68758L11.6563 1.68935L11.6626 1.69127C12.2105 1.8574 12.6169 2.2233 12.8731 2.74882C13.0268 3.06444 13.1081 3.40599 13.1295 3.77968C13.1456 4.06967 13.1217 4.36084 13.0602 4.65363C12.9516 5.17018 12.742 5.64538 12.4337 6.07493C12.2101 6.3868 11.9468 6.64982 11.6407 6.86058C11.4782 6.97218 11.3109 7.06411 11.1375 7.13511L11.1916 6.82831C11.2852 6.69478 11.39 6.56661 11.5057 6.44384C11.6457 6.29474 11.8002 6.16089 11.9689 6.04242C12.3329 5.78782 12.7203 5.62633 13.1408 5.56852C13.4115 5.53194 13.6758 5.54408 13.9322 5.61024C14.3478 5.71723 14.6941 5.94855 14.9495 6.29256C15.1668 6.58515 15.2892 6.92324 15.3302 7.30018C15.3515 7.49578 15.3488 7.69058 15.3213 7.88304L15.32 7.89231L15.3096 7.95111L15.3078 7.95978C15.3003 7.99584 15.2936 8.03404 15.2875 8.07544L15.2863 8.08338L15.2755 8.14458L15.2727 8.15738C15.1831 8.55724 15.0104 8.92831 14.7606 9.27671C14.5689 9.54304 14.3437 9.77404 14.0857 9.96631C13.7297 10.2322 13.3449 10.4067 12.9263 10.4792C12.6431 10.5282 12.3642 10.5236 12.0911 10.4597C11.6631 10.3591 11.3056 10.1282 11.0415 9.77804C10.8341 9.50284 10.7108 9.18498 10.6623 8.83298C10.6465 8.71891 10.6389 8.60431 10.6393 8.48944L10.8421 8.52524C10.8426 8.52624 10.843 8.52731 10.8435 8.52831C10.9785 8.84991 11.0881 9.08618 11.2075 9.30524C11.3372 9.54324 11.4868 9.76804 11.6564 9.97958C11.9211 10.3099 12.1394 10.66 12.3104 11.0344C12.467 11.3795 12.5741 11.7274 12.6288 12.0836C12.6752 12.3857 12.6819 12.6816 12.6457 12.9736C12.5865 13.4534 12.4199 13.8864 12.1392 14.263C11.8767 14.6154 11.5369 14.8857 11.1291 15.0752C10.8253 15.2164 10.5161 15.3009 10.1985 15.3228C10.0921 15.3305 9.98627 15.3313 9.88227 15.3251L9.85074 15.339L9.26674 15.236L9.25627 15.2251C9.0856 15.182 8.92547 15.1219 8.6912 15.0221C8.53347 14.9546 8.41107 14.8975 8.14447 14.7696L8.1426 14.7687C7.95694 14.6796 7.875 14.6409 7.77427 14.5954C7.52814 14.4844 7.30614 14.3992 7.09074 14.3352C6.9554 14.295 6.806 14.2645 6.6263 14.2392C6.52967 14.2255 6.421 14.2208 6.26782 14.2224C6.04924 14.225 5.86638 14.2382 5.45798 14.2762L5.45209 14.2767C5.44348 14.2775 5.44348 14.2775 5.4358 14.2782C4.95997 14.3232 4.73214 14.3384 4.44385 14.335C4.25494 14.3322 4.12335 14.3235 3.97892 14.2972C3.97799 14.2972 3.97688 14.297 3.97554 14.2969C3.93848 14.2928 3.91797 14.2902 3.88446 14.2834L3.88009 14.2826C3.8796 14.2825 3.87905 14.2824 3.87845 14.2823C3.85045 14.2782 3.83542 14.2758 3.81063 14.2705C3.78536 14.2651 3.76032 14.2585 3.73507 14.2504C3.73023 14.2492 3.72467 14.2478 3.718 14.2462C3.69898 14.2415 3.69068 14.2395 3.67988 14.2368C3.64336 14.2278 3.61393 14.2203 3.58274 14.2118C3.17306 14.0991 2.8164 13.8919 2.52579 13.5912C2.04243 13.0908 1.78142 12.4817 1.75914 11.7892C1.75122 11.534 1.77934 11.2791 1.84083 11.0244C1.90826 10.7425 2.01364 10.4718 2.15554 10.21C2.36628 9.82164 2.64234 9.47424 2.98118 9.16198C3.22202 8.93998 3.48681 8.74364 3.77448 8.57218C3.96897 8.45604 4.16206 8.31631 4.36257 8.14858C4.56716 7.97711 4.75604 7.79918 5.05268 7.50438Z" fill="white"/>
<path id="Vector_3" d="M3.90001 13.7005C3.84498 13.6868 3.78965 13.6739 3.73483 13.659C3.42782 13.5745 3.15956 13.422 2.93792 13.1927C2.55556 12.7969 2.3498 12.324 2.33202 11.7715C2.32558 11.5638 2.34955 11.3597 2.39825 11.158C2.45488 10.9212 2.54339 10.6975 2.65924 10.4838C2.84423 10.1428 3.08485 9.84627 3.36944 9.58393C3.58393 9.38627 3.81764 9.2142 4.06806 9.06487C4.30242 8.92493 4.52129 8.7634 4.7305 8.58847C4.99383 8.3678 5.23917 8.12793 5.48238 7.88573C5.69739 7.67167 5.90975 7.45547 6.1339 7.2514C6.30255 7.09733 6.47755 6.95127 6.66652 6.82287C6.90294 6.66251 7.15487 6.53585 7.43634 6.47454C7.64747 6.42846 7.8596 6.42175 8.07327 6.45482C8.31494 6.49171 8.54847 6.55749 8.77247 6.65618C9.11514 6.80753 9.39467 7.03693 9.61707 7.33833C9.76907 7.54527 9.88894 7.7702 9.99627 8.0024C10.1101 8.24867 10.2102 8.50073 10.3152 8.75093C10.4335 9.03273 10.5579 9.3114 10.7043 9.58007C10.8502 9.8478 11.0187 10.1008 11.2093 10.3387C11.44 10.6265 11.6351 10.9359 11.7886 11.2718C11.9192 11.5597 12.0144 11.8582 12.0624 12.1711C12.0999 12.4147 12.1073 12.6585 12.0769 12.9038C12.031 13.2763 11.9053 13.618 11.6797 13.9205C11.4709 14.201 11.2035 14.4086 10.8879 14.5553C10.6559 14.6631 10.4137 14.7333 10.1575 14.751C10.0668 14.7575 9.9758 14.7577 9.88507 14.7506C9.87247 14.7497 9.86007 14.7499 9.84774 14.7496C9.83494 14.7541 9.82294 14.7469 9.81034 14.7463C9.8 14.7459 9.79007 14.7394 9.77927 14.7441C9.70314 14.7307 9.62667 14.7173 9.55054 14.7038C9.54267 14.6956 9.53154 14.6984 9.52214 14.6955C9.5132 14.6939 9.50474 14.6924 9.496 14.6909C9.4888 14.6896 9.48094 14.6882 9.47394 14.687C9.27994 14.6463 9.09774 14.5721 8.91667 14.4949C8.61 14.3637 8.31374 14.2101 8.00994 14.0727C7.76374 13.9617 7.51327 13.8626 7.2542 13.7857C7.07467 13.7323 6.89134 13.6975 6.70694 13.6715C6.5595 13.6507 6.41 13.6476 6.26113 13.6491C5.96709 13.6527 5.67466 13.6803 5.38216 13.7075C5.07267 13.7367 4.76326 13.7654 4.45231 13.7617C4.32586 13.7599 4.19976 13.7553 4.07503 13.732C4.04946 13.7272 4.0233 13.7265 3.99746 13.7213C3.96479 13.7137 3.93122 13.7138 3.90001 13.7005ZM11.4963 2.24035C11.8989 2.36244 12.1761 2.62747 12.3579 3.00042C12.4825 3.25615 12.5411 3.52867 12.5573 3.8118C12.5709 4.05557 12.5497 4.29688 12.4995 4.53592C12.4071 4.97512 12.2297 5.37646 11.9683 5.74077C11.7871 5.99324 11.5723 6.21183 11.3165 6.38795C11.0887 6.54443 10.8422 6.65807 10.5691 6.70787C10.3774 6.74273 10.1865 6.74307 9.9966 6.6978C9.66787 6.62002 9.4092 6.43793 9.213 6.16496C9.0458 5.93202 8.9502 5.66917 8.90147 5.38824C8.8674 5.19179 8.8594 4.99406 8.87207 4.79553C8.8806 4.65943 8.89814 4.52478 8.926 4.39193C8.9914 4.07829 9.10207 3.78118 9.25687 3.50107C9.42134 3.20282 9.62674 2.93734 9.8828 2.7127C10.0983 2.52375 10.3375 2.37406 10.6095 2.28029C10.8094 2.21127 11.0148 2.18003 11.2265 2.19307C11.3425 2.20133 11.3883 2.2103 11.4963 2.24035ZM1.741 5.49387C1.76964 5.36911 1.814 5.24949 1.86844 5.13371C1.97395 4.90871 2.11644 4.71181 2.31181 4.55613C2.53013 4.38243 2.77862 4.28897 3.05762 4.28277C3.28414 4.27797 3.49682 4.33467 3.69753 4.43767C3.92825 4.55627 4.12139 4.72285 4.28375 4.92399C4.53614 5.23559 4.69359 5.59203 4.77723 5.98291C4.82091 6.18756 4.8396 6.39479 4.83326 6.60395C4.83024 6.70547 4.81959 6.80627 4.80394 6.90667C4.77398 7.0972 4.722 7.28073 4.64263 7.4562C4.53677 7.6904 4.39197 7.89493 4.19022 8.05633C3.95864 8.24153 3.69408 8.33547 3.39755 8.3316C3.17997 8.3288 2.97609 8.26887 2.78418 8.16707C2.52622 8.02973 2.31868 7.8354 2.14701 7.60087C1.97946 7.3726 1.85883 7.1206 1.77793 6.84967C1.69864 6.58401 1.6596 6.31177 1.66667 6.03385C1.66805 5.98474 1.67066 5.93585 1.67262 5.88699C1.67142 5.86424 1.67734 5.84227 1.67596 5.81965C1.6751 5.81014 1.678 5.80177 1.6792 5.79229C1.67954 5.78045 1.68693 5.76906 1.68191 5.75627C1.69222 5.69778 1.70251 5.63945 1.71285 5.5808C1.72657 5.56671 1.72434 5.54791 1.72858 5.53105C1.73176 5.51843 1.73092 5.50432 1.741 5.49387ZM4.93202 3.20192C4.99482 2.85384 5.09963 2.54841 5.26912 2.2666C5.39707 2.05349 5.55426 1.86568 5.7536 1.71531C5.96835 1.55289 6.20733 1.4514 6.47752 1.43143C6.74774 1.41116 6.9986 1.47475 7.23254 1.60947C7.43854 1.72832 7.60827 1.88839 7.75067 2.07777C7.9782 2.37974 8.11907 2.72072 8.1974 3.08891C8.24707 3.32304 8.268 3.55971 8.26167 3.79871C8.258 3.93423 8.24587 4.06937 8.225 4.20392C8.1982 4.37313 8.15794 4.53935 8.1008 4.70099C7.98174 5.03882 7.80687 5.34221 7.54634 5.59179C7.3844 5.74653 7.19994 5.86557 6.9866 5.93715C6.74827 6.01701 6.50674 6.02535 6.26376 5.96283C6.04406 5.90648 5.85156 5.79731 5.68009 5.64963C5.45638 5.45719 5.28936 5.22143 5.16251 4.95625C5.01213 4.64137 4.92944 4.30795 4.90116 3.96032C4.88563 3.77015 4.88784 3.57993 4.90708 3.39003C4.91396 3.31871 4.92168 3.24707 4.93202 3.20192ZM14.7206 7.99187C14.7183 8.00527 14.7159 8.0188 14.7135 8.03233C14.6389 8.36553 14.4935 8.66587 14.2956 8.94187C14.1401 9.15807 13.9567 9.34773 13.7432 9.50687C13.4691 9.71153 13.1675 9.8556 12.8288 9.91427C12.6259 9.94947 12.4235 9.94867 12.2223 9.9016C11.9256 9.83187 11.6831 9.67673 11.4991 9.43287C11.3473 9.2314 11.2642 9.00187 11.23 8.75393C11.1991 8.53173 11.2098 8.31013 11.2557 8.09067C11.3561 7.60793 11.5869 7.1938 11.9232 6.8368C12.0368 6.71593 12.1617 6.60782 12.2972 6.51268C12.5757 6.31787 12.8785 6.18367 13.2174 6.13709C13.41 6.11105 13.601 6.11729 13.7893 6.16588C14.0769 6.23993 14.3118 6.39544 14.4895 6.63485C14.6499 6.85087 14.7317 7.09713 14.7605 7.36253C14.7765 7.50913 14.7749 7.65593 14.7541 7.80227C14.7517 7.8158 14.7493 7.82947 14.7469 7.84307C14.7366 7.89233 14.728 7.94193 14.7206 7.99187Z" fill="black"/>
</g>
</g>
</g>
</g>
<defs>
<clipPath id="clip0_893_421">
<rect width="16" height="16" fill="white"/>
</clipPath>
</defs>
</svg>
