<svg width="16" height="16" viewBox="0 0 16 16" fill="none" xmlns="http://www.w3.org/2000/svg">
<g id="privat-sticker" clip-path="url(#clip0_893_414)">
<g id="Clip path group">
<mask id="mask0_893_414" style="mask-type:luminance" maskUnits="userSpaceOnUse" x="0" y="0" width="16" height="16">
<g id="clip0_603_9">
<path id="Vector" d="M15.9915 0H0V15.9697H15.9915V0Z" fill="white"/>
</g>
</mask>
<g mask="url(#mask0_893_414)">
<g id="Group">
<path id="Vector_2" d="M3.12452 12.5157C3.93339 13.7762 5.08081 14.7441 6.41495 15.2913C7.74908 15.8384 9.20697 15.9389 10.5956 15.5796C11.9844 15.2203 13.2384 14.418 14.1916 13.279C15.145 12.14 15.7527 10.7179 15.9343 9.20114C16.1159 7.68428 15.8629 6.1442 15.2087 4.78467C14.5545 3.42515 13.5301 2.31033 12.2709 1.58777C11.0118 0.865216 9.57729 0.568996 8.15741 0.738324C6.73749 0.907652 5.3991 1.53454 4.3194 2.53601L8.93835 8.24142L3.12452 12.5157Z" fill="#FDDC02"/>
<path id="Vector_3" d="M2.77768 2.33887C1.49635 3.55626 0.672808 5.23127 0.460858 7.05105C0.248906 8.87083 0.663037 10.711 1.62591 12.2279L7.45982 7.98501L2.77768 2.33887Z" fill="#12B010"/>
</g>
</g>
</g>
</g>
<defs>
<clipPath id="clip0_893_414">
<rect width="16" height="16" fill="white"/>
</clipPath>
</defs>
</svg>
