<svg width="41" height="41" viewBox="0 0 41 41" fill="none" xmlns="http://www.w3.org/2000/svg">
<g id="advantages-icon-bonus">
<path id="gift" d="M33.1663 11.1862H30.6448C31.1731 10.4879 31.4997 9.62786 31.4997 8.6862C31.4997 6.38953 29.6313 4.51953 27.333 4.51953C26.088 4.51953 24.918 5.07458 24.1146 6.04958C24.0646 6.11125 21.8163 9.10291 20.6663 10.6329C19.5147 9.10125 17.2647 6.10784 17.2097 6.03951C16.4147 5.07284 15.2447 4.51953 13.9997 4.51953C11.7013 4.51953 9.83301 6.38953 9.83301 8.6862C9.83301 9.62786 10.1579 10.4879 10.6879 11.1862H8.16634C6.32801 11.1862 4.83301 12.6812 4.83301 14.5195V20.3529C4.83301 20.8129 5.20634 21.1862 5.66634 21.1862H6.49967V30.3529C6.49967 34.1695 8.51634 36.1862 12.333 36.1862H28.9997C32.8163 36.1862 34.833 34.1695 34.833 30.3529V21.1862H35.6663C36.1263 21.1862 36.4997 20.8129 36.4997 20.3529V14.5195C36.4997 12.6812 35.0047 11.1862 33.1663 11.1862ZM25.4096 7.09949C25.8879 6.51949 26.588 6.1862 27.333 6.1862C28.7113 6.1862 29.833 7.30786 29.833 8.6862C29.833 10.0645 28.7113 11.1862 27.333 11.1862H22.3346C23.5146 9.6162 25.3263 7.20782 25.4096 7.09949ZM11.4997 8.6862C11.4997 7.30786 12.6213 6.1862 13.9997 6.1862C14.7447 6.1862 15.4447 6.51957 15.9097 7.08291C16.003 7.20291 17.8164 9.6162 18.998 11.1862H13.9997C12.6213 11.1862 11.4997 10.0645 11.4997 8.6862ZM6.49967 14.5195C6.49967 13.5995 7.24634 12.8529 8.16634 12.8529H13.9997H19.833V19.5195H6.49967V14.5195ZM8.16634 30.3529V21.1862H19.833V34.5195H12.333C9.45134 34.5195 8.16634 33.2345 8.16634 30.3529ZM33.1663 30.3529C33.1663 33.2345 31.8813 34.5195 28.9997 34.5195H21.4997V21.1862H33.1663V30.3529ZM34.833 19.5195H21.4997V12.8529H27.333H33.1663C34.0863 12.8529 34.833 13.5995 34.833 14.5195V19.5195Z" fill="#00A8E8"/>
</g>
</svg>
