<svg width="41" height="41" viewBox="0 0 41 41" fill="none" xmlns="http://www.w3.org/2000/svg">
<g id="advantages-icon-payment">
<path id="credit-card-check" d="M18.6663 29.5196H8.66634C5.78467 29.5196 4.49967 28.2346 4.49967 25.3529V16.1863H32.833V17.0196C32.833 17.4796 33.2063 17.8529 33.6663 17.8529C34.1263 17.8529 34.4997 17.4796 34.4997 17.0196V12.0196C34.4997 8.20295 32.483 6.18628 28.6663 6.18628H8.66634C4.84967 6.18628 2.83301 8.20295 2.83301 12.0196V25.3529C2.83301 29.1696 4.84967 31.1863 8.66634 31.1863H18.6663C19.1263 31.1863 19.4997 30.8129 19.4997 30.3529C19.4997 29.8929 19.1263 29.5196 18.6663 29.5196ZM8.66634 7.85295H28.6663C31.548 7.85295 32.833 9.13795 32.833 12.0196V14.5196H4.49967V12.0196C4.49967 9.13795 5.78467 7.85295 8.66634 7.85295ZM15.333 22.8529C15.793 22.8529 16.1663 23.2263 16.1663 23.6863C16.1663 24.1463 15.793 24.5196 15.333 24.5196H10.333C9.87301 24.5196 9.49967 24.1463 9.49967 23.6863C9.49967 23.2263 9.87301 22.8529 10.333 22.8529H15.333ZM30.333 21.1863C26.198 21.1863 22.833 24.5513 22.833 28.6863C22.833 32.8213 26.198 36.1863 30.333 36.1863C34.468 36.1863 37.833 32.8213 37.833 28.6863C37.833 24.5513 34.468 21.1863 30.333 21.1863ZM30.333 34.5196C27.1163 34.5196 24.4997 31.9029 24.4997 28.6863C24.4997 25.4696 27.1163 22.8529 30.333 22.8529C33.5497 22.8529 36.1663 25.4696 36.1663 28.6863C36.1663 31.9029 33.5497 34.5196 30.333 34.5196ZM33.0063 26.7079C33.3313 27.0329 33.3313 27.5613 33.0063 27.8863L30.228 30.6646C30.0713 30.8213 29.8597 30.908 29.638 30.908C29.4163 30.908 29.2047 30.8196 29.048 30.6646L27.6597 29.2763C27.3347 28.9513 27.3347 28.4229 27.6597 28.0979C27.9847 27.7729 28.513 27.7729 28.838 28.0979L29.638 28.898L31.8263 26.7097C32.153 26.383 32.6797 26.3829 33.0063 26.7079Z" fill="#00A8E8"/>
</g>
</svg>
