<svg width="40" height="41" viewBox="0 0 40 41" fill="none" xmlns="http://www.w3.org/2000/svg">
<g id="advantages-icon-delivery">
<path id="truck" d="M35.745 22.0429C35.745 22.0346 35.7499 22.0279 35.7499 22.0196C35.7499 21.9979 35.7384 21.9779 35.7367 21.9562C35.7267 21.8996 35.7134 21.8429 35.7017 21.7863C35.69 21.7479 35.685 21.7097 35.67 21.6747C35.6033 21.383 35.5318 21.0912 35.4218 20.8062L33.69 16.5296C32.91 14.5563 32.2383 12.8529 28.2817 12.8529H24.165V9.51961C24.165 7.68128 22.67 6.18628 20.8317 6.18628H7.49837C5.66004 6.18628 4.16504 7.68128 4.16504 9.51961V27.8529C4.16504 29.6913 5.66004 31.1863 7.49837 31.1863H7.58341C7.52841 31.4563 7.49837 31.7346 7.49837 32.0196C7.49837 34.3163 9.36671 36.1863 11.665 36.1863C13.9634 36.1863 15.8317 34.3163 15.8317 32.0196C15.8317 31.7346 15.8017 31.4563 15.7467 31.1863H24.2483C24.1933 31.4563 24.1634 31.7346 24.1634 32.0196C24.1634 34.3163 26.0317 36.1863 28.3301 36.1863C30.6284 36.1863 32.4967 34.3163 32.4967 32.0196C32.4967 31.7346 32.4667 31.4563 32.4117 31.1863H32.4967C34.3351 31.1863 35.8301 29.6913 35.8301 27.8529V22.9863C35.8334 22.668 35.795 22.3546 35.745 22.0429ZM28.2833 14.5196C31.105 14.5196 31.4317 15.3413 32.1434 17.148L33.7783 21.1863H24.1667V14.5196H28.2833ZM11.6667 34.5196C10.2883 34.5196 9.16667 33.3979 9.16667 32.0196C9.16667 30.6413 10.2883 29.5196 11.6667 29.5196C13.045 29.5196 14.1667 30.6413 14.1667 32.0196C14.1667 33.3979 13.045 34.5196 11.6667 34.5196ZM28.3333 34.5196C26.955 34.5196 25.8333 33.3979 25.8333 32.0196C25.8333 30.6413 26.955 29.5196 28.3333 29.5196C29.7117 29.5196 30.8333 30.6413 30.8333 32.0196C30.8333 33.3979 29.7117 34.5196 28.3333 34.5196ZM34.1667 27.8529C34.1667 28.7729 33.42 29.5196 32.5 29.5196H31.6451C30.8834 28.5129 29.6883 27.8529 28.3333 27.8529C26.9783 27.8529 25.7816 28.5129 25.0216 29.5196H14.9801C14.2184 28.5129 13.0233 27.8529 11.6683 27.8529C10.3133 27.8529 9.11673 28.5129 8.35673 29.5196H7.50163C6.58163 29.5196 5.83496 28.7729 5.83496 27.8529V22.8529H16.6683C17.1283 22.8529 17.5016 22.4796 17.5016 22.0196C17.5016 21.5596 17.1283 21.1863 16.6683 21.1863H5.83496V9.51961C5.83496 8.59961 6.58163 7.85295 7.50163 7.85295H20.835C21.755 7.85295 22.5016 8.59961 22.5016 9.51961V22.8529H34.1567C34.1584 22.8979 34.1683 22.9413 34.1683 22.9863V27.8529H34.1667Z" fill="#00A8E8"/>
</g>
</svg>
