<svg width="41" height="41" viewBox="0 0 41 41" fill="none" xmlns="http://www.w3.org/2000/svg">
<g id="advantages-icon-warranty">
<path id="trophy-star" d="M33.9997 7.85286H31.4997C31.4997 6.01453 30.0047 4.51953 28.1663 4.51953H13.1663C11.328 4.51953 9.83301 6.01453 9.83301 7.85286H7.33301C5.95467 7.85286 4.83301 8.97453 4.83301 10.3529V13.1029C4.83301 17.2096 8.05466 19.1962 10.6497 19.4645C12.1713 23.1578 15.678 25.8245 19.833 26.1429V29.5762C16.5697 29.8629 14.833 31.8296 14.833 35.3512V36.1846H26.4997V35.3529C26.4997 31.8312 24.763 29.8645 21.4997 29.5778V26.1445C25.6563 25.8262 29.1614 23.1596 30.683 19.4662C33.278 19.1979 36.4997 17.2112 36.4997 13.1045V10.3529C36.4997 8.97453 35.378 7.85286 33.9997 7.85286ZM6.49967 13.1029V10.3529C6.49967 9.89286 6.87467 9.51953 7.33301 9.51953H9.83301V15.3529C9.83301 16.1495 9.92476 16.9246 10.0898 17.6729C8.4881 17.2429 6.49967 15.9362 6.49967 13.1029ZM24.7929 34.5195H16.5414C16.7797 32.2229 18.0796 31.1862 20.668 31.1862C23.2563 31.1862 24.5546 32.2229 24.7929 34.5195ZM20.6731 24.5195C20.6714 24.5195 20.668 24.5179 20.6663 24.5179C20.6647 24.5179 20.663 24.5195 20.6596 24.5195C15.6096 24.5162 11.4997 20.4062 11.4997 15.3529V7.85286C11.4997 6.93286 12.2463 6.1862 13.1663 6.1862H28.1663C29.0863 6.1862 29.833 6.93286 29.833 7.85286V15.3529C29.833 20.4045 25.7231 24.5162 20.6731 24.5195ZM34.833 13.1029C34.833 15.9362 32.8446 17.2429 31.2429 17.6729C31.4063 16.9246 31.4997 16.1495 31.4997 15.3529V9.51953H33.9997C34.458 9.51953 34.833 9.89286 34.833 10.3529V13.1029ZM25.3081 12.1428L22.9613 11.8029L21.9481 9.75787C21.4631 8.77621 19.8714 8.77791 19.3864 9.75625L18.373 11.8029L16.0262 12.1428C15.4996 12.2195 15.068 12.5812 14.903 13.0896C14.738 13.5962 14.8731 14.1412 15.2564 14.5128L16.953 16.1578L16.568 18.3995C16.473 18.9379 16.6897 19.4729 17.1314 19.7962C17.5747 20.1196 18.1529 20.1629 18.6379 19.9095L20.6696 18.8462L22.7013 19.9095C22.9129 20.0195 23.1413 20.0745 23.3663 20.0745C23.663 20.0745 23.9563 19.9812 24.208 19.7979C24.6497 19.4745 24.8663 18.9396 24.773 18.4029L24.3864 16.1578L26.083 14.5128C26.4647 14.1412 26.6014 13.5962 26.4364 13.0896C26.2664 12.5829 25.8364 12.2195 25.3081 12.1428ZM23.1179 15.0646C22.7879 15.3846 22.638 15.8446 22.7147 16.2979L23.0447 18.2112L21.3113 17.3046C20.9079 17.0946 20.4264 17.0946 20.023 17.3046L18.2896 18.2112L18.6196 16.2962C18.6963 15.8445 18.5464 15.3846 18.218 15.0646L16.823 13.7128L18.7513 13.4329C19.2046 13.3679 19.5963 13.0862 19.8013 12.6745L20.668 10.9262L21.5363 12.6745C21.7396 13.0845 22.1297 13.3662 22.583 13.4312L24.513 13.7112L23.1179 15.0646Z" fill="#00A8E8"/>
</g>
</svg>
