<svg width="41" height="41" viewBox="0 0 41 41" fill="none" xmlns="http://www.w3.org/2000/svg">
<g id="advantages-icon-support">
<path id="headphones" d="M35.1929 27.9827C35.8195 25.446 36.1662 22.8295 36.1662 20.3529C36.1662 11.6229 29.0628 4.51953 20.3328 4.51953C11.6028 4.51953 4.49951 11.6229 4.49951 20.3529C4.49951 22.8295 4.84615 25.4464 5.47282 27.9847C5.48282 28.0364 5.48268 28.0881 5.49601 28.1397C5.52435 28.2564 5.56452 28.3628 5.59285 28.4795C5.63119 28.6212 5.65784 28.7679 5.69784 28.9096C5.70617 28.9429 5.72971 28.9663 5.74137 28.9963C5.89804 29.5679 6.04803 30.1477 6.22803 30.691L7.01619 33.2463C7.56786 35.033 9.22134 36.1862 11.003 36.1862C11.4047 36.1862 11.813 36.1281 12.218 36.0047L13.8245 35.5128C14.4645 35.3178 14.9894 34.8861 15.3027 34.2961C15.6161 33.7061 15.6829 33.0297 15.4862 32.3931L13.0127 24.2994C12.816 23.6611 12.3828 23.1361 11.7944 22.8228C11.2044 22.5111 10.5294 22.4446 9.8877 22.6413L8.31787 23.123C7.5712 23.3514 6.94101 23.7828 6.45101 24.3295C6.26601 22.9862 6.16943 21.6495 6.16943 20.3545C6.16943 12.5428 12.5244 6.18783 20.3361 6.18783C28.1478 6.18783 34.5028 12.5428 34.5028 20.3545C34.5028 21.6495 34.4062 22.9862 34.2212 24.3295C33.7329 23.7812 33.1027 23.3514 32.3543 23.123L30.7845 22.6413C30.1445 22.4463 29.4678 22.5111 28.8778 22.8228C28.2878 23.1361 27.8562 23.661 27.6595 24.301L25.188 32.3931C24.9913 33.0314 25.0561 33.7078 25.3695 34.2978C25.6828 34.8878 26.2078 35.3211 26.8461 35.5144L28.4546 36.0063C28.8579 36.1297 29.2663 36.1878 29.6696 36.1878C31.4496 36.1878 33.1043 35.0363 33.656 33.248L34.443 30.7012C34.6296 30.1328 34.7847 29.5447 34.943 28.958C34.9497 28.9397 34.9693 28.9295 34.976 28.9112C35.0143 28.7712 35.0427 28.6277 35.0793 28.486C35.1093 28.3693 35.1495 28.2597 35.1778 28.1414C35.1828 28.088 35.1829 28.036 35.1929 27.9827ZM8.8029 24.7144L10.3727 24.2327C10.4544 24.2077 10.5377 24.196 10.6177 24.196C10.7527 24.196 10.8862 24.2295 11.0079 24.2945C11.2046 24.3995 11.3478 24.5744 11.4128 24.7861L13.8879 32.8797C13.9529 33.0914 13.9294 33.3179 13.8261 33.5129C13.7228 33.7095 13.5479 33.8544 13.3329 33.9194L11.7244 34.4113C10.4178 34.8146 9.011 34.071 8.60433 32.756L7.81128 30.186C7.58295 29.496 7.38467 28.7827 7.20133 28.0661C7.16133 27.9111 7.12614 27.7544 7.08781 27.5994C6.85948 26.3344 7.5829 25.0878 8.8029 24.7144ZM32.8463 30.1995L32.0577 32.7544C31.651 34.0694 30.2463 34.813 28.938 34.4097L27.3279 33.9177C27.1145 33.8527 26.9413 33.7096 26.8363 33.5112C26.733 33.3146 26.7095 33.0894 26.7761 32.8761L29.2497 24.7844C29.3147 24.5711 29.4579 24.3963 29.6545 24.2913C29.7762 24.2263 29.9094 24.1928 30.0444 24.1928C30.126 24.1928 30.2097 24.2044 30.2897 24.2294L31.8595 24.7112C33.0795 25.0845 33.803 26.3312 33.5714 27.5929C33.533 27.7495 33.4995 27.9062 33.4578 28.0612C33.2745 28.7795 33.0762 29.4912 32.8479 30.1812C32.8496 30.1878 32.8479 30.1945 32.8463 30.1995Z" fill="#00A8E8"/>
</g>
</svg>
