<svg width="40" height="41" viewBox="0 0 40 41" fill="none" xmlns="http://www.w3.org/2000/svg">
<g id="advantages-icon-prices">
<path id="wallet" d="M30.8327 11.2212V10.3529C30.8327 6.5362 28.816 4.51953 24.9993 4.51953H8.33268C6.03435 4.51953 4.16602 6.38953 4.16602 8.6862V30.3529C4.16602 34.1695 6.18268 36.1862 9.99935 36.1862H29.9993C33.816 36.1862 35.8327 34.1695 35.8327 30.3529V17.0195C35.8327 13.4912 34.1093 11.5012 30.8327 11.2212ZM34.166 27.0195H27.4993C25.661 27.0195 24.166 25.5245 24.166 23.6862C24.166 21.8479 25.661 20.3529 27.4993 20.3529H34.166V27.0195ZM8.33268 6.1862H24.9993C27.881 6.1862 29.166 7.4712 29.166 10.3529V11.1862H8.33268C6.95435 11.1862 5.83268 10.0645 5.83268 8.6862C5.83268 7.30786 6.95435 6.1862 8.33268 6.1862ZM29.9993 34.5195H9.99935C7.11768 34.5195 5.83268 33.2345 5.83268 30.3529V12.0179C6.52935 12.5412 7.39602 12.8529 8.33268 12.8529H29.9993C32.881 12.8529 34.166 14.1379 34.166 17.0195V18.6862H27.4993C24.7427 18.6862 22.4993 20.9295 22.4993 23.6862C22.4993 26.4429 24.7427 28.6862 27.4993 28.6862H34.166V30.3529C34.166 33.2345 32.881 34.5195 29.9993 34.5195ZM28.3144 22.4362H28.3394C29.0277 22.4362 29.5827 22.9945 29.5827 23.6862C29.5827 24.3779 29.0261 24.9362 28.3394 24.9362C27.6544 24.9362 27.0827 24.3779 27.0827 23.6862C27.0827 22.9945 27.6277 22.4362 28.3144 22.4362Z" fill="#00A8E8"/>
</g>
</svg>
